<mxfile host="app.diagrams.net" agent="Mozilla/5.0 (Windows NT 10.0; Win64; x64) AppleWebKit/537.36 (KHTML, like Gecko) Chrome/136.0.0.0 Safari/537.36" version="27.0.9" pages="5">
  <diagram name="Page-1" id="1hxKZbOB3ItNLxPY3tC_">
    <mxGraphModel dx="1892" dy="1708" grid="1" gridSize="10" guides="1" tooltips="1" connect="1" arrows="1" fold="1" page="1" pageScale="1" pageWidth="850" pageHeight="1100" math="0" shadow="0">
      <root>
        <mxCell id="0" />
        <mxCell id="1" parent="0" />
        <UserObject label="" plantUmlData="{&#xa;  &quot;data&quot;: &quot;@startuml BankTransactionManagement\n\n|Customer|\nstart\n:Transaction Request;\n\n|System|\n:Validate Transaction Details;\nif (Valid?) then (no)\n  :Return Error Message;\n  stop\nelse (yes)\nendif\n\n:Check Account Status;\nif (Account Active?) then (no)\n  :Block Transaction - Account Inactive;\n  stop\nelse (yes)\nendif\n\n:Verify Customer Identity;\nif (Authentication Successful?) then (no)\n  :Transaction Declined - Auth Failed;\n  stop\nelse (yes)\nendif\n\n:Check Transaction Limits;\nif (Within Limits?) then (no)\n  :Transaction Declined - Limit Exceeded;\n  stop\nelse (yes)\nendif\n\n:Check Available Balance;\nif (Sufficient Funds?) then (no)\n  :Transaction Declined - Insufficient Funds;\n  stop\nelse (yes)\nendif\n\n:Apply Business Rules;\nif (Rules Satisfied?) then (no)\n  :Transaction Declined - Rule Violation;\n  stop\nelse (yes)\nendif\n\n:Reserve Funds;\n\n|Processing Engine|\n:Process Transaction;\n\nfork\n  |Monitoring System|\n  :Real-time Monitoring;\n  if (Suspicious Activity?) then (yes)\n    :Flag for Review;\n    |Compliance|\n    :Compliance Check;\n    if (Compliance OK?) then (no)\n      :Block Transaction;\n      stop\n    else (yes)\n    endif\n  else (no)\n  endif\nfork again\n  |Processing Engine|\n  if (Transaction Type) then (Transfer)\n    :Update Sender Account;\n    :Update Receiver Account;\n  elseif (Deposit) then\n    :Update Receiver Account;\n  elseif (Withdrawal) then\n    :Update Account Balance;\n  endif\nend fork\n\n|System|\n:Record Transaction;\n:Generate Transaction ID;\n:Send Confirmation;\n\n|Audit System|\n:Update Audit Log;\n\n|Customer|\n:Transaction Completed Successfully;\nstop\n\n@enduml&quot;,&#xa;  &quot;format&quot;: &quot;svg&quot;&#xa;}" id="dmYm623TB9j806_N1dPI-1">
          <mxCell style="shape=image;noLabel=1;verticalAlign=top;aspect=fixed;imageAspect=0;image=data:image/svg+xml,PHN2ZyB4bWxucz0iaHR0cDovL3d3dy53My5vcmcvMjAwMC9zdmciIHhtbG5zOnhsaW5rPSJodHRwOi8vd3d3LnczLm9yZy8xOTk5L3hsaW5rIiBjb250ZW50U3R5bGVUeXBlPSJ0ZXh0L2NzcyIgZGF0YS1kaWFncmFtLXR5cGU9IkFDVElWSVRZIiBoZWlnaHQ9IjIzOTJweCIgcHJlc2VydmVBc3BlY3RSYXRpbz0ibm9uZSIgc3R5bGU9IndpZHRoOjE1ODZweDtoZWlnaHQ6MjM5MnB4O2JhY2tncm91bmQ6I0ZGRkZGRjsiIHZlcnNpb249IjEuMSIgdmlld0JveD0iMCAwIDE1ODYgMjM5MiIgd2lkdGg9IjE1ODZweCIgem9vbUFuZFBhbj0ibWFnbmlmeSI+PGRlZnMvPjxnPjxyZWN0IGZpbGw9Im5vbmUiIGhlaWdodD0iMTkuMjY1NiIgc3R5bGU9InN0cm9rZTpub25lO3N0cm9rZS13aWR0aDoxOyIgd2lkdGg9IjE1NTMuNSIgeD0iMTUiIHk9IjExIi8+PGVsbGlwc2UgY3g9IjEzMyIgY3k9IjQ1LjI2NTYiIGZpbGw9IiMyMjIyMjIiIHJ4PSIxMCIgcnk9IjEwIiBzdHlsZT0ic3Ryb2tlOiMyMjIyMjI7c3Ryb2tlLXdpZHRoOjE7Ii8+PHJlY3QgZmlsbD0iI0YxRjFGMSIgaGVpZ2h0PSIzMi44NDM4IiByeD0iMTIuNSIgcnk9IjEyLjUiIHN0eWxlPSJzdHJva2U6IzE4MTgxODtzdHJva2Utd2lkdGg6MC41OyIgd2lkdGg9IjEzNCIgeD0iNjYiIHk9Ijc1LjI2NTYiLz48dGV4dCBmaWxsPSIjMDAwMDAwIiBmb250LWZhbWlseT0ic2Fucy1zZXJpZiIgZm9udC1zaXplPSIxMiIgbGVuZ3RoQWRqdXN0PSJzcGFjaW5nIiB0ZXh0TGVuZ3RoPSIxMTQiIHg9Ijc2IiB5PSI5Ni42MDk0Ij5UcmFuc2FjdGlvbiBSZXF1ZXN0PC90ZXh0PjxyZWN0IGZpbGw9IiNGMUYxRjEiIGhlaWdodD0iMzIuODQzOCIgcng9IjEyLjUiIHJ5PSIxMi41IiBzdHlsZT0ic3Ryb2tlOiMxODE4MTg7c3Ryb2tlLXdpZHRoOjAuNTsiIHdpZHRoPSIyMjQiIHg9IjIxIiB5PSIyMzA1LjY4MzYiLz48dGV4dCBmaWxsPSIjMDAwMDAwIiBmb250LWZhbWlseT0ic2Fucy1zZXJpZiIgZm9udC1zaXplPSIxMiIgbGVuZ3RoQWRqdXN0PSJzcGFjaW5nIiB0ZXh0TGVuZ3RoPSIyMDQiIHg9IjMxIiB5PSIyMzI3LjAyNzMiPlRyYW5zYWN0aW9uIENvbXBsZXRlZCBTdWNjZXNzZnVsbHk8L3RleHQ+PGVsbGlwc2UgY3g9IjEzMyIgY3k9IjIzNjkuNTI3MyIgZmlsbD0ibm9uZSIgcng9IjExIiByeT0iMTEiIHN0eWxlPSJzdHJva2U6IzIyMjIyMjtzdHJva2Utd2lkdGg6MTsiLz48ZWxsaXBzZSBjeD0iMTMzIiBjeT0iMjM2OS41MjczIiBmaWxsPSIjMjIyMjIyIiByeD0iNiIgcnk9IjYiIHN0eWxlPSJzdHJva2U6IzIyMjIyMjtzdHJva2Utd2lkdGg6MTsiLz48bGluZSBzdHlsZT0ic3Ryb2tlOiMwMDAwMDA7c3Ryb2tlLXdpZHRoOjEuNTsiIHgxPSIxNSIgeDI9IjE1IiB5MT0iMTEiIHkyPSIyMzgwLjUyNzMiLz48cmVjdCBmaWxsPSIjRjFGMUYxIiBoZWlnaHQ9IjMyLjg0MzgiIHJ4PSIxMi41IiByeT0iMTIuNSIgc3R5bGU9InN0cm9rZTojMTgxODE4O3N0cm9rZS13aWR0aDowLjU7IiB3aWR0aD0iMTg4IiB4PSIyOTQiIHk9IjEyOC4xMDk0Ii8+PHRleHQgZmlsbD0iIzAwMDAwMCIgZm9udC1mYW1pbHk9InNhbnMtc2VyaWYiIGZvbnQtc2l6ZT0iMTIiIGxlbmd0aEFkanVzdD0ic3BhY2luZyIgdGV4dExlbmd0aD0iMTY4IiB4PSIzMDQiIHk9IjE0OS40NTMxIj5WYWxpZGF0ZSBUcmFuc2FjdGlvbiBEZXRhaWxzPC90ZXh0PjxyZWN0IGZpbGw9IiNGMUYxRjEiIGhlaWdodD0iMzIuODQzOCIgcng9IjEyLjUiIHJ5PSIxMi41IiBzdHlsZT0ic3Ryb2tlOiMxODE4MTg7c3Ryb2tlLXdpZHRoOjAuNTsiIHdpZHRoPSIxNDAiIHg9IjMxOCIgeT0iMjI4Ljk1MzEiLz48dGV4dCBmaWxsPSIjMDAwMDAwIiBmb250LWZhbWlseT0ic2Fucy1zZXJpZiIgZm9udC1zaXplPSIxMiIgbGVuZ3RoQWRqdXN0PSJzcGFjaW5nIiB0ZXh0TGVuZ3RoPSIxMjAiIHg9IjMyOCIgeT0iMjUwLjI5NjkiPlJldHVybiBFcnJvciBNZXNzYWdlPC90ZXh0PjxlbGxpcHNlIGN4PSIzODgiIGN5PSIzMDEuODc1IiBmaWxsPSJub25lIiByeD0iMTEiIHJ5PSIxMSIgc3R5bGU9InN0cm9rZTojMjIyMjIyO3N0cm9rZS13aWR0aDoxOyIvPjxlbGxpcHNlIGN4PSIzODgiIGN5PSIzMDEuODc1IiBmaWxsPSIjMjIyMjIyIiByeD0iNiIgcnk9IjYiIHN0eWxlPSJzdHJva2U6IzIyMjIyMjtzdHJva2Utd2lkdGg6MTsiLz48cG9seWdvbiBmaWxsPSIjRjFGMUYxIiBwb2ludHM9IjM3MS41LDE4MC45NTMxLDQwNC41LDE4MC45NTMxLDQxNi41LDE5Mi45NTMxLDQwNC41LDIwNC45NTMxLDM3MS41LDIwNC45NTMxLDM1OS41LDE5Mi45NTMxLDM3MS41LDE4MC45NTMxIiBzdHlsZT0ic3Ryb2tlOiMxODE4MTg7c3Ryb2tlLXdpZHRoOjAuNTsiLz48dGV4dCBmaWxsPSIjMDAwMDAwIiBmb250LWZhbWlseT0ic2Fucy1zZXJpZiIgZm9udC1zaXplPSIxMSIgbGVuZ3RoQWRqdXN0PSJzcGFjaW5nIiB0ZXh0TGVuZ3RoPSIxMSIgeD0iMzkyIiB5PSIyMTUuMzUxNiI+bm88L3RleHQ+PHRleHQgZmlsbD0iIzAwMDAwMCIgZm9udC1mYW1pbHk9InNhbnMtc2VyaWYiIGZvbnQtc2l6ZT0iMTEiIGxlbmd0aEFkanVzdD0ic3BhY2luZyIgdGV4dExlbmd0aD0iMzMiIHg9IjM3MS41IiB5PSIxOTcuNDY0OCI+VmFsaWQ/PC90ZXh0Pjx0ZXh0IGZpbGw9IiMwMDAwMDAiIGZvbnQtZmFtaWx5PSJzYW5zLXNlcmlmIiBmb250LXNpemU9IjExIiBsZW5ndGhBZGp1c3Q9InNwYWNpbmciIHRleHRMZW5ndGg9IjE2LjUiIHg9IjQxNi41IiB5PSIxOTEuNTc4MSI+eWVzPC90ZXh0PjxyZWN0IGZpbGw9IiNGMUYxRjEiIGhlaWdodD0iMzIuODQzOCIgcng9IjEyLjUiIHJ5PSIxMi41IiBzdHlsZT0ic3Ryb2tlOiMxODE4MTg7c3Ryb2tlLXdpZHRoOjAuNTsiIHdpZHRoPSIxNDAiIHg9IjMxOCIgeT0iMzU0Ljg3NSIvPjx0ZXh0IGZpbGw9IiMwMDAwMDAiIGZvbnQtZmFtaWx5PSJzYW5zLXNlcmlmIiBmb250LXNpemU9IjEyIiBsZW5ndGhBZGp1c3Q9InNwYWNpbmciIHRleHRMZW5ndGg9IjEyMCIgeD0iMzI4IiB5PSIzNzYuMjE4OCI+Q2hlY2sgQWNjb3VudCBTdGF0dXM8L3RleHQ+PHJlY3QgZmlsbD0iI0YxRjFGMSIgaGVpZ2h0PSIzMi44NDM4IiByeD0iMTIuNSIgcnk9IjEyLjUiIHN0eWxlPSJzdHJva2U6IzE4MTgxODtzdHJva2Utd2lkdGg6MC41OyIgd2lkdGg9IjIzNiIgeD0iMjcwIiB5PSI0NTUuNzE4OCIvPjx0ZXh0IGZpbGw9IiMwMDAwMDAiIGZvbnQtZmFtaWx5PSJzYW5zLXNlcmlmIiBmb250LXNpemU9IjEyIiBsZW5ndGhBZGp1c3Q9InNwYWNpbmciIHRleHRMZW5ndGg9IjIxNiIgeD0iMjgwIiB5PSI0NzcuMDYyNSI+QmxvY2sgVHJhbnNhY3Rpb24gLSBBY2NvdW50IEluYWN0aXZlPC90ZXh0PjxlbGxpcHNlIGN4PSIzODgiIGN5PSI1MjguNjQwNiIgZmlsbD0ibm9uZSIgcng9IjExIiByeT0iMTEiIHN0eWxlPSJzdHJva2U6IzIyMjIyMjtzdHJva2Utd2lkdGg6MTsiLz48ZWxsaXBzZSBjeD0iMzg4IiBjeT0iNTI4LjY0MDYiIGZpbGw9IiMyMjIyMjIiIHJ4PSI2IiByeT0iNiIgc3R5bGU9InN0cm9rZTojMjIyMjIyO3N0cm9rZS13aWR0aDoxOyIvPjxwb2x5Z29uIGZpbGw9IiNGMUYxRjEiIHBvaW50cz0iMzQ2Ljc1LDQwNy43MTg4LDQyOS4yNSw0MDcuNzE4OCw0NDEuMjUsNDE5LjcxODgsNDI5LjI1LDQzMS43MTg4LDM0Ni43NSw0MzEuNzE4OCwzMzQuNzUsNDE5LjcxODgsMzQ2Ljc1LDQwNy43MTg4IiBzdHlsZT0ic3Ryb2tlOiMxODE4MTg7c3Ryb2tlLXdpZHRoOjAuNTsiLz48dGV4dCBmaWxsPSIjMDAwMDAwIiBmb250LWZhbWlseT0ic2Fucy1zZXJpZiIgZm9udC1zaXplPSIxMSIgbGVuZ3RoQWRqdXN0PSJzcGFjaW5nIiB0ZXh0TGVuZ3RoPSIxMSIgeD0iMzkyIiB5PSI0NDIuMTE3MiI+bm88L3RleHQ+PHRleHQgZmlsbD0iIzAwMDAwMCIgZm9udC1mYW1pbHk9InNhbnMtc2VyaWYiIGZvbnQtc2l6ZT0iMTEiIGxlbmd0aEFkanVzdD0ic3BhY2luZyIgdGV4dExlbmd0aD0iODIuNSIgeD0iMzQ2Ljc1IiB5PSI0MjQuMjMwNSI+QWNjb3VudCBBY3RpdmU/PC90ZXh0Pjx0ZXh0IGZpbGw9IiMwMDAwMDAiIGZvbnQtZmFtaWx5PSJzYW5zLXNlcmlmIiBmb250LXNpemU9IjExIiBsZW5ndGhBZGp1c3Q9InNwYWNpbmciIHRleHRMZW5ndGg9IjE2LjUiIHg9IjQ0MS4yNSIgeT0iNDE4LjM0MzgiPnllczwvdGV4dD48cmVjdCBmaWxsPSIjRjFGMUYxIiBoZWlnaHQ9IjMyLjg0MzgiIHJ4PSIxMi41IiByeT0iMTIuNSIgc3R5bGU9InN0cm9rZTojMTgxODE4O3N0cm9rZS13aWR0aDowLjU7IiB3aWR0aD0iMTY0IiB4PSIzMDYiIHk9IjU4MS42NDA2Ii8+PHRleHQgZmlsbD0iIzAwMDAwMCIgZm9udC1mYW1pbHk9InNhbnMtc2VyaWYiIGZvbnQtc2l6ZT0iMTIiIGxlbmd0aEFkanVzdD0ic3BhY2luZyIgdGV4dExlbmd0aD0iMTQ0IiB4PSIzMTYiIHk9IjYwMi45ODQ0Ij5WZXJpZnkgQ3VzdG9tZXIgSWRlbnRpdHk8L3RleHQ+PHJlY3QgZmlsbD0iI0YxRjFGMSIgaGVpZ2h0PSIzMi44NDM4IiByeD0iMTIuNSIgcnk9IjEyLjUiIHN0eWxlPSJzdHJva2U6IzE4MTgxODtzdHJva2Utd2lkdGg6MC41OyIgd2lkdGg9IjIyNCIgeD0iMjc2IiB5PSI2ODIuNDg0NCIvPjx0ZXh0IGZpbGw9IiMwMDAwMDAiIGZvbnQtZmFtaWx5PSJzYW5zLXNlcmlmIiBmb250LXNpemU9IjEyIiBsZW5ndGhBZGp1c3Q9InNwYWNpbmciIHRleHRMZW5ndGg9IjIwNCIgeD0iMjg2IiB5PSI3MDMuODI4MSI+VHJhbnNhY3Rpb24gRGVjbGluZWQgLSBBdXRoIEZhaWxlZDwvdGV4dD48ZWxsaXBzZSBjeD0iMzg4IiBjeT0iNzU1LjQwNjMiIGZpbGw9Im5vbmUiIHJ4PSIxMSIgcnk9IjExIiBzdHlsZT0ic3Ryb2tlOiMyMjIyMjI7c3Ryb2tlLXdpZHRoOjE7Ii8+PGVsbGlwc2UgY3g9IjM4OCIgY3k9Ijc1NS40MDYzIiBmaWxsPSIjMjIyMjIyIiByeD0iNiIgcnk9IjYiIHN0eWxlPSJzdHJva2U6IzIyMjIyMjtzdHJva2Utd2lkdGg6MTsiLz48cG9seWdvbiBmaWxsPSIjRjFGMUYxIiBwb2ludHM9IjMxNi41LDYzNC40ODQ0LDQ1OS41LDYzNC40ODQ0LDQ3MS41LDY0Ni40ODQ0LDQ1OS41LDY1OC40ODQ0LDMxNi41LDY1OC40ODQ0LDMwNC41LDY0Ni40ODQ0LDMxNi41LDYzNC40ODQ0IiBzdHlsZT0ic3Ryb2tlOiMxODE4MTg7c3Ryb2tlLXdpZHRoOjAuNTsiLz48dGV4dCBmaWxsPSIjMDAwMDAwIiBmb250LWZhbWlseT0ic2Fucy1zZXJpZiIgZm9udC1zaXplPSIxMSIgbGVuZ3RoQWRqdXN0PSJzcGFjaW5nIiB0ZXh0TGVuZ3RoPSIxMSIgeD0iMzkyIiB5PSI2NjguODgyOCI+bm88L3RleHQ+PHRleHQgZmlsbD0iIzAwMDAwMCIgZm9udC1mYW1pbHk9InNhbnMtc2VyaWYiIGZvbnQtc2l6ZT0iMTEiIGxlbmd0aEFkanVzdD0ic3BhY2luZyIgdGV4dExlbmd0aD0iMTQzIiB4PSIzMTYuNSIgeT0iNjUwLjk5NjEiPkF1dGhlbnRpY2F0aW9uIFN1Y2Nlc3NmdWw/PC90ZXh0Pjx0ZXh0IGZpbGw9IiMwMDAwMDAiIGZvbnQtZmFtaWx5PSJzYW5zLXNlcmlmIiBmb250LXNpemU9IjExIiBsZW5ndGhBZGp1c3Q9InNwYWNpbmciIHRleHRMZW5ndGg9IjE2LjUiIHg9IjQ3MS41IiB5PSI2NDUuMTA5NCI+eWVzPC90ZXh0PjxyZWN0IGZpbGw9IiNGMUYxRjEiIGhlaWdodD0iMzIuODQzOCIgcng9IjEyLjUiIHJ5PSIxMi41IiBzdHlsZT0ic3Ryb2tlOiMxODE4MTg7c3Ryb2tlLXdpZHRoOjAuNTsiIHdpZHRoPSIxNjQiIHg9IjMwNiIgeT0iODA4LjQwNjMiLz48dGV4dCBmaWxsPSIjMDAwMDAwIiBmb250LWZhbWlseT0ic2Fucy1zZXJpZiIgZm9udC1zaXplPSIxMiIgbGVuZ3RoQWRqdXN0PSJzcGFjaW5nIiB0ZXh0TGVuZ3RoPSIxNDQiIHg9IjMxNiIgeT0iODI5Ljc1Ij5DaGVjayBUcmFuc2FjdGlvbiBMaW1pdHM8L3RleHQ+PHJlY3QgZmlsbD0iI0YxRjFGMSIgaGVpZ2h0PSIzMi44NDM4IiByeD0iMTIuNSIgcnk9IjEyLjUiIHN0eWxlPSJzdHJva2U6IzE4MTgxODtzdHJva2Utd2lkdGg6MC41OyIgd2lkdGg9IjI0MiIgeD0iMjY3IiB5PSI5MDkuMjUiLz48dGV4dCBmaWxsPSIjMDAwMDAwIiBmb250LWZhbWlseT0ic2Fucy1zZXJpZiIgZm9udC1zaXplPSIxMiIgbGVuZ3RoQWRqdXN0PSJzcGFjaW5nIiB0ZXh0TGVuZ3RoPSIyMjIiIHg9IjI3NyIgeT0iOTMwLjU5MzgiPlRyYW5zYWN0aW9uIERlY2xpbmVkIC0gTGltaXQgRXhjZWVkZWQ8L3RleHQ+PGVsbGlwc2UgY3g9IjM4OCIgY3k9Ijk4Mi4xNzE5IiBmaWxsPSJub25lIiByeD0iMTEiIHJ5PSIxMSIgc3R5bGU9InN0cm9rZTojMjIyMjIyO3N0cm9rZS13aWR0aDoxOyIvPjxlbGxpcHNlIGN4PSIzODgiIGN5PSI5ODIuMTcxOSIgZmlsbD0iIzIyMjIyMiIgcng9IjYiIHJ5PSI2IiBzdHlsZT0ic3Ryb2tlOiMyMjIyMjI7c3Ryb2tlLXdpZHRoOjE7Ii8+PHBvbHlnb24gZmlsbD0iI0YxRjFGMSIgcG9pbnRzPSIzNDkuNSw4NjEuMjUsNDI2LjUsODYxLjI1LDQzOC41LDg3My4yNSw0MjYuNSw4ODUuMjUsMzQ5LjUsODg1LjI1LDMzNy41LDg3My4yNSwzNDkuNSw4NjEuMjUiIHN0eWxlPSJzdHJva2U6IzE4MTgxODtzdHJva2Utd2lkdGg6MC41OyIvPjx0ZXh0IGZpbGw9IiMwMDAwMDAiIGZvbnQtZmFtaWx5PSJzYW5zLXNlcmlmIiBmb250LXNpemU9IjExIiBsZW5ndGhBZGp1c3Q9InNwYWNpbmciIHRleHRMZW5ndGg9IjExIiB4PSIzOTIiIHk9Ijg5NS42NDg0Ij5ubzwvdGV4dD48dGV4dCBmaWxsPSIjMDAwMDAwIiBmb250LWZhbWlseT0ic2Fucy1zZXJpZiIgZm9udC1zaXplPSIxMSIgbGVuZ3RoQWRqdXN0PSJzcGFjaW5nIiB0ZXh0TGVuZ3RoPSI3NyIgeD0iMzQ5LjUiIHk9Ijg3Ny43NjE3Ij5XaXRoaW4gTGltaXRzPzwvdGV4dD48dGV4dCBmaWxsPSIjMDAwMDAwIiBmb250LWZhbWlseT0ic2Fucy1zZXJpZiIgZm9udC1zaXplPSIxMSIgbGVuZ3RoQWRqdXN0PSJzcGFjaW5nIiB0ZXh0TGVuZ3RoPSIxNi41IiB4PSI0MzguNSIgeT0iODcxLjg3NSI+eWVzPC90ZXh0PjxyZWN0IGZpbGw9IiNGMUYxRjEiIGhlaWdodD0iMzIuODQzOCIgcng9IjEyLjUiIHJ5PSIxMi41IiBzdHlsZT0ic3Ryb2tlOiMxODE4MTg7c3Ryb2tlLXdpZHRoOjAuNTsiIHdpZHRoPSIxNTgiIHg9IjMwOSIgeT0iMTAzNS4xNzE5Ii8+PHRleHQgZmlsbD0iIzAwMDAwMCIgZm9udC1mYW1pbHk9InNhbnMtc2VyaWYiIGZvbnQtc2l6ZT0iMTIiIGxlbmd0aEFkanVzdD0ic3BhY2luZyIgdGV4dExlbmd0aD0iMTM4IiB4PSIzMTkiIHk9IjEwNTYuNTE1NiI+Q2hlY2sgQXZhaWxhYmxlIEJhbGFuY2U8L3RleHQ+PHJlY3QgZmlsbD0iI0YxRjFGMSIgaGVpZ2h0PSIzMi44NDM4IiByeD0iMTIuNSIgcnk9IjEyLjUiIHN0eWxlPSJzdHJva2U6IzE4MTgxODtzdHJva2Utd2lkdGg6MC41OyIgd2lkdGg9IjI2NiIgeD0iMjU1IiB5PSIxMTM2LjAxNTYiLz48dGV4dCBmaWxsPSIjMDAwMDAwIiBmb250LWZhbWlseT0ic2Fucy1zZXJpZiIgZm9udC1zaXplPSIxMiIgbGVuZ3RoQWRqdXN0PSJzcGFjaW5nIiB0ZXh0TGVuZ3RoPSIyNDYiIHg9IjI2NSIgeT0iMTE1Ny4zNTk0Ij5UcmFuc2FjdGlvbiBEZWNsaW5lZCAtIEluc3VmZmljaWVudCBGdW5kczwvdGV4dD48ZWxsaXBzZSBjeD0iMzg4IiBjeT0iMTIwOC45Mzc1IiBmaWxsPSJub25lIiByeD0iMTEiIHJ5PSIxMSIgc3R5bGU9InN0cm9rZTojMjIyMjIyO3N0cm9rZS13aWR0aDoxOyIvPjxlbGxpcHNlIGN4PSIzODgiIGN5PSIxMjA4LjkzNzUiIGZpbGw9IiMyMjIyMjIiIHJ4PSI2IiByeT0iNiIgc3R5bGU9InN0cm9rZTojMjIyMjIyO3N0cm9rZS13aWR0aDoxOyIvPjxwb2x5Z29uIGZpbGw9IiNGMUYxRjEiIHBvaW50cz0iMzQxLjI1LDEwODguMDE1Niw0MzQuNzUsMTA4OC4wMTU2LDQ0Ni43NSwxMTAwLjAxNTYsNDM0Ljc1LDExMTIuMDE1NiwzNDEuMjUsMTExMi4wMTU2LDMyOS4yNSwxMTAwLjAxNTYsMzQxLjI1LDEwODguMDE1NiIgc3R5bGU9InN0cm9rZTojMTgxODE4O3N0cm9rZS13aWR0aDowLjU7Ii8+PHRleHQgZmlsbD0iIzAwMDAwMCIgZm9udC1mYW1pbHk9InNhbnMtc2VyaWYiIGZvbnQtc2l6ZT0iMTEiIGxlbmd0aEFkanVzdD0ic3BhY2luZyIgdGV4dExlbmd0aD0iMTEiIHg9IjM5MiIgeT0iMTEyMi40MTQxIj5ubzwvdGV4dD48dGV4dCBmaWxsPSIjMDAwMDAwIiBmb250LWZhbWlseT0ic2Fucy1zZXJpZiIgZm9udC1zaXplPSIxMSIgbGVuZ3RoQWRqdXN0PSJzcGFjaW5nIiB0ZXh0TGVuZ3RoPSI5My41IiB4PSIzNDEuMjUiIHk9IjExMDQuNTI3MyI+U3VmZmljaWVudCBGdW5kcz88L3RleHQ+PHRleHQgZmlsbD0iIzAwMDAwMCIgZm9udC1mYW1pbHk9InNhbnMtc2VyaWYiIGZvbnQtc2l6ZT0iMTEiIGxlbmd0aEFkanVzdD0ic3BhY2luZyIgdGV4dExlbmd0aD0iMTYuNSIgeD0iNDQ2Ljc1IiB5PSIxMDk4LjY0MDYiPnllczwvdGV4dD48cmVjdCBmaWxsPSIjRjFGMUYxIiBoZWlnaHQ9IjMyLjg0MzgiIHJ4PSIxMi41IiByeT0iMTIuNSIgc3R5bGU9InN0cm9rZTojMTgxODE4O3N0cm9rZS13aWR0aDowLjU7IiB3aWR0aD0iMTQwIiB4PSIzMTgiIHk9IjEyNjEuOTM3NSIvPjx0ZXh0IGZpbGw9IiMwMDAwMDAiIGZvbnQtZmFtaWx5PSJzYW5zLXNlcmlmIiBmb250LXNpemU9IjEyIiBsZW5ndGhBZGp1c3Q9InNwYWNpbmciIHRleHRMZW5ndGg9IjEyMCIgeD0iMzI4IiB5PSIxMjgzLjI4MTMiPkFwcGx5IEJ1c2luZXNzIFJ1bGVzPC90ZXh0PjxyZWN0IGZpbGw9IiNGMUYxRjEiIGhlaWdodD0iMzIuODQzOCIgcng9IjEyLjUiIHJ5PSIxMi41IiBzdHlsZT0ic3Ryb2tlOiMxODE4MTg7c3Ryb2tlLXdpZHRoOjAuNTsiIHdpZHRoPSIyNDIiIHg9IjI2NyIgeT0iMTM2Mi43ODEzIi8+PHRleHQgZmlsbD0iIzAwMDAwMCIgZm9udC1mYW1pbHk9InNhbnMtc2VyaWYiIGZvbnQtc2l6ZT0iMTIiIGxlbmd0aEFkanVzdD0ic3BhY2luZyIgdGV4dExlbmd0aD0iMjIyIiB4PSIyNzciIHk9IjEzODQuMTI1Ij5UcmFuc2FjdGlvbiBEZWNsaW5lZCAtIFJ1bGUgVmlvbGF0aW9uPC90ZXh0PjxlbGxpcHNlIGN4PSIzODgiIGN5PSIxNDM1LjcwMzEiIGZpbGw9Im5vbmUiIHJ4PSIxMSIgcnk9IjExIiBzdHlsZT0ic3Ryb2tlOiMyMjIyMjI7c3Ryb2tlLXdpZHRoOjE7Ii8+PGVsbGlwc2UgY3g9IjM4OCIgY3k9IjE0MzUuNzAzMSIgZmlsbD0iIzIyMjIyMiIgcng9IjYiIHJ5PSI2IiBzdHlsZT0ic3Ryb2tlOiMyMjIyMjI7c3Ryb2tlLXdpZHRoOjE7Ii8+PHBvbHlnb24gZmlsbD0iI0YxRjFGMSIgcG9pbnRzPSIzNDQsMTMxNC43ODEzLDQzMiwxMzE0Ljc4MTMsNDQ0LDEzMjYuNzgxMyw0MzIsMTMzOC43ODEzLDM0NCwxMzM4Ljc4MTMsMzMyLDEzMjYuNzgxMywzNDQsMTMxNC43ODEzIiBzdHlsZT0ic3Ryb2tlOiMxODE4MTg7c3Ryb2tlLXdpZHRoOjAuNTsiLz48dGV4dCBmaWxsPSIjMDAwMDAwIiBmb250LWZhbWlseT0ic2Fucy1zZXJpZiIgZm9udC1zaXplPSIxMSIgbGVuZ3RoQWRqdXN0PSJzcGFjaW5nIiB0ZXh0TGVuZ3RoPSIxMSIgeD0iMzkyIiB5PSIxMzQ5LjE3OTciPm5vPC90ZXh0Pjx0ZXh0IGZpbGw9IiMwMDAwMDAiIGZvbnQtZmFtaWx5PSJzYW5zLXNlcmlmIiBmb250LXNpemU9IjExIiBsZW5ndGhBZGp1c3Q9InNwYWNpbmciIHRleHRMZW5ndGg9Ijg4IiB4PSIzNDQiIHk9IjEzMzEuMjkzIj5SdWxlcyBTYXRpc2ZpZWQ/PC90ZXh0Pjx0ZXh0IGZpbGw9IiMwMDAwMDAiIGZvbnQtZmFtaWx5PSJzYW5zLXNlcmlmIiBmb250LXNpemU9IjExIiBsZW5ndGhBZGp1c3Q9InNwYWNpbmciIHRleHRMZW5ndGg9IjE2LjUiIHg9IjQ0NCIgeT0iMTMyNS40MDYzIj55ZXM8L3RleHQ+PHJlY3QgZmlsbD0iI0YxRjFGMSIgaGVpZ2h0PSIzMi44NDM4IiByeD0iMTIuNSIgcnk9IjEyLjUiIHN0eWxlPSJzdHJva2U6IzE4MTgxODtzdHJva2Utd2lkdGg6MC41OyIgd2lkdGg9Ijk4IiB4PSIzMzkiIHk9IjE0ODguNzAzMSIvPjx0ZXh0IGZpbGw9IiMwMDAwMDAiIGZvbnQtZmFtaWx5PSJzYW5zLXNlcmlmIiBmb250LXNpemU9IjEyIiBsZW5ndGhBZGp1c3Q9InNwYWNpbmciIHRleHRMZW5ndGg9Ijc4IiB4PSIzNDkiIHk9IjE1MTAuMDQ2OSI+UmVzZXJ2ZSBGdW5kczwvdGV4dD48cmVjdCBmaWxsPSIjRjFGMUYxIiBoZWlnaHQ9IjMyLjg0MzgiIHJ4PSIxMi41IiByeT0iMTIuNSIgc3R5bGU9InN0cm9rZTojMTgxODE4O3N0cm9rZS13aWR0aDowLjU7IiB3aWR0aD0iMTI4IiB4PSIzMjQiIHk9IjIwOTQuMzA4NiIvPjx0ZXh0IGZpbGw9IiMwMDAwMDAiIGZvbnQtZmFtaWx5PSJzYW5zLXNlcmlmIiBmb250LXNpemU9IjEyIiBsZW5ndGhBZGp1c3Q9InNwYWNpbmciIHRleHRMZW5ndGg9IjEwOCIgeD0iMzM0IiB5PSIyMTE1LjY1MjMiPlJlY29yZCBUcmFuc2FjdGlvbjwvdGV4dD48cmVjdCBmaWxsPSIjRjFGMUYxIiBoZWlnaHQ9IjMyLjg0MzgiIHJ4PSIxMi41IiByeT0iMTIuNSIgc3R5bGU9InN0cm9rZTojMTgxODE4O3N0cm9rZS13aWR0aDowLjU7IiB3aWR0aD0iMTU4IiB4PSIzMDkiIHk9IjIxNDcuMTUyMyIvPjx0ZXh0IGZpbGw9IiMwMDAwMDAiIGZvbnQtZmFtaWx5PSJzYW5zLXNlcmlmIiBmb250LXNpemU9IjEyIiBsZW5ndGhBZGp1c3Q9InNwYWNpbmciIHRleHRMZW5ndGg9IjEzOCIgeD0iMzE5IiB5PSIyMTY4LjQ5NjEiPkdlbmVyYXRlIFRyYW5zYWN0aW9uIElEPC90ZXh0PjxyZWN0IGZpbGw9IiNGMUYxRjEiIGhlaWdodD0iMzIuODQzOCIgcng9IjEyLjUiIHJ5PSIxMi41IiBzdHlsZT0ic3Ryb2tlOiMxODE4MTg7c3Ryb2tlLXdpZHRoOjAuNTsiIHdpZHRoPSIxMjIiIHg9IjMyNyIgeT0iMjE5OS45OTYxIi8+PHRleHQgZmlsbD0iIzAwMDAwMCIgZm9udC1mYW1pbHk9InNhbnMtc2VyaWYiIGZvbnQtc2l6ZT0iMTIiIGxlbmd0aEFkanVzdD0ic3BhY2luZyIgdGV4dExlbmd0aD0iMTAyIiB4PSIzMzciIHk9IjIyMjEuMzM5OCI+U2VuZCBDb25maXJtYXRpb248L3RleHQ+PGxpbmUgc3R5bGU9InN0cm9rZTojMDAwMDAwO3N0cm9rZS13aWR0aDoxLjU7IiB4MT0iMjQ5IiB4Mj0iMjQ5IiB5MT0iMTEiIHkyPSIyMzgwLjUyNzMiLz48cmVjdCBmaWxsPSIjRjFGMUYxIiBoZWlnaHQ9IjMyLjg0MzgiIHJ4PSIxMi41IiByeT0iMTIuNSIgc3R5bGU9InN0cm9rZTojMTgxODE4O3N0cm9rZS13aWR0aDowLjU7IiB3aWR0aD0iMTM0IiB4PSI2NzMiIHk9IjE1NDEuNTQ2OSIvPjx0ZXh0IGZpbGw9IiMwMDAwMDAiIGZvbnQtZmFtaWx5PSJzYW5zLXNlcmlmIiBmb250LXNpemU9IjEyIiBsZW5ndGhBZGp1c3Q9InNwYWNpbmciIHRleHRMZW5ndGg9IjExNCIgeD0iNjgzIiB5PSIxNTYyLjg5MDYiPlByb2Nlc3MgVHJhbnNhY3Rpb248L3RleHQ+PHJlY3QgZmlsbD0iIzU1NTU1NSIgaGVpZ2h0PSI2IiByeD0iMi41IiByeT0iMi41IiBzdHlsZT0ic3Ryb2tlOiM1NTU1NTU7c3Ryb2tlLXdpZHRoOjE7IiB3aWR0aD0iNTQwIiB4PSI1NTYiIHk9IjE1OTQuMzkwNiIvPjxwb2x5Z29uIGZpbGw9IiNGMUYxRjEiIHBvaW50cz0iNjAzLDE3MzUuODQ3Nyw2OTEsMTczNS44NDc3LDcwMywxNzQ3Ljg0NzcsNjkxLDE3NTkuODQ3Nyw2MDMsMTc1OS44NDc3LDU5MSwxNzQ3Ljg0NzcsNjAzLDE3MzUuODQ3NyIgc3R5bGU9InN0cm9rZTojMTgxODE4O3N0cm9rZS13aWR0aDowLjU7Ii8+PHRleHQgZmlsbD0iIzAwMDAwMCIgZm9udC1mYW1pbHk9InNhbnMtc2VyaWYiIGZvbnQtc2l6ZT0iMTEiIGxlbmd0aEFkanVzdD0ic3BhY2luZyIgdGV4dExlbmd0aD0iNDQiIHg9IjY1MSIgeT0iMTc3MC4yNDYxIj5UcmFuc2ZlcjwvdGV4dD48dGV4dCBmaWxsPSIjMDAwMDAwIiBmb250LWZhbWlseT0ic2Fucy1zZXJpZiIgZm9udC1zaXplPSIxMSIgbGVuZ3RoQWRqdXN0PSJzcGFjaW5nIiB0ZXh0TGVuZ3RoPSI4OCIgeD0iNjAzIiB5PSIxNzUyLjM1OTQiPlRyYW5zYWN0aW9uIFR5cGU8L3RleHQ+PHJlY3QgZmlsbD0iI0YxRjFGMSIgaGVpZ2h0PSIzMi44NDM4IiByeD0iMTIuNSIgcnk9IjEyLjUiIHN0eWxlPSJzdHJva2U6IzE4MTgxODtzdHJva2Utd2lkdGg6MC41OyIgd2lkdGg9IjE0NiIgeD0iNTc0IiB5PSIxNzkxLjYyMTEiLz48dGV4dCBmaWxsPSIjMDAwMDAwIiBmb250LWZhbWlseT0ic2Fucy1zZXJpZiIgZm9udC1zaXplPSIxMiIgbGVuZ3RoQWRqdXN0PSJzcGFjaW5nIiB0ZXh0TGVuZ3RoPSIxMjYiIHg9IjU4NCIgeT0iMTgxMi45NjQ4Ij5VcGRhdGUgU2VuZGVyIEFjY291bnQ8L3RleHQ+PHJlY3QgZmlsbD0iI0YxRjFGMSIgaGVpZ2h0PSIzMi44NDM4IiByeD0iMTIuNSIgcnk9IjEyLjUiIHN0eWxlPSJzdHJva2U6IzE4MTgxODtzdHJva2Utd2lkdGg6MC41OyIgd2lkdGg9IjE1OCIgeD0iNTY4IiB5PSIxODQ3LjAwNzgiLz48dGV4dCBmaWxsPSIjMDAwMDAwIiBmb250LWZhbWlseT0ic2Fucy1zZXJpZiIgZm9udC1zaXplPSIxMiIgbGVuZ3RoQWRqdXN0PSJzcGFjaW5nIiB0ZXh0TGVuZ3RoPSIxMzgiIHg9IjU3OCIgeT0iMTg2OC4zNTE2Ij5VcGRhdGUgUmVjZWl2ZXIgQWNjb3VudDwvdGV4dD48cG9seWdvbiBmaWxsPSIjRjFGMUYxIiBwb2ludHM9IjgwNS43NSwxNzM1Ljg0NzcsODQ0LjI1LDE3MzUuODQ3Nyw4NTYuMjUsMTc0Ny44NDc3LDg0NC4yNSwxNzU5Ljg0NzcsODA1Ljc1LDE3NTkuODQ3Nyw3OTMuNzUsMTc0Ny44NDc3LDgwNS43NSwxNzM1Ljg0NzciIHN0eWxlPSJzdHJva2U6IzE4MTgxODtzdHJva2Utd2lkdGg6MC41OyIvPjx0ZXh0IGZpbGw9IiMwMDAwMDAiIGZvbnQtZmFtaWx5PSJzYW5zLXNlcmlmIiBmb250LXNpemU9IjExIiBsZW5ndGhBZGp1c3Q9InNwYWNpbmciIHRleHRMZW5ndGg9IjM4LjUiIHg9IjgwNS43NSIgeT0iMTc1Mi4zNTk0Ij5EZXBvc2l0PC90ZXh0PjxyZWN0IGZpbGw9IiNGMUYxRjEiIGhlaWdodD0iMzIuODQzOCIgcng9IjEyLjUiIHJ5PSIxMi41IiBzdHlsZT0ic3Ryb2tlOiMxODE4MTg7c3Ryb2tlLXdpZHRoOjAuNTsiIHdpZHRoPSIxNTgiIHg9Ijc0NiIgeT0iMTc3OS44NDc3Ii8+PHRleHQgZmlsbD0iIzAwMDAwMCIgZm9udC1mYW1pbHk9InNhbnMtc2VyaWYiIGZvbnQtc2l6ZT0iMTIiIGxlbmd0aEFkanVzdD0ic3BhY2luZyIgdGV4dExlbmd0aD0iMTM4IiB4PSI3NTYiIHk9IjE4MDEuMTkxNCI+VXBkYXRlIFJlY2VpdmVyIEFjY291bnQ8L3RleHQ+PHBvbHlnb24gZmlsbD0iI0YxRjFGMSIgcG9pbnRzPSI5NjIuNSwxNzM1Ljg0NzcsMTAxNy41LDE3MzUuODQ3NywxMDI5LjUsMTc0Ny44NDc3LDEwMTcuNSwxNzU5Ljg0NzcsOTYyLjUsMTc1OS44NDc3LDk1MC41LDE3NDcuODQ3Nyw5NjIuNSwxNzM1Ljg0NzciIHN0eWxlPSJzdHJva2U6IzE4MTgxODtzdHJva2Utd2lkdGg6MC41OyIvPjx0ZXh0IGZpbGw9IiMwMDAwMDAiIGZvbnQtZmFtaWx5PSJzYW5zLXNlcmlmIiBmb250LXNpemU9IjExIiBsZW5ndGhBZGp1c3Q9InNwYWNpbmciIHRleHRMZW5ndGg9IjU1IiB4PSI5NjIuNSIgeT0iMTc1Mi4zNTk0Ij5XaXRoZHJhd2FsPC90ZXh0PjxyZWN0IGZpbGw9IiNGMUYxRjEiIGhlaWdodD0iMzIuODQzOCIgcng9IjEyLjUiIHJ5PSIxMi41IiBzdHlsZT0ic3Ryb2tlOiMxODE4MTg7c3Ryb2tlLXdpZHRoOjAuNTsiIHdpZHRoPSIxNTIiIHg9IjkxNCIgeT0iMTc3OS44NDc3Ii8+PHRleHQgZmlsbD0iIzAwMDAwMCIgZm9udC1mYW1pbHk9InNhbnMtc2VyaWYiIGZvbnQtc2l6ZT0iMTIiIGxlbmd0aEFkanVzdD0ic3BhY2luZyIgdGV4dExlbmd0aD0iMTMyIiB4PSI5MjQiIHk9IjE4MDEuMTkxNCI+VXBkYXRlIEFjY291bnQgQmFsYW5jZTwvdGV4dD48cmVjdCBmaWxsPSIjNTU1NTU1IiBoZWlnaHQ9IjYiIHJ4PSIyLjUiIHJ5PSIyLjUiIHN0eWxlPSJzdHJva2U6IzU1NTU1NTtzdHJva2Utd2lkdGg6MTsiIHdpZHRoPSI1NDAiIHg9IjU1NiIgeT0iMjA2OC4zMDg2Ii8+PGxpbmUgc3R5bGU9InN0cm9rZTojMDAwMDAwO3N0cm9rZS13aWR0aDoxLjU7IiB4MT0iNTUwIiB4Mj0iNTUwIiB5MT0iMTEiIHkyPSIyMzgwLjUyNzMiLz48cmVjdCBmaWxsPSIjRjFGMUYxIiBoZWlnaHQ9IjMyLjg0MzgiIHJ4PSIxMi41IiByeT0iMTIuNSIgc3R5bGU9InN0cm9rZTojMTgxODE4O3N0cm9rZS13aWR0aDowLjU7IiB3aWR0aD0iMTQwIiB4PSIxMTMwIiB5PSIxNjIwLjM5MDYiLz48dGV4dCBmaWxsPSIjMDAwMDAwIiBmb250LWZhbWlseT0ic2Fucy1zZXJpZiIgZm9udC1zaXplPSIxMiIgbGVuZ3RoQWRqdXN0PSJzcGFjaW5nIiB0ZXh0TGVuZ3RoPSIxMjAiIHg9IjExNDAiIHk9IjE2NDEuNzM0NCI+UmVhbC10aW1lIE1vbml0b3Jpbmc8L3RleHQ+PHJlY3QgZmlsbD0iI0YxRjFGMSIgaGVpZ2h0PSIzMi44NDM4IiByeD0iMTIuNSIgcnk9IjEyLjUiIHN0eWxlPSJzdHJva2U6IzE4MTgxODtzdHJva2Utd2lkdGg6MC41OyIgd2lkdGg9IjExMCIgeD0iMTE0NSIgeT0iMTcyMS4yMzQ0Ii8+PHRleHQgZmlsbD0iIzAwMDAwMCIgZm9udC1mYW1pbHk9InNhbnMtc2VyaWYiIGZvbnQtc2l6ZT0iMTIiIGxlbmd0aEFkanVzdD0ic3BhY2luZyIgdGV4dExlbmd0aD0iOTAiIHg9IjExNTUiIHk9IjE3NDIuNTc4MSI+RmxhZyBmb3IgUmV2aWV3PC90ZXh0Pjxwb2x5Z29uIGZpbGw9IiNGMUYxRjEiIHBvaW50cz0iMTE0NSwxNjczLjIzNDQsMTI1NSwxNjczLjIzNDQsMTI2NywxNjg1LjIzNDQsMTI1NSwxNjk3LjIzNDQsMTE0NSwxNjk3LjIzNDQsMTEzMywxNjg1LjIzNDQsMTE0NSwxNjczLjIzNDQiIHN0eWxlPSJzdHJva2U6IzE4MTgxODtzdHJva2Utd2lkdGg6MC41OyIvPjx0ZXh0IGZpbGw9IiMwMDAwMDAiIGZvbnQtZmFtaWx5PSJzYW5zLXNlcmlmIiBmb250LXNpemU9IjExIiBsZW5ndGhBZGp1c3Q9InNwYWNpbmciIHRleHRMZW5ndGg9IjE2LjUiIHg9IjEyMDQiIHk9IjE3MDcuNjMyOCI+eWVzPC90ZXh0Pjx0ZXh0IGZpbGw9IiMwMDAwMDAiIGZvbnQtZmFtaWx5PSJzYW5zLXNlcmlmIiBmb250LXNpemU9IjExIiBsZW5ndGhBZGp1c3Q9InNwYWNpbmciIHRleHRMZW5ndGg9IjExMCIgeD0iMTE0NSIgeT0iMTY4OS43NDYxIj5TdXNwaWNpb3VzIEFjdGl2aXR5PzwvdGV4dD48dGV4dCBmaWxsPSIjMDAwMDAwIiBmb250LWZhbWlseT0ic2Fucy1zZXJpZiIgZm9udC1zaXplPSIxMSIgbGVuZ3RoQWRqdXN0PSJzcGFjaW5nIiB0ZXh0TGVuZ3RoPSIxMSIgeD0iMTEyMiIgeT0iMTY4My44NTk0Ij5ubzwvdGV4dD48cG9seWdvbiBmaWxsPSIjRjFGMUYxIiBwb2ludHM9IjEyMDAsMjAyNC4zMDg2LDEyMTIsMjAzNi4zMDg2LDEyMDAsMjA0OC4zMDg2LDExODgsMjAzNi4zMDg2LDEyMDAsMjAyNC4zMDg2IiBzdHlsZT0ic3Ryb2tlOiMxODE4MTg7c3Ryb2tlLXdpZHRoOjAuNTsiLz48bGluZSBzdHlsZT0ic3Ryb2tlOiMwMDAwMDA7c3Ryb2tlLXdpZHRoOjEuNTsiIHgxPSIxMTAwIiB4Mj0iMTEwMCIgeTE9IjExIiB5Mj0iMjM4MC41MjczIi8+PHJlY3QgZmlsbD0iI0YxRjFGMSIgaGVpZ2h0PSIzMi44NDM4IiByeD0iMTIuNSIgcnk9IjEyLjUiIHN0eWxlPSJzdHJva2U6IzE4MTgxODtzdHJva2Utd2lkdGg6MC41OyIgd2lkdGg9IjExNiIgeD0iMTI5MSIgeT0iMTc4OS4wNzgxIi8+PHRleHQgZmlsbD0iIzAwMDAwMCIgZm9udC1mYW1pbHk9InNhbnMtc2VyaWYiIGZvbnQtc2l6ZT0iMTIiIGxlbmd0aEFkanVzdD0ic3BhY2luZyIgdGV4dExlbmd0aD0iOTYiIHg9IjEzMDEiIHk9IjE4MTAuNDIxOSI+Q29tcGxpYW5jZSBDaGVjazwvdGV4dD48cmVjdCBmaWxsPSIjRjFGMUYxIiBoZWlnaHQ9IjMyLjg0MzgiIHJ4PSIxMi41IiByeT0iMTIuNSIgc3R5bGU9InN0cm9rZTojMTgxODE4O3N0cm9rZS13aWR0aDowLjU7IiB3aWR0aD0iMTIyIiB4PSIxMjg4IiB5PSIxODkyLjQ2NDgiLz48dGV4dCBmaWxsPSIjMDAwMDAwIiBmb250LWZhbWlseT0ic2Fucy1zZXJpZiIgZm9udC1zaXplPSIxMiIgbGVuZ3RoQWRqdXN0PSJzcGFjaW5nIiB0ZXh0TGVuZ3RoPSIxMDIiIHg9IjEyOTgiIHk9IjE5MTMuODA4NiI+QmxvY2sgVHJhbnNhY3Rpb248L3RleHQ+PGVsbGlwc2UgY3g9IjEzNDkiIGN5PSIxOTcxLjMwODYiIGZpbGw9Im5vbmUiIHJ4PSIxMSIgcnk9IjExIiBzdHlsZT0ic3Ryb2tlOiMyMjIyMjI7c3Ryb2tlLXdpZHRoOjE7Ii8+PGVsbGlwc2UgY3g9IjEzNDkiIGN5PSIxOTcxLjMwODYiIGZpbGw9IiMyMjIyMjIiIHJ4PSI2IiByeT0iNiIgc3R5bGU9InN0cm9rZTojMjIyMjIyO3N0cm9rZS13aWR0aDoxOyIvPjxwb2x5Z29uIGZpbGw9IiNGMUYxRjEiIHBvaW50cz0iMTMxMC41LDE4NDQuNDY0OCwxMzg3LjUsMTg0NC40NjQ4LDEzOTkuNSwxODU2LjQ2NDgsMTM4Ny41LDE4NjguNDY0OCwxMzEwLjUsMTg2OC40NjQ4LDEyOTguNSwxODU2LjQ2NDgsMTMxMC41LDE4NDQuNDY0OCIgc3R5bGU9InN0cm9rZTojMTgxODE4O3N0cm9rZS13aWR0aDowLjU7Ii8+PHRleHQgZmlsbD0iIzAwMDAwMCIgZm9udC1mYW1pbHk9InNhbnMtc2VyaWYiIGZvbnQtc2l6ZT0iMTEiIGxlbmd0aEFkanVzdD0ic3BhY2luZyIgdGV4dExlbmd0aD0iMTEiIHg9IjEzNTMiIHk9IjE4NzguODYzMyI+bm88L3RleHQ+PHRleHQgZmlsbD0iIzAwMDAwMCIgZm9udC1mYW1pbHk9InNhbnMtc2VyaWYiIGZvbnQtc2l6ZT0iMTEiIGxlbmd0aEFkanVzdD0ic3BhY2luZyIgdGV4dExlbmd0aD0iNzciIHg9IjEzMTAuNSIgeT0iMTg2MC45NzY2Ij5Db21wbGlhbmNlIE9LPzwvdGV4dD48dGV4dCBmaWxsPSIjMDAwMDAwIiBmb250LWZhbWlseT0ic2Fucy1zZXJpZiIgZm9udC1zaXplPSIxMSIgbGVuZ3RoQWRqdXN0PSJzcGFjaW5nIiB0ZXh0TGVuZ3RoPSIxNi41IiB4PSIxMzk5LjUiIHk9IjE4NTUuMDg5OCI+eWVzPC90ZXh0PjxsaW5lIHN0eWxlPSJzdHJva2U6IzAwMDAwMDtzdHJva2Utd2lkdGg6MS41OyIgeDE9IjEyODIiIHgyPSIxMjgyIiB5MT0iMTEiIHkyPSIyMzgwLjUyNzMiLz48cmVjdCBmaWxsPSIjRjFGMUYxIiBoZWlnaHQ9IjMyLjg0MzgiIHJ4PSIxMi41IiByeT0iMTIuNSIgc3R5bGU9InN0cm9rZTojMTgxODE4O3N0cm9rZS13aWR0aDowLjU7IiB3aWR0aD0iMTE2IiB4PSIxNDQ1IiB5PSIyMjUyLjgzOTgiLz48dGV4dCBmaWxsPSIjMDAwMDAwIiBmb250LWZhbWlseT0ic2Fucy1zZXJpZiIgZm9udC1zaXplPSIxMiIgbGVuZ3RoQWRqdXN0PSJzcGFjaW5nIiB0ZXh0TGVuZ3RoPSI5NiIgeD0iMTQ1NSIgeT0iMjI3NC4xODM2Ij5VcGRhdGUgQXVkaXQgTG9nPC90ZXh0PjxsaW5lIHN0eWxlPSJzdHJva2U6IzAwMDAwMDtzdHJva2Utd2lkdGg6MS41OyIgeDE9IjE0MzkiIHgyPSIxNDM5IiB5MT0iMTEiIHkyPSIyMzgwLjUyNzMiLz48bGluZSBzdHlsZT0ic3Ryb2tlOiMwMDAwMDA7c3Ryb2tlLXdpZHRoOjEuNTsiIHgxPSIxNTY1IiB4Mj0iMTU2NSIgeTE9IjExIiB5Mj0iMjM4MC41MjczIi8+PGxpbmUgc3R5bGU9InN0cm9rZTojMTgxODE4O3N0cm9rZS13aWR0aDoxOyIgeDE9IjEzMyIgeDI9IjEzMyIgeTE9IjU1LjI2NTYiIHkyPSI3NS4yNjU2Ii8+PHBvbHlnb24gZmlsbD0iIzE4MTgxOCIgcG9pbnRzPSIxMjksNjUuMjY1NiwxMzMsNzUuMjY1NiwxMzcsNjUuMjY1NiwxMzMsNjkuMjY1NiIgc3R5bGU9InN0cm9rZTojMTgxODE4O3N0cm9rZS13aWR0aDoxOyIvPjxsaW5lIHN0eWxlPSJzdHJva2U6IzE4MTgxODtzdHJva2Utd2lkdGg6MTsiIHgxPSIxMzMiIHgyPSIxMzMiIHkxPSIyMzM4LjUyNzMiIHkyPSIyMzU4LjUyNzMiLz48cG9seWdvbiBmaWxsPSIjMTgxODE4IiBwb2ludHM9IjEyOSwyMzQ4LjUyNzMsMTMzLDIzNTguNTI3MywxMzcsMjM0OC41MjczLDEzMywyMzUyLjUyNzMiIHN0eWxlPSJzdHJva2U6IzE4MTgxODtzdHJva2Utd2lkdGg6MTsiLz48bGluZSBzdHlsZT0ic3Ryb2tlOiMxODE4MTg7c3Ryb2tlLXdpZHRoOjE7IiB4MT0iMzg4IiB4Mj0iMzg4IiB5MT0iMjYxLjc5NjkiIHkyPSIyOTAuODc1Ii8+PHBvbHlnb24gZmlsbD0iIzE4MTgxOCIgcG9pbnRzPSIzODQsMjgwLjg3NSwzODgsMjkwLjg3NSwzOTIsMjgwLjg3NSwzODgsMjg0Ljg3NSIgc3R5bGU9InN0cm9rZTojMTgxODE4O3N0cm9rZS13aWR0aDoxOyIvPjxsaW5lIHN0eWxlPSJzdHJva2U6IzE4MTgxODtzdHJva2Utd2lkdGg6MTsiIHgxPSIzODgiIHgyPSIzODgiIHkxPSIyMDQuOTUzMSIgeTI9IjIyOC45NTMxIi8+PHBvbHlnb24gZmlsbD0iIzE4MTgxOCIgcG9pbnRzPSIzODQsMjE4Ljk1MzEsMzg4LDIyOC45NTMxLDM5MiwyMTguOTUzMSwzODgsMjIyLjk1MzEiIHN0eWxlPSJzdHJva2U6IzE4MTgxODtzdHJva2Utd2lkdGg6MTsiLz48bGluZSBzdHlsZT0ic3Ryb2tlOiMxODE4MTg7c3Ryb2tlLXdpZHRoOjE7IiB4MT0iNDE2LjUiIHgyPSI0NjgiIHkxPSIxOTIuOTUzMSIgeTI9IjE5Mi45NTMxIi8+PHBvbHlnb24gZmlsbD0iIzE4MTgxOCIgcG9pbnRzPSI0NjQsMjYwLjg3NSw0NjgsMjcwLjg3NSw0NzIsMjYwLjg3NSw0NjgsMjY0Ljg3NSIgc3R5bGU9InN0cm9rZTojMTgxODE4O3N0cm9rZS13aWR0aDoxOyIvPjxsaW5lIHN0eWxlPSJzdHJva2U6IzE4MTgxODtzdHJva2Utd2lkdGg6MTsiIHgxPSI0NjgiIHgyPSI0NjgiIHkxPSIxOTIuOTUzMSIgeTI9IjMzNC44NzUiLz48bGluZSBzdHlsZT0ic3Ryb2tlOiMxODE4MTg7c3Ryb2tlLXdpZHRoOjE7IiB4MT0iNDY4IiB4Mj0iMzg4IiB5MT0iMzM0Ljg3NSIgeTI9IjMzNC44NzUiLz48bGluZSBzdHlsZT0ic3Ryb2tlOiMxODE4MTg7c3Ryb2tlLXdpZHRoOjE7IiB4MT0iMzg4IiB4Mj0iMzg4IiB5MT0iMzM0Ljg3NSIgeTI9IjM1NC44NzUiLz48cG9seWdvbiBmaWxsPSIjMTgxODE4IiBwb2ludHM9IjM4NCwzNDQuODc1LDM4OCwzNTQuODc1LDM5MiwzNDQuODc1LDM4OCwzNDguODc1IiBzdHlsZT0ic3Ryb2tlOiMxODE4MTg7c3Ryb2tlLXdpZHRoOjE7Ii8+PGxpbmUgc3R5bGU9InN0cm9rZTojMTgxODE4O3N0cm9rZS13aWR0aDoxOyIgeDE9IjM4OCIgeDI9IjM4OCIgeTE9IjE2MC45NTMxIiB5Mj0iMTgwLjk1MzEiLz48cG9seWdvbiBmaWxsPSIjMTgxODE4IiBwb2ludHM9IjM4NCwxNzAuOTUzMSwzODgsMTgwLjk1MzEsMzkyLDE3MC45NTMxLDM4OCwxNzQuOTUzMSIgc3R5bGU9InN0cm9rZTojMTgxODE4O3N0cm9rZS13aWR0aDoxOyIvPjxsaW5lIHN0eWxlPSJzdHJva2U6IzE4MTgxODtzdHJva2Utd2lkdGg6MTsiIHgxPSIzODgiIHgyPSIzODgiIHkxPSI0ODguNTYyNSIgeTI9IjUxNy42NDA2Ii8+PHBvbHlnb24gZmlsbD0iIzE4MTgxOCIgcG9pbnRzPSIzODQsNTA3LjY0MDYsMzg4LDUxNy42NDA2LDM5Miw1MDcuNjQwNiwzODgsNTExLjY0MDYiIHN0eWxlPSJzdHJva2U6IzE4MTgxODtzdHJva2Utd2lkdGg6MTsiLz48bGluZSBzdHlsZT0ic3Ryb2tlOiMxODE4MTg7c3Ryb2tlLXdpZHRoOjE7IiB4MT0iMzg4IiB4Mj0iMzg4IiB5MT0iNDMxLjcxODgiIHkyPSI0NTUuNzE4OCIvPjxwb2x5Z29uIGZpbGw9IiMxODE4MTgiIHBvaW50cz0iMzg0LDQ0NS43MTg4LDM4OCw0NTUuNzE4OCwzOTIsNDQ1LjcxODgsMzg4LDQ0OS43MTg4IiBzdHlsZT0ic3Ryb2tlOiMxODE4MTg7c3Ryb2tlLXdpZHRoOjE7Ii8+PGxpbmUgc3R5bGU9InN0cm9rZTojMTgxODE4O3N0cm9rZS13aWR0aDoxOyIgeDE9IjQ0MS4yNSIgeDI9IjUxNiIgeTE9IjQxOS43MTg4IiB5Mj0iNDE5LjcxODgiLz48cG9seWdvbiBmaWxsPSIjMTgxODE4IiBwb2ludHM9IjUxMiw0ODcuNjQwNiw1MTYsNDk3LjY0MDYsNTIwLDQ4Ny42NDA2LDUxNiw0OTEuNjQwNiIgc3R5bGU9InN0cm9rZTojMTgxODE4O3N0cm9rZS13aWR0aDoxOyIvPjxsaW5lIHN0eWxlPSJzdHJva2U6IzE4MTgxODtzdHJva2Utd2lkdGg6MTsiIHgxPSI1MTYiIHgyPSI1MTYiIHkxPSI0MTkuNzE4OCIgeTI9IjU2MS42NDA2Ii8+PGxpbmUgc3R5bGU9InN0cm9rZTojMTgxODE4O3N0cm9rZS13aWR0aDoxOyIgeDE9IjUxNiIgeDI9IjM4OCIgeTE9IjU2MS42NDA2IiB5Mj0iNTYxLjY0MDYiLz48bGluZSBzdHlsZT0ic3Ryb2tlOiMxODE4MTg7c3Ryb2tlLXdpZHRoOjE7IiB4MT0iMzg4IiB4Mj0iMzg4IiB5MT0iNTYxLjY0MDYiIHkyPSI1ODEuNjQwNiIvPjxwb2x5Z29uIGZpbGw9IiMxODE4MTgiIHBvaW50cz0iMzg0LDU3MS42NDA2LDM4OCw1ODEuNjQwNiwzOTIsNTcxLjY0MDYsMzg4LDU3NS42NDA2IiBzdHlsZT0ic3Ryb2tlOiMxODE4MTg7c3Ryb2tlLXdpZHRoOjE7Ii8+PGxpbmUgc3R5bGU9InN0cm9rZTojMTgxODE4O3N0cm9rZS13aWR0aDoxOyIgeDE9IjM4OCIgeDI9IjM4OCIgeTE9IjM4Ny43MTg4IiB5Mj0iNDA3LjcxODgiLz48cG9seWdvbiBmaWxsPSIjMTgxODE4IiBwb2ludHM9IjM4NCwzOTcuNzE4OCwzODgsNDA3LjcxODgsMzkyLDM5Ny43MTg4LDM4OCw0MDEuNzE4OCIgc3R5bGU9InN0cm9rZTojMTgxODE4O3N0cm9rZS13aWR0aDoxOyIvPjxsaW5lIHN0eWxlPSJzdHJva2U6IzE4MTgxODtzdHJva2Utd2lkdGg6MTsiIHgxPSIzODgiIHgyPSIzODgiIHkxPSI3MTUuMzI4MSIgeTI9Ijc0NC40MDYzIi8+PHBvbHlnb24gZmlsbD0iIzE4MTgxOCIgcG9pbnRzPSIzODQsNzM0LjQwNjMsMzg4LDc0NC40MDYzLDM5Miw3MzQuNDA2MywzODgsNzM4LjQwNjMiIHN0eWxlPSJzdHJva2U6IzE4MTgxODtzdHJva2Utd2lkdGg6MTsiLz48bGluZSBzdHlsZT0ic3Ryb2tlOiMxODE4MTg7c3Ryb2tlLXdpZHRoOjE7IiB4MT0iMzg4IiB4Mj0iMzg4IiB5MT0iNjU4LjQ4NDQiIHkyPSI2ODIuNDg0NCIvPjxwb2x5Z29uIGZpbGw9IiMxODE4MTgiIHBvaW50cz0iMzg0LDY3Mi40ODQ0LDM4OCw2ODIuNDg0NCwzOTIsNjcyLjQ4NDQsMzg4LDY3Ni40ODQ0IiBzdHlsZT0ic3Ryb2tlOiMxODE4MTg7c3Ryb2tlLXdpZHRoOjE7Ii8+PGxpbmUgc3R5bGU9InN0cm9rZTojMTgxODE4O3N0cm9rZS13aWR0aDoxOyIgeDE9IjQ3MS41IiB4Mj0iNTEwIiB5MT0iNjQ2LjQ4NDQiIHkyPSI2NDYuNDg0NCIvPjxwb2x5Z29uIGZpbGw9IiMxODE4MTgiIHBvaW50cz0iNTA2LDcxNC40MDYzLDUxMCw3MjQuNDA2Myw1MTQsNzE0LjQwNjMsNTEwLDcxOC40MDYzIiBzdHlsZT0ic3Ryb2tlOiMxODE4MTg7c3Ryb2tlLXdpZHRoOjE7Ii8+PGxpbmUgc3R5bGU9InN0cm9rZTojMTgxODE4O3N0cm9rZS13aWR0aDoxOyIgeDE9IjUxMCIgeDI9IjUxMCIgeTE9IjY0Ni40ODQ0IiB5Mj0iNzg4LjQwNjMiLz48bGluZSBzdHlsZT0ic3Ryb2tlOiMxODE4MTg7c3Ryb2tlLXdpZHRoOjE7IiB4MT0iNTEwIiB4Mj0iMzg4IiB5MT0iNzg4LjQwNjMiIHkyPSI3ODguNDA2MyIvPjxsaW5lIHN0eWxlPSJzdHJva2U6IzE4MTgxODtzdHJva2Utd2lkdGg6MTsiIHgxPSIzODgiIHgyPSIzODgiIHkxPSI3ODguNDA2MyIgeTI9IjgwOC40MDYzIi8+PHBvbHlnb24gZmlsbD0iIzE4MTgxOCIgcG9pbnRzPSIzODQsNzk4LjQwNjMsMzg4LDgwOC40MDYzLDM5Miw3OTguNDA2MywzODgsODAyLjQwNjMiIHN0eWxlPSJzdHJva2U6IzE4MTgxODtzdHJva2Utd2lkdGg6MTsiLz48bGluZSBzdHlsZT0ic3Ryb2tlOiMxODE4MTg7c3Ryb2tlLXdpZHRoOjE7IiB4MT0iMzg4IiB4Mj0iMzg4IiB5MT0iNjE0LjQ4NDQiIHkyPSI2MzQuNDg0NCIvPjxwb2x5Z29uIGZpbGw9IiMxODE4MTgiIHBvaW50cz0iMzg0LDYyNC40ODQ0LDM4OCw2MzQuNDg0NCwzOTIsNjI0LjQ4NDQsMzg4LDYyOC40ODQ0IiBzdHlsZT0ic3Ryb2tlOiMxODE4MTg7c3Ryb2tlLXdpZHRoOjE7Ii8+PGxpbmUgc3R5bGU9InN0cm9rZTojMTgxODE4O3N0cm9rZS13aWR0aDoxOyIgeDE9IjM4OCIgeDI9IjM4OCIgeTE9Ijk0Mi4wOTM4IiB5Mj0iOTcxLjE3MTkiLz48cG9seWdvbiBmaWxsPSIjMTgxODE4IiBwb2ludHM9IjM4NCw5NjEuMTcxOSwzODgsOTcxLjE3MTksMzkyLDk2MS4xNzE5LDM4OCw5NjUuMTcxOSIgc3R5bGU9InN0cm9rZTojMTgxODE4O3N0cm9rZS13aWR0aDoxOyIvPjxsaW5lIHN0eWxlPSJzdHJva2U6IzE4MTgxODtzdHJva2Utd2lkdGg6MTsiIHgxPSIzODgiIHgyPSIzODgiIHkxPSI4ODUuMjUiIHkyPSI5MDkuMjUiLz48cG9seWdvbiBmaWxsPSIjMTgxODE4IiBwb2ludHM9IjM4NCw4OTkuMjUsMzg4LDkwOS4yNSwzOTIsODk5LjI1LDM4OCw5MDMuMjUiIHN0eWxlPSJzdHJva2U6IzE4MTgxODtzdHJva2Utd2lkdGg6MTsiLz48bGluZSBzdHlsZT0ic3Ryb2tlOiMxODE4MTg7c3Ryb2tlLXdpZHRoOjE7IiB4MT0iNDM4LjUiIHgyPSI1MTkiIHkxPSI4NzMuMjUiIHkyPSI4NzMuMjUiLz48cG9seWdvbiBmaWxsPSIjMTgxODE4IiBwb2ludHM9IjUxNSw5NDEuMTcxOSw1MTksOTUxLjE3MTksNTIzLDk0MS4xNzE5LDUxOSw5NDUuMTcxOSIgc3R5bGU9InN0cm9rZTojMTgxODE4O3N0cm9rZS13aWR0aDoxOyIvPjxsaW5lIHN0eWxlPSJzdHJva2U6IzE4MTgxODtzdHJva2Utd2lkdGg6MTsiIHgxPSI1MTkiIHgyPSI1MTkiIHkxPSI4NzMuMjUiIHkyPSIxMDE1LjE3MTkiLz48bGluZSBzdHlsZT0ic3Ryb2tlOiMxODE4MTg7c3Ryb2tlLXdpZHRoOjE7IiB4MT0iNTE5IiB4Mj0iMzg4IiB5MT0iMTAxNS4xNzE5IiB5Mj0iMTAxNS4xNzE5Ii8+PGxpbmUgc3R5bGU9InN0cm9rZTojMTgxODE4O3N0cm9rZS13aWR0aDoxOyIgeDE9IjM4OCIgeDI9IjM4OCIgeTE9IjEwMTUuMTcxOSIgeTI9IjEwMzUuMTcxOSIvPjxwb2x5Z29uIGZpbGw9IiMxODE4MTgiIHBvaW50cz0iMzg0LDEwMjUuMTcxOSwzODgsMTAzNS4xNzE5LDM5MiwxMDI1LjE3MTksMzg4LDEwMjkuMTcxOSIgc3R5bGU9InN0cm9rZTojMTgxODE4O3N0cm9rZS13aWR0aDoxOyIvPjxsaW5lIHN0eWxlPSJzdHJva2U6IzE4MTgxODtzdHJva2Utd2lkdGg6MTsiIHgxPSIzODgiIHgyPSIzODgiIHkxPSI4NDEuMjUiIHkyPSI4NjEuMjUiLz48cG9seWdvbiBmaWxsPSIjMTgxODE4IiBwb2ludHM9IjM4NCw4NTEuMjUsMzg4LDg2MS4yNSwzOTIsODUxLjI1LDM4OCw4NTUuMjUiIHN0eWxlPSJzdHJva2U6IzE4MTgxODtzdHJva2Utd2lkdGg6MTsiLz48bGluZSBzdHlsZT0ic3Ryb2tlOiMxODE4MTg7c3Ryb2tlLXdpZHRoOjE7IiB4MT0iMzg4IiB4Mj0iMzg4IiB5MT0iMTE2OC44NTk0IiB5Mj0iMTE5Ny45Mzc1Ii8+PHBvbHlnb24gZmlsbD0iIzE4MTgxOCIgcG9pbnRzPSIzODQsMTE4Ny45Mzc1LDM4OCwxMTk3LjkzNzUsMzkyLDExODcuOTM3NSwzODgsMTE5MS45Mzc1IiBzdHlsZT0ic3Ryb2tlOiMxODE4MTg7c3Ryb2tlLXdpZHRoOjE7Ii8+PGxpbmUgc3R5bGU9InN0cm9rZTojMTgxODE4O3N0cm9rZS13aWR0aDoxOyIgeDE9IjM4OCIgeDI9IjM4OCIgeTE9IjExMTIuMDE1NiIgeTI9IjExMzYuMDE1NiIvPjxwb2x5Z29uIGZpbGw9IiMxODE4MTgiIHBvaW50cz0iMzg0LDExMjYuMDE1NiwzODgsMTEzNi4wMTU2LDM5MiwxMTI2LjAxNTYsMzg4LDExMzAuMDE1NiIgc3R5bGU9InN0cm9rZTojMTgxODE4O3N0cm9rZS13aWR0aDoxOyIvPjxsaW5lIHN0eWxlPSJzdHJva2U6IzE4MTgxODtzdHJva2Utd2lkdGg6MTsiIHgxPSI0NDYuNzUiIHgyPSI1MzEiIHkxPSIxMTAwLjAxNTYiIHkyPSIxMTAwLjAxNTYiLz48cG9seWdvbiBmaWxsPSIjMTgxODE4IiBwb2ludHM9IjUyNywxMTY3LjkzNzUsNTMxLDExNzcuOTM3NSw1MzUsMTE2Ny45Mzc1LDUzMSwxMTcxLjkzNzUiIHN0eWxlPSJzdHJva2U6IzE4MTgxODtzdHJva2Utd2lkdGg6MTsiLz48bGluZSBzdHlsZT0ic3Ryb2tlOiMxODE4MTg7c3Ryb2tlLXdpZHRoOjE7IiB4MT0iNTMxIiB4Mj0iNTMxIiB5MT0iMTEwMC4wMTU2IiB5Mj0iMTI0MS45Mzc1Ii8+PGxpbmUgc3R5bGU9InN0cm9rZTojMTgxODE4O3N0cm9rZS13aWR0aDoxOyIgeDE9IjUzMSIgeDI9IjM4OCIgeTE9IjEyNDEuOTM3NSIgeTI9IjEyNDEuOTM3NSIvPjxsaW5lIHN0eWxlPSJzdHJva2U6IzE4MTgxODtzdHJva2Utd2lkdGg6MTsiIHgxPSIzODgiIHgyPSIzODgiIHkxPSIxMjQxLjkzNzUiIHkyPSIxMjYxLjkzNzUiLz48cG9seWdvbiBmaWxsPSIjMTgxODE4IiBwb2ludHM9IjM4NCwxMjUxLjkzNzUsMzg4LDEyNjEuOTM3NSwzOTIsMTI1MS45Mzc1LDM4OCwxMjU1LjkzNzUiIHN0eWxlPSJzdHJva2U6IzE4MTgxODtzdHJva2Utd2lkdGg6MTsiLz48bGluZSBzdHlsZT0ic3Ryb2tlOiMxODE4MTg7c3Ryb2tlLXdpZHRoOjE7IiB4MT0iMzg4IiB4Mj0iMzg4IiB5MT0iMTA2OC4wMTU2IiB5Mj0iMTA4OC4wMTU2Ii8+PHBvbHlnb24gZmlsbD0iIzE4MTgxOCIgcG9pbnRzPSIzODQsMTA3OC4wMTU2LDM4OCwxMDg4LjAxNTYsMzkyLDEwNzguMDE1NiwzODgsMTA4Mi4wMTU2IiBzdHlsZT0ic3Ryb2tlOiMxODE4MTg7c3Ryb2tlLXdpZHRoOjE7Ii8+PGxpbmUgc3R5bGU9InN0cm9rZTojMTgxODE4O3N0cm9rZS13aWR0aDoxOyIgeDE9IjM4OCIgeDI9IjM4OCIgeTE9IjEzOTUuNjI1IiB5Mj0iMTQyNC43MDMxIi8+PHBvbHlnb24gZmlsbD0iIzE4MTgxOCIgcG9pbnRzPSIzODQsMTQxNC43MDMxLDM4OCwxNDI0LjcwMzEsMzkyLDE0MTQuNzAzMSwzODgsMTQxOC43MDMxIiBzdHlsZT0ic3Ryb2tlOiMxODE4MTg7c3Ryb2tlLXdpZHRoOjE7Ii8+PGxpbmUgc3R5bGU9InN0cm9rZTojMTgxODE4O3N0cm9rZS13aWR0aDoxOyIgeDE9IjM4OCIgeDI9IjM4OCIgeTE9IjEzMzguNzgxMyIgeTI9IjEzNjIuNzgxMyIvPjxwb2x5Z29uIGZpbGw9IiMxODE4MTgiIHBvaW50cz0iMzg0LDEzNTIuNzgxMywzODgsMTM2Mi43ODEzLDM5MiwxMzUyLjc4MTMsMzg4LDEzNTYuNzgxMyIgc3R5bGU9InN0cm9rZTojMTgxODE4O3N0cm9rZS13aWR0aDoxOyIvPjxsaW5lIHN0eWxlPSJzdHJva2U6IzE4MTgxODtzdHJva2Utd2lkdGg6MTsiIHgxPSI0NDQiIHgyPSI1MTkiIHkxPSIxMzI2Ljc4MTMiIHkyPSIxMzI2Ljc4MTMiLz48cG9seWdvbiBmaWxsPSIjMTgxODE4IiBwb2ludHM9IjUxNSwxMzk0LjcwMzEsNTE5LDE0MDQuNzAzMSw1MjMsMTM5NC43MDMxLDUxOSwxMzk4LjcwMzEiIHN0eWxlPSJzdHJva2U6IzE4MTgxODtzdHJva2Utd2lkdGg6MTsiLz48bGluZSBzdHlsZT0ic3Ryb2tlOiMxODE4MTg7c3Ryb2tlLXdpZHRoOjE7IiB4MT0iNTE5IiB4Mj0iNTE5IiB5MT0iMTMyNi43ODEzIiB5Mj0iMTQ2OC43MDMxIi8+PGxpbmUgc3R5bGU9InN0cm9rZTojMTgxODE4O3N0cm9rZS13aWR0aDoxOyIgeDE9IjUxOSIgeDI9IjM4OCIgeTE9IjE0NjguNzAzMSIgeTI9IjE0NjguNzAzMSIvPjxsaW5lIHN0eWxlPSJzdHJva2U6IzE4MTgxODtzdHJva2Utd2lkdGg6MTsiIHgxPSIzODgiIHgyPSIzODgiIHkxPSIxNDY4LjcwMzEiIHkyPSIxNDg4LjcwMzEiLz48cG9seWdvbiBmaWxsPSIjMTgxODE4IiBwb2ludHM9IjM4NCwxNDc4LjcwMzEsMzg4LDE0ODguNzAzMSwzOTIsMTQ3OC43MDMxLDM4OCwxNDgyLjcwMzEiIHN0eWxlPSJzdHJva2U6IzE4MTgxODtzdHJva2Utd2lkdGg6MTsiLz48bGluZSBzdHlsZT0ic3Ryb2tlOiMxODE4MTg7c3Ryb2tlLXdpZHRoOjE7IiB4MT0iMzg4IiB4Mj0iMzg4IiB5MT0iMTI5NC43ODEzIiB5Mj0iMTMxNC43ODEzIi8+PHBvbHlnb24gZmlsbD0iIzE4MTgxOCIgcG9pbnRzPSIzODQsMTMwNC43ODEzLDM4OCwxMzE0Ljc4MTMsMzkyLDEzMDQuNzgxMywzODgsMTMwOC43ODEzIiBzdHlsZT0ic3Ryb2tlOiMxODE4MTg7c3Ryb2tlLXdpZHRoOjE7Ii8+PGxpbmUgc3R5bGU9InN0cm9rZTojMTgxODE4O3N0cm9rZS13aWR0aDoxOyIgeDE9IjM4OCIgeDI9IjM4OCIgeTE9IjIxMjcuMTUyMyIgeTI9IjIxNDcuMTUyMyIvPjxwb2x5Z29uIGZpbGw9IiMxODE4MTgiIHBvaW50cz0iMzg0LDIxMzcuMTUyMywzODgsMjE0Ny4xNTIzLDM5MiwyMTM3LjE1MjMsMzg4LDIxNDEuMTUyMyIgc3R5bGU9InN0cm9rZTojMTgxODE4O3N0cm9rZS13aWR0aDoxOyIvPjxsaW5lIHN0eWxlPSJzdHJva2U6IzE4MTgxODtzdHJva2Utd2lkdGg6MTsiIHgxPSIzODgiIHgyPSIzODgiIHkxPSIyMTc5Ljk5NjEiIHkyPSIyMTk5Ljk5NjEiLz48cG9seWdvbiBmaWxsPSIjMTgxODE4IiBwb2ludHM9IjM4NCwyMTg5Ljk5NjEsMzg4LDIxOTkuOTk2MSwzOTIsMjE4OS45OTYxLDM4OCwyMTkzLjk5NjEiIHN0eWxlPSJzdHJva2U6IzE4MTgxODtzdHJva2Utd2lkdGg6MTsiLz48bGluZSBzdHlsZT0ic3Ryb2tlOiMxODE4MTg7c3Ryb2tlLXdpZHRoOjE7IiB4MT0iNjQ3IiB4Mj0iNjQ3IiB5MT0iMTgyNC40NjQ4IiB5Mj0iMTg0Ny4wMDc4Ii8+PHBvbHlnb24gZmlsbD0iIzE4MTgxOCIgcG9pbnRzPSI2NDMsMTgzNy4wMDc4LDY0NywxODQ3LjAwNzgsNjUxLDE4MzcuMDA3OCw2NDcsMTg0MS4wMDc4IiBzdHlsZT0ic3Ryb2tlOiMxODE4MTg7c3Ryb2tlLXdpZHRoOjE7Ii8+PGxpbmUgc3R5bGU9InN0cm9rZTojMTgxODE4O3N0cm9rZS13aWR0aDoxOyIgeDE9IjY0NyIgeDI9IjY0NyIgeTE9IjE3NTkuODQ3NyIgeTI9IjE3OTEuNjIxMSIvPjxwb2x5Z29uIGZpbGw9IiMxODE4MTgiIHBvaW50cz0iNjQzLDE3ODEuNjIxMSw2NDcsMTc5MS42MjExLDY1MSwxNzgxLjYyMTEsNjQ3LDE3ODUuNjIxMSIgc3R5bGU9InN0cm9rZTojMTgxODE4O3N0cm9rZS13aWR0aDoxOyIvPjxsaW5lIHN0eWxlPSJzdHJva2U6IzE4MTgxODtzdHJva2Utd2lkdGg6MTsiIHgxPSI2NDciIHgyPSI2NDciIHkxPSIxODc5Ljg1MTYiIHkyPSIxOTU0Ljg1MTYiLz48cG9seWdvbiBmaWxsPSIjMTgxODE4IiBwb2ludHM9IjY0MywxOTQ0Ljg1MTYsNjQ3LDE5NTQuODUxNiw2NTEsMTk0NC44NTE2LDY0NywxOTQ4Ljg1MTYiIHN0eWxlPSJzdHJva2U6IzE4MTgxODtzdHJva2Utd2lkdGg6MTsiLz48bGluZSBzdHlsZT0ic3Ryb2tlOiMxODE4MTg7c3Ryb2tlLXdpZHRoOjE7IiB4MT0iODI1IiB4Mj0iODI1IiB5MT0iMTc1OS44NDc3IiB5Mj0iMTc3OS44NDc3Ii8+PHBvbHlnb24gZmlsbD0iIzE4MTgxOCIgcG9pbnRzPSI4MjEsMTc2OS44NDc3LDgyNSwxNzc5Ljg0NzcsODI5LDE3NjkuODQ3Nyw4MjUsMTc3My44NDc3IiBzdHlsZT0ic3Ryb2tlOiMxODE4MTg7c3Ryb2tlLXdpZHRoOjE7Ii8+PGxpbmUgc3R5bGU9InN0cm9rZTojMTgxODE4O3N0cm9rZS13aWR0aDoxOyIgeDE9IjgyNSIgeDI9IjgyNSIgeTE9IjE4MTIuNjkxNCIgeTI9IjE5NTQuODUxNiIvPjxwb2x5Z29uIGZpbGw9IiMxODE4MTgiIHBvaW50cz0iODIxLDE5NDQuODUxNiw4MjUsMTk1NC44NTE2LDgyOSwxOTQ0Ljg1MTYsODI1LDE5NDguODUxNiIgc3R5bGU9InN0cm9rZTojMTgxODE4O3N0cm9rZS13aWR0aDoxOyIvPjxsaW5lIHN0eWxlPSJzdHJva2U6IzE4MTgxODtzdHJva2Utd2lkdGg6MTsiIHgxPSI5OTAiIHgyPSI5OTAiIHkxPSIxNzU5Ljg0NzciIHkyPSIxNzc5Ljg0NzciLz48cG9seWdvbiBmaWxsPSIjMTgxODE4IiBwb2ludHM9Ijk4NiwxNzY5Ljg0NzcsOTkwLDE3NzkuODQ3Nyw5OTQsMTc2OS44NDc3LDk5MCwxNzczLjg0NzciIHN0eWxlPSJzdHJva2U6IzE4MTgxODtzdHJva2Utd2lkdGg6MTsiLz48bGluZSBzdHlsZT0ic3Ryb2tlOiMxODE4MTg7c3Ryb2tlLXdpZHRoOjE7IiB4MT0iOTkwIiB4Mj0iOTkwIiB5MT0iMTgxMi42OTE0IiB5Mj0iMTk1NC44NTE2Ii8+PHBvbHlnb24gZmlsbD0iIzE4MTgxOCIgcG9pbnRzPSI5ODYsMTk0NC44NTE2LDk5MCwxOTU0Ljg1MTYsOTk0LDE5NDQuODUxNiw5OTAsMTk0OC44NTE2IiBzdHlsZT0ic3Ryb2tlOiMxODE4MTg7c3Ryb2tlLXdpZHRoOjE7Ii8+PGxpbmUgc3R5bGU9InN0cm9rZTojMTgxODE4O3N0cm9rZS13aWR0aDoxOyIgeDE9IjcwMyIgeDI9Ijc5My43NSIgeTE9IjE3NDcuODQ3NyIgeTI9IjE3NDcuODQ3NyIvPjxwb2x5Z29uIGZpbGw9IiMxODE4MTgiIHBvaW50cz0iNzgzLjc1LDE3NDMuODQ3Nyw3OTMuNzUsMTc0Ny44NDc3LDc4My43NSwxNzUxLjg0NzcsNzg3Ljc1LDE3NDcuODQ3NyIgc3R5bGU9InN0cm9rZTojMTgxODE4O3N0cm9rZS13aWR0aDoxOyIvPjxsaW5lIHN0eWxlPSJzdHJva2U6IzE4MTgxODtzdHJva2Utd2lkdGg6MTsiIHgxPSI4NTYuMjUiIHgyPSI5NTAuNSIgeTE9IjE3NDcuODQ3NyIgeTI9IjE3NDcuODQ3NyIvPjxwb2x5Z29uIGZpbGw9IiMxODE4MTgiIHBvaW50cz0iOTQwLjUsMTc0My44NDc3LDk1MC41LDE3NDcuODQ3Nyw5NDAuNSwxNzUxLjg0NzcsOTQ0LjUsMTc0Ny44NDc3IiBzdHlsZT0ic3Ryb2tlOiMxODE4MTg7c3Ryb2tlLXdpZHRoOjE7Ii8+PGxpbmUgc3R5bGU9InN0cm9rZTojMTgxODE4O3N0cm9rZS13aWR0aDoxOyIgeDE9Ijg0NyIgeDI9Ijg0NyIgeTE9IjE2MDAuMzkwNiIgeTI9IjE3MTAuODQ3NyIvPjxsaW5lIHN0eWxlPSJzdHJva2U6IzE4MTgxODtzdHJva2Utd2lkdGg6MTsiIHgxPSI4NDciIHgyPSI2NDciIHkxPSIxNzEwLjg0NzciIHkyPSIxNzEwLjg0NzciLz48bGluZSBzdHlsZT0ic3Ryb2tlOiMxODE4MTg7c3Ryb2tlLXdpZHRoOjE7IiB4MT0iNjQ3IiB4Mj0iNjQ3IiB5MT0iMTcxMC44NDc3IiB5Mj0iMTczNS44NDc3Ii8+PHBvbHlnb24gZmlsbD0iIzE4MTgxOCIgcG9pbnRzPSI2NDMsMTcyNS44NDc3LDY0NywxNzM1Ljg0NzcsNjUxLDE3MjUuODQ3Nyw2NDcsMTcyOS44NDc3IiBzdHlsZT0ic3Ryb2tlOiMxODE4MTg7c3Ryb2tlLXdpZHRoOjE7Ii8+PGxpbmUgc3R5bGU9InN0cm9rZTojMTgxODE4O3N0cm9rZS13aWR0aDoxOyIgeDE9IjEwMjkuNSIgeDI9IjEwODAiIHkxPSIxNzQ3Ljg0NzciIHkyPSIxNzQ3Ljg0NzciLz48bGluZSBzdHlsZT0ic3Ryb2tlOiMxODE4MTg7c3Ryb2tlLXdpZHRoOjE7IiB4MT0iMTA4MCIgeDI9IjEwODAiIHkxPSIxNzQ3Ljg0NzciIHkyPSIxOTU0Ljg1MTYiLz48cG9seWdvbiBmaWxsPSIjMTgxODE4IiBwb2ludHM9IjEwNzYsMTk0NC44NTE2LDEwODAsMTk1NC44NTE2LDEwODQsMTk0NC44NTE2LDEwODAsMTk0OC44NTE2IiBzdHlsZT0ic3Ryb2tlOiMxODE4MTg7c3Ryb2tlLXdpZHRoOjE7Ii8+PGxpbmUgc3R5bGU9InN0cm9rZTojMTgxODE4O3N0cm9rZS13aWR0aDoxOyIgeDE9IjY0NyIgeDI9IjEwODAiIHkxPSIxOTU0Ljg1MTYiIHkyPSIxOTU0Ljg1MTYiLz48bGluZSBzdHlsZT0ic3Ryb2tlOiMxODE4MTg7c3Ryb2tlLXdpZHRoOjE7IiB4MT0iODQ3IiB4Mj0iODQ3IiB5MT0iMTk1NC44NTE2IiB5Mj0iMjA2OC4zMDg2Ii8+PHBvbHlnb24gZmlsbD0iIzE4MTgxOCIgcG9pbnRzPSI4NDMsMjA1OC4zMDg2LDg0NywyMDY4LjMwODYsODUxLDIwNTguMzA4Niw4NDcsMjA2Mi4zMDg2IiBzdHlsZT0ic3Ryb2tlOiMxODE4MTg7c3Ryb2tlLXdpZHRoOjE7Ii8+PGxpbmUgc3R5bGU9InN0cm9rZTojMTgxODE4O3N0cm9rZS13aWR0aDoxOyIgeDE9Ijc0MCIgeDI9Ijc0MCIgeTE9IjE1NzQuMzkwNiIgeTI9IjE1OTQuMzkwNiIvPjxwb2x5Z29uIGZpbGw9IiMxODE4MTgiIHBvaW50cz0iNzM2LDE1ODQuMzkwNiw3NDAsMTU5NC4zOTA2LDc0NCwxNTg0LjM5MDYsNzQwLDE1ODguMzkwNiIgc3R5bGU9InN0cm9rZTojMTgxODE4O3N0cm9rZS13aWR0aDoxOyIvPjxsaW5lIHN0eWxlPSJzdHJva2U6IzE4MTgxODtzdHJva2Utd2lkdGg6MTsiIHgxPSIxMjAwIiB4Mj0iMTIwMCIgeTE9IjE2OTcuMjM0NCIgeTI9IjE3MjEuMjM0NCIvPjxwb2x5Z29uIGZpbGw9IiMxODE4MTgiIHBvaW50cz0iMTE5NiwxNzExLjIzNDQsMTIwMCwxNzIxLjIzNDQsMTIwNCwxNzExLjIzNDQsMTIwMCwxNzE1LjIzNDQiIHN0eWxlPSJzdHJva2U6IzE4MTgxODtzdHJva2Utd2lkdGg6MTsiLz48bGluZSBzdHlsZT0ic3Ryb2tlOiMxODE4MTg7c3Ryb2tlLXdpZHRoOjE7IiB4MT0iMTEzMyIgeDI9IjExMTkiIHkxPSIxNjg1LjIzNDQiIHkyPSIxNjg1LjIzNDQiLz48cG9seWdvbiBmaWxsPSIjMTgxODE4IiBwb2ludHM9IjExMTUsMTg1MC41NDMsMTExOSwxODYwLjU0MywxMTIzLDE4NTAuNTQzLDExMTksMTg1NC41NDMiIHN0eWxlPSJzdHJva2U6IzE4MTgxODtzdHJva2Utd2lkdGg6MTsiLz48bGluZSBzdHlsZT0ic3Ryb2tlOiMxODE4MTg7c3Ryb2tlLXdpZHRoOjE7IiB4MT0iMTExOSIgeDI9IjExMTkiIHkxPSIxNjg1LjIzNDQiIHkyPSIyMDM2LjMwODYiLz48bGluZSBzdHlsZT0ic3Ryb2tlOiMxODE4MTg7c3Ryb2tlLXdpZHRoOjE7IiB4MT0iMTExOSIgeDI9IjExODgiIHkxPSIyMDM2LjMwODYiIHkyPSIyMDM2LjMwODYiLz48cG9seWdvbiBmaWxsPSIjMTgxODE4IiBwb2ludHM9IjExNzgsMjAzMi4zMDg2LDExODgsMjAzNi4zMDg2LDExNzgsMjA0MC4zMDg2LDExODIsMjAzNi4zMDg2IiBzdHlsZT0ic3Ryb2tlOiMxODE4MTg7c3Ryb2tlLXdpZHRoOjE7Ii8+PGxpbmUgc3R5bGU9InN0cm9rZTojMTgxODE4O3N0cm9rZS13aWR0aDoxOyIgeDE9IjEyMDAiIHgyPSIxMjAwIiB5MT0iMTY1My4yMzQ0IiB5Mj0iMTY3My4yMzQ0Ii8+PHBvbHlnb24gZmlsbD0iIzE4MTgxOCIgcG9pbnRzPSIxMTk2LDE2NjMuMjM0NCwxMjAwLDE2NzMuMjM0NCwxMjA0LDE2NjMuMjM0NCwxMjAwLDE2NjcuMjM0NCIgc3R5bGU9InN0cm9rZTojMTgxODE4O3N0cm9rZS13aWR0aDoxOyIvPjxsaW5lIHN0eWxlPSJzdHJva2U6IzE4MTgxODtzdHJva2Utd2lkdGg6MTsiIHgxPSIxMzQ5IiB4Mj0iMTM0OSIgeTE9IjE5MjUuMzA4NiIgeTI9IjE5NjAuMzA4NiIvPjxwb2x5Z29uIGZpbGw9IiMxODE4MTgiIHBvaW50cz0iMTM0NSwxOTUwLjMwODYsMTM0OSwxOTYwLjMwODYsMTM1MywxOTUwLjMwODYsMTM0OSwxOTU0LjMwODYiIHN0eWxlPSJzdHJva2U6IzE4MTgxODtzdHJva2Utd2lkdGg6MTsiLz48bGluZSBzdHlsZT0ic3Ryb2tlOiMxODE4MTg7c3Ryb2tlLXdpZHRoOjE7IiB4MT0iMTM0OSIgeDI9IjEzNDkiIHkxPSIxODY4LjQ2NDgiIHkyPSIxODkyLjQ2NDgiLz48cG9seWdvbiBmaWxsPSIjMTgxODE4IiBwb2ludHM9IjEzNDUsMTg4Mi40NjQ4LDEzNDksMTg5Mi40NjQ4LDEzNTMsMTg4Mi40NjQ4LDEzNDksMTg4Ni40NjQ4IiBzdHlsZT0ic3Ryb2tlOiMxODE4MTg7c3Ryb2tlLXdpZHRoOjE7Ii8+PGxpbmUgc3R5bGU9InN0cm9rZTojMTgxODE4O3N0cm9rZS13aWR0aDoxOyIgeDE9IjEzOTkuNSIgeDI9IjE0MjAiIHkxPSIxODU2LjQ2NDgiIHkyPSIxODU2LjQ2NDgiLz48cG9seWdvbiBmaWxsPSIjMTgxODE4IiBwb2ludHM9IjE0MTYsMTkzMC4zODY3LDE0MjAsMTk0MC4zODY3LDE0MjQsMTkzMC4zODY3LDE0MjAsMTkzNC4zODY3IiBzdHlsZT0ic3Ryb2tlOiMxODE4MTg7c3Ryb2tlLXdpZHRoOjE7Ii8+PGxpbmUgc3R5bGU9InN0cm9rZTojMTgxODE4O3N0cm9rZS13aWR0aDoxOyIgeDE9IjE0MjAiIHgyPSIxNDIwIiB5MT0iMTg1Ni40NjQ4IiB5Mj0iMjAxMi4zMDg2Ii8+PGxpbmUgc3R5bGU9InN0cm9rZTojMTgxODE4O3N0cm9rZS13aWR0aDoxOyIgeDE9IjE0MjAiIHgyPSIxMjAwIiB5MT0iMjAxMi4zMDg2IiB5Mj0iMjAxMi4zMDg2Ii8+PGxpbmUgc3R5bGU9InN0cm9rZTojMTgxODE4O3N0cm9rZS13aWR0aDoxOyIgeDE9IjEyMDAiIHgyPSIxMjAwIiB5MT0iMjAxMi4zMDg2IiB5Mj0iMjAyNC4zMDg2Ii8+PHBvbHlnb24gZmlsbD0iIzE4MTgxOCIgcG9pbnRzPSIxMTk2LDIwMTQuMzA4NiwxMjAwLDIwMjQuMzA4NiwxMjA0LDIwMTQuMzA4NiwxMjAwLDIwMTguMzA4NiIgc3R5bGU9InN0cm9rZTojMTgxODE4O3N0cm9rZS13aWR0aDoxOyIvPjxsaW5lIHN0eWxlPSJzdHJva2U6IzE4MTgxODtzdHJva2Utd2lkdGg6MTsiIHgxPSIxMzQ5IiB4Mj0iMTM0OSIgeTE9IjE4MjEuOTIxOSIgeTI9IjE4NDQuNDY0OCIvPjxwb2x5Z29uIGZpbGw9IiMxODE4MTgiIHBvaW50cz0iMTM0NSwxODM0LjQ2NDgsMTM0OSwxODQ0LjQ2NDgsMTM1MywxODM0LjQ2NDgsMTM0OSwxODM4LjQ2NDgiIHN0eWxlPSJzdHJva2U6IzE4MTgxODtzdHJva2Utd2lkdGg6MTsiLz48bGluZSBzdHlsZT0ic3Ryb2tlOiMxODE4MTg7c3Ryb2tlLXdpZHRoOjE7IiB4MT0iMTMzIiB4Mj0iMTMzIiB5MT0iMTA4LjEwOTQiIHkyPSIxMTMuMTA5NCIvPjxsaW5lIHN0eWxlPSJzdHJva2U6IzE4MTgxODtzdHJva2Utd2lkdGg6MTsiIHgxPSIxMzMiIHgyPSIzODgiIHkxPSIxMTMuMTA5NCIgeTI9IjExMy4xMDk0Ii8+PGxpbmUgc3R5bGU9InN0cm9rZTojMTgxODE4O3N0cm9rZS13aWR0aDoxOyIgeDE9IjM4OCIgeDI9IjM4OCIgeTE9IjExMy4xMDk0IiB5Mj0iMTI4LjEwOTQiLz48cG9seWdvbiBmaWxsPSIjMTgxODE4IiBwb2ludHM9IjM4NCwxMTguMTA5NCwzODgsMTI4LjEwOTQsMzkyLDExOC4xMDk0LDM4OCwxMjIuMTA5NCIgc3R5bGU9InN0cm9rZTojMTgxODE4O3N0cm9rZS13aWR0aDoxOyIvPjxsaW5lIHN0eWxlPSJzdHJva2U6IzE4MTgxODtzdHJva2Utd2lkdGg6MTsiIHgxPSIzODgiIHgyPSIzODgiIHkxPSIxNTIxLjU0NjkiIHkyPSIxNTI2LjU0NjkiLz48bGluZSBzdHlsZT0ic3Ryb2tlOiMxODE4MTg7c3Ryb2tlLXdpZHRoOjE7IiB4MT0iMzg4IiB4Mj0iNzQwIiB5MT0iMTUyNi41NDY5IiB5Mj0iMTUyNi41NDY5Ii8+PGxpbmUgc3R5bGU9InN0cm9rZTojMTgxODE4O3N0cm9rZS13aWR0aDoxOyIgeDE9Ijc0MCIgeDI9Ijc0MCIgeTE9IjE1MjYuNTQ2OSIgeTI9IjE1NDEuNTQ2OSIvPjxwb2x5Z29uIGZpbGw9IiMxODE4MTgiIHBvaW50cz0iNzM2LDE1MzEuNTQ2OSw3NDAsMTU0MS41NDY5LDc0NCwxNTMxLjU0NjksNzQwLDE1MzUuNTQ2OSIgc3R5bGU9InN0cm9rZTojMTgxODE4O3N0cm9rZS13aWR0aDoxOyIvPjxsaW5lIHN0eWxlPSJzdHJva2U6IzE4MTgxODtzdHJva2Utd2lkdGg6MTsiIHgxPSIxMjAwIiB4Mj0iMTIwMCIgeTE9IjE3NTQuMDc4MSIgeTI9IjE3NzEuNTc4MSIvPjxsaW5lIHN0eWxlPSJzdHJva2U6IzE4MTgxODtzdHJva2Utd2lkdGg6MTsiIHgxPSIxMjAwIiB4Mj0iMTM0OSIgeTE9IjE3NzEuNTc4MSIgeTI9IjE3NzEuNTc4MSIvPjxsaW5lIHN0eWxlPSJzdHJva2U6IzE4MTgxODtzdHJva2Utd2lkdGg6MTsiIHgxPSIxMzQ5IiB4Mj0iMTM0OSIgeTE9IjE3NzEuNTc4MSIgeTI9IjE3ODkuMDc4MSIvPjxwb2x5Z29uIGZpbGw9IiMxODE4MTgiIHBvaW50cz0iMTM0NSwxNzc5LjA3ODEsMTM0OSwxNzg5LjA3ODEsMTM1MywxNzc5LjA3ODEsMTM0OSwxNzgzLjA3ODEiIHN0eWxlPSJzdHJva2U6IzE4MTgxODtzdHJva2Utd2lkdGg6MTsiLz48bGluZSBzdHlsZT0ic3Ryb2tlOiMxODE4MTg7c3Ryb2tlLXdpZHRoOjE7IiB4MT0iNTYzIiB4Mj0iNTYzIiB5MT0iMTYwMC4zOTA2IiB5Mj0iMTYwNC4zOTA2Ii8+PGxpbmUgc3R5bGU9InN0cm9rZTojMTgxODE4O3N0cm9rZS13aWR0aDoxOyIgeDE9IjU2MyIgeDI9IjEyMDAiIHkxPSIxNjA0LjM5MDYiIHkyPSIxNjA0LjM5MDYiLz48bGluZSBzdHlsZT0ic3Ryb2tlOiMxODE4MTg7c3Ryb2tlLXdpZHRoOjE7IiB4MT0iMTIwMCIgeDI9IjEyMDAiIHkxPSIxNjA0LjM5MDYiIHkyPSIxNjIwLjM5MDYiLz48cG9seWdvbiBmaWxsPSIjMTgxODE4IiBwb2ludHM9IjExOTYsMTYxMC4zOTA2LDEyMDAsMTYyMC4zOTA2LDEyMDQsMTYxMC4zOTA2LDEyMDAsMTYxNC4zOTA2IiBzdHlsZT0ic3Ryb2tlOiMxODE4MTg7c3Ryb2tlLXdpZHRoOjE7Ii8+PGxpbmUgc3R5bGU9InN0cm9rZTojMTgxODE4O3N0cm9rZS13aWR0aDoxOyIgeDE9IjEyMDAiIHgyPSIxMjAwIiB5MT0iMjA0OC4zMDg2IiB5Mj0iMjA1NC4zMDg2Ii8+PGxpbmUgc3R5bGU9InN0cm9rZTojMTgxODE4O3N0cm9rZS13aWR0aDoxOyIgeDE9IjEyMDAiIHgyPSI1NjMiIHkxPSIyMDU0LjMwODYiIHkyPSIyMDU0LjMwODYiLz48bGluZSBzdHlsZT0ic3Ryb2tlOiMxODE4MTg7c3Ryb2tlLXdpZHRoOjE7IiB4MT0iNTYzIiB4Mj0iNTYzIiB5MT0iMjA1NC4zMDg2IiB5Mj0iMjA2OC4zMDg2Ii8+PHBvbHlnb24gZmlsbD0iIzE4MTgxOCIgcG9pbnRzPSI1NTksMjA1OC4zMDg2LDU2MywyMDY4LjMwODYsNTY3LDIwNTguMzA4Niw1NjMsMjA2Mi4zMDg2IiBzdHlsZT0ic3Ryb2tlOiMxODE4MTg7c3Ryb2tlLXdpZHRoOjE7Ii8+PGxpbmUgc3R5bGU9InN0cm9rZTojMTgxODE4O3N0cm9rZS13aWR0aDoxOyIgeDE9Ijc0MCIgeDI9Ijc0MCIgeTE9IjIwNzQuMzA4NiIgeTI9IjIwNzkuMzA4NiIvPjxsaW5lIHN0eWxlPSJzdHJva2U6IzE4MTgxODtzdHJva2Utd2lkdGg6MTsiIHgxPSI3NDAiIHgyPSIzODgiIHkxPSIyMDc5LjMwODYiIHkyPSIyMDc5LjMwODYiLz48bGluZSBzdHlsZT0ic3Ryb2tlOiMxODE4MTg7c3Ryb2tlLXdpZHRoOjE7IiB4MT0iMzg4IiB4Mj0iMzg4IiB5MT0iMjA3OS4zMDg2IiB5Mj0iMjA5NC4zMDg2Ii8+PHBvbHlnb24gZmlsbD0iIzE4MTgxOCIgcG9pbnRzPSIzODQsMjA4NC4zMDg2LDM4OCwyMDk0LjMwODYsMzkyLDIwODQuMzA4NiwzODgsMjA4OC4zMDg2IiBzdHlsZT0ic3Ryb2tlOiMxODE4MTg7c3Ryb2tlLXdpZHRoOjE7Ii8+PGxpbmUgc3R5bGU9InN0cm9rZTojMTgxODE4O3N0cm9rZS13aWR0aDoxOyIgeDE9IjM4OCIgeDI9IjM4OCIgeTE9IjIyMzIuODM5OCIgeTI9IjIyMzcuODM5OCIvPjxsaW5lIHN0eWxlPSJzdHJva2U6IzE4MTgxODtzdHJva2Utd2lkdGg6MTsiIHgxPSIzODgiIHgyPSIxNTAzIiB5MT0iMjIzNy44Mzk4IiB5Mj0iMjIzNy44Mzk4Ii8+PGxpbmUgc3R5bGU9InN0cm9rZTojMTgxODE4O3N0cm9rZS13aWR0aDoxOyIgeDE9IjE1MDMiIHgyPSIxNTAzIiB5MT0iMjIzNy44Mzk4IiB5Mj0iMjI1Mi44Mzk4Ii8+PHBvbHlnb24gZmlsbD0iIzE4MTgxOCIgcG9pbnRzPSIxNDk5LDIyNDIuODM5OCwxNTAzLDIyNTIuODM5OCwxNTA3LDIyNDIuODM5OCwxNTAzLDIyNDYuODM5OCIgc3R5bGU9InN0cm9rZTojMTgxODE4O3N0cm9rZS13aWR0aDoxOyIvPjxsaW5lIHN0eWxlPSJzdHJva2U6IzE4MTgxODtzdHJva2Utd2lkdGg6MTsiIHgxPSIxNTAzIiB4Mj0iMTUwMyIgeTE9IjIyODUuNjgzNiIgeTI9IjIyOTAuNjgzNiIvPjxsaW5lIHN0eWxlPSJzdHJva2U6IzE4MTgxODtzdHJva2Utd2lkdGg6MTsiIHgxPSIxNTAzIiB4Mj0iMTMzIiB5MT0iMjI5MC42ODM2IiB5Mj0iMjI5MC42ODM2Ii8+PGxpbmUgc3R5bGU9InN0cm9rZTojMTgxODE4O3N0cm9rZS13aWR0aDoxOyIgeDE9IjEzMyIgeDI9IjEzMyIgeTE9IjIyOTAuNjgzNiIgeTI9IjIzMDUuNjgzNiIvPjxwb2x5Z29uIGZpbGw9IiMxODE4MTgiIHBvaW50cz0iMTI5LDIyOTUuNjgzNiwxMzMsMjMwNS42ODM2LDEzNywyMjk1LjY4MzYsMTMzLDIyOTkuNjgzNiIgc3R5bGU9InN0cm9rZTojMTgxODE4O3N0cm9rZS13aWR0aDoxOyIvPjx0ZXh0IGZpbGw9IiMwMDAwMDAiIGZvbnQtZmFtaWx5PSJzYW5zLXNlcmlmIiBmb250LXNpemU9IjE4IiBsZW5ndGhBZGp1c3Q9InNwYWNpbmciIHRleHRMZW5ndGg9IjcyIiB4PSI5NiIgeT0iMjguMDE1NiI+Q3VzdG9tZXI8L3RleHQ+PHRleHQgZmlsbD0iIzAwMDAwMCIgZm9udC1mYW1pbHk9InNhbnMtc2VyaWYiIGZvbnQtc2l6ZT0iMTgiIGxlbmd0aEFkanVzdD0ic3BhY2luZyIgdGV4dExlbmd0aD0iNTQiIHg9IjM3Mi41IiB5PSIyOC4wMTU2Ij5TeXN0ZW08L3RleHQ+PHRleHQgZmlsbD0iIzAwMDAwMCIgZm9udC1mYW1pbHk9InNhbnMtc2VyaWYiIGZvbnQtc2l6ZT0iMTgiIGxlbmd0aEFkanVzdD0ic3BhY2luZyIgdGV4dExlbmd0aD0iMTUzIiB4PSI3NDguNSIgeT0iMjguMDE1NiI+UHJvY2Vzc2luZyBFbmdpbmU8L3RleHQ+PHRleHQgZmlsbD0iIzAwMDAwMCIgZm9udC1mYW1pbHk9InNhbnMtc2VyaWYiIGZvbnQtc2l6ZT0iMTgiIGxlbmd0aEFkanVzdD0ic3BhY2luZyIgdGV4dExlbmd0aD0iMTUzIiB4PSIxMTE0LjUiIHk9IjI4LjAxNTYiPk1vbml0b3JpbmcgU3lzdGVtPC90ZXh0Pjx0ZXh0IGZpbGw9IiMwMDAwMDAiIGZvbnQtZmFtaWx5PSJzYW5zLXNlcmlmIiBmb250LXNpemU9IjE4IiBsZW5ndGhBZGp1c3Q9InNwYWNpbmciIHRleHRMZW5ndGg9IjkwIiB4PSIxMzE1LjUiIHk9IjI4LjAxNTYiPkNvbXBsaWFuY2U8L3RleHQ+PHRleHQgZmlsbD0iIzAwMDAwMCIgZm9udC1mYW1pbHk9InNhbnMtc2VyaWYiIGZvbnQtc2l6ZT0iMTgiIGxlbmd0aEFkanVzdD0ic3BhY2luZyIgdGV4dExlbmd0aD0iMTA4IiB4PSIxNDQ4IiB5PSIyOC4wMTU2Ij5BdWRpdCBTeXN0ZW08L3RleHQ+PCEtLVNSQz1bWkxKOVpqZjA0QnR0THpHSDNsQzNTOFhPOHZHUDlTOEpTa3hPUExFUWZqbGZYR2NJRnB4TFJIaUNDbzltRzUzUmd0aExodmY1U0R1U3EzUjJVTWN6Y0JuUWdQdENGSGFETV9tSnFGY2Y0NHJzU1h1RlpQWmlmQTkyVWVIWHUxQXo5RU1jV2FlT2ZPV2xPXzF4cjMzSVBZbTA5YmxxbU1mT01NaWlsQTFwaWk4ZkVuWXo1Z1dTbWtZNFJZbkc1ckdBQ0xkaUNOLTNNUHdSZTNyYU5saEdiVXpqQ3VPLXVZdEVOMWRFNl9Sc1RBd29xSkJidENGVGVRTm8xM3FqaTJiR1VfQWQzWmo0QzQtdkpBTXBhRVN5SVhkS1JIbE52RUlBRDFRbjR5dzdETEU1blYtNzd6UHVmV0Z2WmUxVnZGVktjbnU0Smk2bS1maVo1ZXpXcHV4U2ZGb2o0RVBJSVByWjJ2czVpZ0lTYzA5TzFycXlZaHhIeFlSbk5XVXBrYk9kYzBWN3NTeDFEWVppOWF5XzhNRm9OS2JPRjhXVWlzMTdIZ01idEtGVWVhRHhuQnY1cVZvbTlZd09UMEtoTk40ejVhMWQ2d3c3R3FqWnR4WG95czhxVU1EWkhZLVB6RmdiVWw5cUdCWnVPb0NqZnd2Y1Fhbm14UEZjbnRPVUI3SzdfOWNpYlFvMEdMWUpIeUJ0UVI4czJ0RWU1U056RDZ0T25HMWZhTXJTWDFidWxkLXhPSXdiVmIzRWpGQ2Fqa0FGME1GZlJzQWpEeFVMTWJpYTBzR2JJS1RBRlk2blJNY3VoelRKWk5ySm9Md1l4S1JfTVFUeGF0NWo1Y0dkdmtjTFJ1aXZpaDJsbEI2allCQjRzWlpvUlY2N2l3QjgyWWxWZlZlYWlKeWVQc3RxV19DdGY5U21FOVlDT2NubkpVcGFBc2dxanJUcWlzSEY3MUNNSGZUYTN6czM1U3FpNTJwVlN5Yy1aTUh6RGJLQ2tIcG9BbnNhalFEZDhMb0ViVTloNWZWdzNtMDBdLS0+PC9nPjwvc3ZnPg==;" vertex="1" parent="1">
            <mxGeometry x="-370" y="-880" width="1586" height="2392" as="geometry" />
          </mxCell>
        </UserObject>
      </root>
    </mxGraphModel>
  </diagram>
  <diagram id="oWJGFEZhg5e59OC-_LJ8" name="Page-2">
    <mxGraphModel dx="1042" dy="1708" grid="1" gridSize="10" guides="1" tooltips="1" connect="1" arrows="1" fold="1" page="1" pageScale="1" pageWidth="850" pageHeight="1100" math="0" shadow="0">
      <root>
        <mxCell id="0" />
        <mxCell id="1" parent="0" />
        <UserObject label="" plantUmlData="{&#xa;  &quot;data&quot;: &quot;@startuml BankTransaction\n\nstart\n:Transaction Request;\n:Validate &amp; Authenticate;\nif (Valid?) then (no)\n  :Decline Transaction;\n  stop\nelse (yes)\nendif\n\n:Check Balance &amp; Limits;\nif (Sufficient?) then (no)\n  :Decline Transaction;\n  stop\nelse (yes)\nendif\n\n:Process Transaction;\n:Update Accounts;\n:Record &amp; Confirm;\n:Transaction Complete;\nstop\n\n@enduml&quot;,&#xa;  &quot;format&quot;: &quot;svg&quot;&#xa;}" id="QZKoMyanCrCLzumYu5_s-1">
          <mxCell style="shape=image;noLabel=1;verticalAlign=top;aspect=fixed;imageAspect=0;image=data:image/svg+xml,PHN2ZyB4bWxucz0iaHR0cDovL3d3dy53My5vcmcvMjAwMC9zdmciIHhtbG5zOnhsaW5rPSJodHRwOi8vd3d3LnczLm9yZy8xOTk5L3hsaW5rIiBjb250ZW50U3R5bGVUeXBlPSJ0ZXh0L2NzcyIgZGF0YS1kaWFncmFtLXR5cGU9IkFDVElWSVRZIiBoZWlnaHQ9IjgwMHB4IiBwcmVzZXJ2ZUFzcGVjdFJhdGlvPSJub25lIiBzdHlsZT0id2lkdGg6MTkzcHg7aGVpZ2h0OjgwMHB4O2JhY2tncm91bmQ6I0ZGRkZGRjsiIHZlcnNpb249IjEuMSIgdmlld0JveD0iMCAwIDE5MyA4MDAiIHdpZHRoPSIxOTNweCIgem9vbUFuZFBhbj0ibWFnbmlmeSI+PGRlZnMvPjxnPjxlbGxpcHNlIGN4PSI5MCIgY3k9IjIwIiBmaWxsPSIjMjIyMjIyIiByeD0iMTAiIHJ5PSIxMCIgc3R5bGU9InN0cm9rZTojMjIyMjIyO3N0cm9rZS13aWR0aDoxOyIvPjxyZWN0IGZpbGw9IiNGMUYxRjEiIGhlaWdodD0iMzIuODQzOCIgcng9IjEyLjUiIHJ5PSIxMi41IiBzdHlsZT0ic3Ryb2tlOiMxODE4MTg7c3Ryb2tlLXdpZHRoOjAuNTsiIHdpZHRoPSIxMzQiIHg9IjIzIiB5PSI1MCIvPjx0ZXh0IGZpbGw9IiMwMDAwMDAiIGZvbnQtZmFtaWx5PSJzYW5zLXNlcmlmIiBmb250LXNpemU9IjEyIiBsZW5ndGhBZGp1c3Q9InNwYWNpbmciIHRleHRMZW5ndGg9IjExNCIgeD0iMzMiIHk9IjcxLjM0MzgiPlRyYW5zYWN0aW9uIFJlcXVlc3Q8L3RleHQ+PHJlY3QgZmlsbD0iI0YxRjFGMSIgaGVpZ2h0PSIzMi44NDM4IiByeD0iMTIuNSIgcnk9IjEyLjUiIHN0eWxlPSJzdHJva2U6IzE4MTgxODtzdHJva2Utd2lkdGg6MC41OyIgd2lkdGg9IjE1OCIgeD0iMTEiIHk9IjEwMi44NDM4Ii8+PHRleHQgZmlsbD0iIzAwMDAwMCIgZm9udC1mYW1pbHk9InNhbnMtc2VyaWYiIGZvbnQtc2l6ZT0iMTIiIGxlbmd0aEFkanVzdD0ic3BhY2luZyIgdGV4dExlbmd0aD0iMTM4IiB4PSIyMSIgeT0iMTI0LjE4NzUiPlZhbGlkYXRlICZhbXA7IEF1dGhlbnRpY2F0ZTwvdGV4dD48cmVjdCBmaWxsPSIjRjFGMUYxIiBoZWlnaHQ9IjMyLjg0MzgiIHJ4PSIxMi41IiByeT0iMTIuNSIgc3R5bGU9InN0cm9rZTojMTgxODE4O3N0cm9rZS13aWR0aDowLjU7IiB3aWR0aD0iMTM0IiB4PSIyMyIgeT0iMjAzLjY4NzUiLz48dGV4dCBmaWxsPSIjMDAwMDAwIiBmb250LWZhbWlseT0ic2Fucy1zZXJpZiIgZm9udC1zaXplPSIxMiIgbGVuZ3RoQWRqdXN0PSJzcGFjaW5nIiB0ZXh0TGVuZ3RoPSIxMTQiIHg9IjMzIiB5PSIyMjUuMDMxMyI+RGVjbGluZSBUcmFuc2FjdGlvbjwvdGV4dD48ZWxsaXBzZSBjeD0iOTAiIGN5PSIyNzYuNjA5NCIgZmlsbD0ibm9uZSIgcng9IjExIiByeT0iMTEiIHN0eWxlPSJzdHJva2U6IzIyMjIyMjtzdHJva2Utd2lkdGg6MTsiLz48ZWxsaXBzZSBjeD0iOTAiIGN5PSIyNzYuNjA5NCIgZmlsbD0iIzIyMjIyMiIgcng9IjYiIHJ5PSI2IiBzdHlsZT0ic3Ryb2tlOiMyMjIyMjI7c3Ryb2tlLXdpZHRoOjE7Ii8+PHBvbHlnb24gZmlsbD0iI0YxRjFGMSIgcG9pbnRzPSI3My41LDE1NS42ODc1LDEwNi41LDE1NS42ODc1LDExOC41LDE2Ny42ODc1LDEwNi41LDE3OS42ODc1LDczLjUsMTc5LjY4NzUsNjEuNSwxNjcuNjg3NSw3My41LDE1NS42ODc1IiBzdHlsZT0ic3Ryb2tlOiMxODE4MTg7c3Ryb2tlLXdpZHRoOjAuNTsiLz48dGV4dCBmaWxsPSIjMDAwMDAwIiBmb250LWZhbWlseT0ic2Fucy1zZXJpZiIgZm9udC1zaXplPSIxMSIgbGVuZ3RoQWRqdXN0PSJzcGFjaW5nIiB0ZXh0TGVuZ3RoPSIxMSIgeD0iOTQiIHk9IjE5MC4wODU5Ij5ubzwvdGV4dD48dGV4dCBmaWxsPSIjMDAwMDAwIiBmb250LWZhbWlseT0ic2Fucy1zZXJpZiIgZm9udC1zaXplPSIxMSIgbGVuZ3RoQWRqdXN0PSJzcGFjaW5nIiB0ZXh0TGVuZ3RoPSIzMyIgeD0iNzMuNSIgeT0iMTcyLjE5OTIiPlZhbGlkPzwvdGV4dD48dGV4dCBmaWxsPSIjMDAwMDAwIiBmb250LWZhbWlseT0ic2Fucy1zZXJpZiIgZm9udC1zaXplPSIxMSIgbGVuZ3RoQWRqdXN0PSJzcGFjaW5nIiB0ZXh0TGVuZ3RoPSIxNi41IiB4PSIxMTguNSIgeT0iMTY2LjMxMjUiPnllczwvdGV4dD48cmVjdCBmaWxsPSIjRjFGMUYxIiBoZWlnaHQ9IjMyLjg0MzgiIHJ4PSIxMi41IiByeT0iMTIuNSIgc3R5bGU9InN0cm9rZTojMTgxODE4O3N0cm9rZS13aWR0aDowLjU7IiB3aWR0aD0iMTUyIiB4PSIxNCIgeT0iMzI5LjYwOTQiLz48dGV4dCBmaWxsPSIjMDAwMDAwIiBmb250LWZhbWlseT0ic2Fucy1zZXJpZiIgZm9udC1zaXplPSIxMiIgbGVuZ3RoQWRqdXN0PSJzcGFjaW5nIiB0ZXh0TGVuZ3RoPSIxMzIiIHg9IjI0IiB5PSIzNTAuOTUzMSI+Q2hlY2sgQmFsYW5jZSAmYW1wOyBMaW1pdHM8L3RleHQ+PHJlY3QgZmlsbD0iI0YxRjFGMSIgaGVpZ2h0PSIzMi44NDM4IiByeD0iMTIuNSIgcnk9IjEyLjUiIHN0eWxlPSJzdHJva2U6IzE4MTgxODtzdHJva2Utd2lkdGg6MC41OyIgd2lkdGg9IjEzNCIgeD0iMjMiIHk9IjQzMC40NTMxIi8+PHRleHQgZmlsbD0iIzAwMDAwMCIgZm9udC1mYW1pbHk9InNhbnMtc2VyaWYiIGZvbnQtc2l6ZT0iMTIiIGxlbmd0aEFkanVzdD0ic3BhY2luZyIgdGV4dExlbmd0aD0iMTE0IiB4PSIzMyIgeT0iNDUxLjc5NjkiPkRlY2xpbmUgVHJhbnNhY3Rpb248L3RleHQ+PGVsbGlwc2UgY3g9IjkwIiBjeT0iNTAzLjM3NSIgZmlsbD0ibm9uZSIgcng9IjExIiByeT0iMTEiIHN0eWxlPSJzdHJva2U6IzIyMjIyMjtzdHJva2Utd2lkdGg6MTsiLz48ZWxsaXBzZSBjeD0iOTAiIGN5PSI1MDMuMzc1IiBmaWxsPSIjMjIyMjIyIiByeD0iNiIgcnk9IjYiIHN0eWxlPSJzdHJva2U6IzIyMjIyMjtzdHJva2Utd2lkdGg6MTsiLz48cG9seWdvbiBmaWxsPSIjRjFGMUYxIiBwb2ludHM9IjU5Ljc1LDM4Mi40NTMxLDEyMC4yNSwzODIuNDUzMSwxMzIuMjUsMzk0LjQ1MzEsMTIwLjI1LDQwNi40NTMxLDU5Ljc1LDQwNi40NTMxLDQ3Ljc1LDM5NC40NTMxLDU5Ljc1LDM4Mi40NTMxIiBzdHlsZT0ic3Ryb2tlOiMxODE4MTg7c3Ryb2tlLXdpZHRoOjAuNTsiLz48dGV4dCBmaWxsPSIjMDAwMDAwIiBmb250LWZhbWlseT0ic2Fucy1zZXJpZiIgZm9udC1zaXplPSIxMSIgbGVuZ3RoQWRqdXN0PSJzcGFjaW5nIiB0ZXh0TGVuZ3RoPSIxMSIgeD0iOTQiIHk9IjQxNi44NTE2Ij5ubzwvdGV4dD48dGV4dCBmaWxsPSIjMDAwMDAwIiBmb250LWZhbWlseT0ic2Fucy1zZXJpZiIgZm9udC1zaXplPSIxMSIgbGVuZ3RoQWRqdXN0PSJzcGFjaW5nIiB0ZXh0TGVuZ3RoPSI2MC41IiB4PSI1OS43NSIgeT0iMzk4Ljk2NDgiPlN1ZmZpY2llbnQ/PC90ZXh0Pjx0ZXh0IGZpbGw9IiMwMDAwMDAiIGZvbnQtZmFtaWx5PSJzYW5zLXNlcmlmIiBmb250LXNpemU9IjExIiBsZW5ndGhBZGp1c3Q9InNwYWNpbmciIHRleHRMZW5ndGg9IjE2LjUiIHg9IjEzMi4yNSIgeT0iMzkzLjA3ODEiPnllczwvdGV4dD48cmVjdCBmaWxsPSIjRjFGMUYxIiBoZWlnaHQ9IjMyLjg0MzgiIHJ4PSIxMi41IiByeT0iMTIuNSIgc3R5bGU9InN0cm9rZTojMTgxODE4O3N0cm9rZS13aWR0aDowLjU7IiB3aWR0aD0iMTM0IiB4PSIyMyIgeT0iNTU2LjM3NSIvPjx0ZXh0IGZpbGw9IiMwMDAwMDAiIGZvbnQtZmFtaWx5PSJzYW5zLXNlcmlmIiBmb250LXNpemU9IjEyIiBsZW5ndGhBZGp1c3Q9InNwYWNpbmciIHRleHRMZW5ndGg9IjExNCIgeD0iMzMiIHk9IjU3Ny43MTg4Ij5Qcm9jZXNzIFRyYW5zYWN0aW9uPC90ZXh0PjxyZWN0IGZpbGw9IiNGMUYxRjEiIGhlaWdodD0iMzIuODQzOCIgcng9IjEyLjUiIHJ5PSIxMi41IiBzdHlsZT0ic3Ryb2tlOiMxODE4MTg7c3Ryb2tlLXdpZHRoOjAuNTsiIHdpZHRoPSIxMTAiIHg9IjM1IiB5PSI2MDkuMjE4OCIvPjx0ZXh0IGZpbGw9IiMwMDAwMDAiIGZvbnQtZmFtaWx5PSJzYW5zLXNlcmlmIiBmb250LXNpemU9IjEyIiBsZW5ndGhBZGp1c3Q9InNwYWNpbmciIHRleHRMZW5ndGg9IjkwIiB4PSI0NSIgeT0iNjMwLjU2MjUiPlVwZGF0ZSBBY2NvdW50czwvdGV4dD48cmVjdCBmaWxsPSIjRjFGMUYxIiBoZWlnaHQ9IjMyLjg0MzgiIHJ4PSIxMi41IiByeT0iMTIuNSIgc3R5bGU9InN0cm9rZTojMTgxODE4O3N0cm9rZS13aWR0aDowLjU7IiB3aWR0aD0iMTE2IiB4PSIzMiIgeT0iNjYyLjA2MjUiLz48dGV4dCBmaWxsPSIjMDAwMDAwIiBmb250LWZhbWlseT0ic2Fucy1zZXJpZiIgZm9udC1zaXplPSIxMiIgbGVuZ3RoQWRqdXN0PSJzcGFjaW5nIiB0ZXh0TGVuZ3RoPSI5NiIgeD0iNDIiIHk9IjY4My40MDYzIj5SZWNvcmQgJmFtcDsgQ29uZmlybTwvdGV4dD48cmVjdCBmaWxsPSIjRjFGMUYxIiBoZWlnaHQ9IjMyLjg0MzgiIHJ4PSIxMi41IiByeT0iMTIuNSIgc3R5bGU9InN0cm9rZTojMTgxODE4O3N0cm9rZS13aWR0aDowLjU7IiB3aWR0aD0iMTQwIiB4PSIyMCIgeT0iNzE0LjkwNjMiLz48dGV4dCBmaWxsPSIjMDAwMDAwIiBmb250LWZhbWlseT0ic2Fucy1zZXJpZiIgZm9udC1zaXplPSIxMiIgbGVuZ3RoQWRqdXN0PSJzcGFjaW5nIiB0ZXh0TGVuZ3RoPSIxMjAiIHg9IjMwIiB5PSI3MzYuMjUiPlRyYW5zYWN0aW9uIENvbXBsZXRlPC90ZXh0PjxlbGxpcHNlIGN4PSI5MCIgY3k9Ijc3OC43NSIgZmlsbD0ibm9uZSIgcng9IjExIiByeT0iMTEiIHN0eWxlPSJzdHJva2U6IzIyMjIyMjtzdHJva2Utd2lkdGg6MTsiLz48ZWxsaXBzZSBjeD0iOTAiIGN5PSI3NzguNzUiIGZpbGw9IiMyMjIyMjIiIHJ4PSI2IiByeT0iNiIgc3R5bGU9InN0cm9rZTojMjIyMjIyO3N0cm9rZS13aWR0aDoxOyIvPjxsaW5lIHN0eWxlPSJzdHJva2U6IzE4MTgxODtzdHJva2Utd2lkdGg6MTsiIHgxPSI5MCIgeDI9IjkwIiB5MT0iMzAiIHkyPSI1MCIvPjxwb2x5Z29uIGZpbGw9IiMxODE4MTgiIHBvaW50cz0iODYsNDAsOTAsNTAsOTQsNDAsOTAsNDQiIHN0eWxlPSJzdHJva2U6IzE4MTgxODtzdHJva2Utd2lkdGg6MTsiLz48bGluZSBzdHlsZT0ic3Ryb2tlOiMxODE4MTg7c3Ryb2tlLXdpZHRoOjE7IiB4MT0iOTAiIHgyPSI5MCIgeTE9IjgyLjg0MzgiIHkyPSIxMDIuODQzOCIvPjxwb2x5Z29uIGZpbGw9IiMxODE4MTgiIHBvaW50cz0iODYsOTIuODQzOCw5MCwxMDIuODQzOCw5NCw5Mi44NDM4LDkwLDk2Ljg0MzgiIHN0eWxlPSJzdHJva2U6IzE4MTgxODtzdHJva2Utd2lkdGg6MTsiLz48bGluZSBzdHlsZT0ic3Ryb2tlOiMxODE4MTg7c3Ryb2tlLXdpZHRoOjE7IiB4MT0iOTAiIHgyPSI5MCIgeTE9IjIzNi41MzEzIiB5Mj0iMjY1LjYwOTQiLz48cG9seWdvbiBmaWxsPSIjMTgxODE4IiBwb2ludHM9Ijg2LDI1NS42MDk0LDkwLDI2NS42MDk0LDk0LDI1NS42MDk0LDkwLDI1OS42MDk0IiBzdHlsZT0ic3Ryb2tlOiMxODE4MTg7c3Ryb2tlLXdpZHRoOjE7Ii8+PGxpbmUgc3R5bGU9InN0cm9rZTojMTgxODE4O3N0cm9rZS13aWR0aDoxOyIgeDE9IjkwIiB4Mj0iOTAiIHkxPSIxNzkuNjg3NSIgeTI9IjIwMy42ODc1Ii8+PHBvbHlnb24gZmlsbD0iIzE4MTgxOCIgcG9pbnRzPSI4NiwxOTMuNjg3NSw5MCwyMDMuNjg3NSw5NCwxOTMuNjg3NSw5MCwxOTcuNjg3NSIgc3R5bGU9InN0cm9rZTojMTgxODE4O3N0cm9rZS13aWR0aDoxOyIvPjxsaW5lIHN0eWxlPSJzdHJva2U6IzE4MTgxODtzdHJva2Utd2lkdGg6MTsiIHgxPSIxMTguNSIgeDI9IjE2NyIgeTE9IjE2Ny42ODc1IiB5Mj0iMTY3LjY4NzUiLz48cG9seWdvbiBmaWxsPSIjMTgxODE4IiBwb2ludHM9IjE2MywyMzUuNjA5NCwxNjcsMjQ1LjYwOTQsMTcxLDIzNS42MDk0LDE2NywyMzkuNjA5NCIgc3R5bGU9InN0cm9rZTojMTgxODE4O3N0cm9rZS13aWR0aDoxOyIvPjxsaW5lIHN0eWxlPSJzdHJva2U6IzE4MTgxODtzdHJva2Utd2lkdGg6MTsiIHgxPSIxNjciIHgyPSIxNjciIHkxPSIxNjcuNjg3NSIgeTI9IjMwOS42MDk0Ii8+PGxpbmUgc3R5bGU9InN0cm9rZTojMTgxODE4O3N0cm9rZS13aWR0aDoxOyIgeDE9IjE2NyIgeDI9IjkwIiB5MT0iMzA5LjYwOTQiIHkyPSIzMDkuNjA5NCIvPjxsaW5lIHN0eWxlPSJzdHJva2U6IzE4MTgxODtzdHJva2Utd2lkdGg6MTsiIHgxPSI5MCIgeDI9IjkwIiB5MT0iMzA5LjYwOTQiIHkyPSIzMjkuNjA5NCIvPjxwb2x5Z29uIGZpbGw9IiMxODE4MTgiIHBvaW50cz0iODYsMzE5LjYwOTQsOTAsMzI5LjYwOTQsOTQsMzE5LjYwOTQsOTAsMzIzLjYwOTQiIHN0eWxlPSJzdHJva2U6IzE4MTgxODtzdHJva2Utd2lkdGg6MTsiLz48bGluZSBzdHlsZT0ic3Ryb2tlOiMxODE4MTg7c3Ryb2tlLXdpZHRoOjE7IiB4MT0iOTAiIHgyPSI5MCIgeTE9IjEzNS42ODc1IiB5Mj0iMTU1LjY4NzUiLz48cG9seWdvbiBmaWxsPSIjMTgxODE4IiBwb2ludHM9Ijg2LDE0NS42ODc1LDkwLDE1NS42ODc1LDk0LDE0NS42ODc1LDkwLDE0OS42ODc1IiBzdHlsZT0ic3Ryb2tlOiMxODE4MTg7c3Ryb2tlLXdpZHRoOjE7Ii8+PGxpbmUgc3R5bGU9InN0cm9rZTojMTgxODE4O3N0cm9rZS13aWR0aDoxOyIgeDE9IjkwIiB4Mj0iOTAiIHkxPSI0NjMuMjk2OSIgeTI9IjQ5Mi4zNzUiLz48cG9seWdvbiBmaWxsPSIjMTgxODE4IiBwb2ludHM9Ijg2LDQ4Mi4zNzUsOTAsNDkyLjM3NSw5NCw0ODIuMzc1LDkwLDQ4Ni4zNzUiIHN0eWxlPSJzdHJva2U6IzE4MTgxODtzdHJva2Utd2lkdGg6MTsiLz48bGluZSBzdHlsZT0ic3Ryb2tlOiMxODE4MTg7c3Ryb2tlLXdpZHRoOjE7IiB4MT0iOTAiIHgyPSI5MCIgeTE9IjQwNi40NTMxIiB5Mj0iNDMwLjQ1MzEiLz48cG9seWdvbiBmaWxsPSIjMTgxODE4IiBwb2ludHM9Ijg2LDQyMC40NTMxLDkwLDQzMC40NTMxLDk0LDQyMC40NTMxLDkwLDQyNC40NTMxIiBzdHlsZT0ic3Ryb2tlOiMxODE4MTg7c3Ryb2tlLXdpZHRoOjE7Ii8+PGxpbmUgc3R5bGU9InN0cm9rZTojMTgxODE4O3N0cm9rZS13aWR0aDoxOyIgeDE9IjEzMi4yNSIgeDI9IjE2NyIgeTE9IjM5NC40NTMxIiB5Mj0iMzk0LjQ1MzEiLz48cG9seWdvbiBmaWxsPSIjMTgxODE4IiBwb2ludHM9IjE2Myw0NjIuMzc1LDE2Nyw0NzIuMzc1LDE3MSw0NjIuMzc1LDE2Nyw0NjYuMzc1IiBzdHlsZT0ic3Ryb2tlOiMxODE4MTg7c3Ryb2tlLXdpZHRoOjE7Ii8+PGxpbmUgc3R5bGU9InN0cm9rZTojMTgxODE4O3N0cm9rZS13aWR0aDoxOyIgeDE9IjE2NyIgeDI9IjE2NyIgeTE9IjM5NC40NTMxIiB5Mj0iNTM2LjM3NSIvPjxsaW5lIHN0eWxlPSJzdHJva2U6IzE4MTgxODtzdHJva2Utd2lkdGg6MTsiIHgxPSIxNjciIHgyPSI5MCIgeTE9IjUzNi4zNzUiIHkyPSI1MzYuMzc1Ii8+PGxpbmUgc3R5bGU9InN0cm9rZTojMTgxODE4O3N0cm9rZS13aWR0aDoxOyIgeDE9IjkwIiB4Mj0iOTAiIHkxPSI1MzYuMzc1IiB5Mj0iNTU2LjM3NSIvPjxwb2x5Z29uIGZpbGw9IiMxODE4MTgiIHBvaW50cz0iODYsNTQ2LjM3NSw5MCw1NTYuMzc1LDk0LDU0Ni4zNzUsOTAsNTUwLjM3NSIgc3R5bGU9InN0cm9rZTojMTgxODE4O3N0cm9rZS13aWR0aDoxOyIvPjxsaW5lIHN0eWxlPSJzdHJva2U6IzE4MTgxODtzdHJva2Utd2lkdGg6MTsiIHgxPSI5MCIgeDI9IjkwIiB5MT0iMzYyLjQ1MzEiIHkyPSIzODIuNDUzMSIvPjxwb2x5Z29uIGZpbGw9IiMxODE4MTgiIHBvaW50cz0iODYsMzcyLjQ1MzEsOTAsMzgyLjQ1MzEsOTQsMzcyLjQ1MzEsOTAsMzc2LjQ1MzEiIHN0eWxlPSJzdHJva2U6IzE4MTgxODtzdHJva2Utd2lkdGg6MTsiLz48bGluZSBzdHlsZT0ic3Ryb2tlOiMxODE4MTg7c3Ryb2tlLXdpZHRoOjE7IiB4MT0iOTAiIHgyPSI5MCIgeTE9IjU4OS4yMTg4IiB5Mj0iNjA5LjIxODgiLz48cG9seWdvbiBmaWxsPSIjMTgxODE4IiBwb2ludHM9Ijg2LDU5OS4yMTg4LDkwLDYwOS4yMTg4LDk0LDU5OS4yMTg4LDkwLDYwMy4yMTg4IiBzdHlsZT0ic3Ryb2tlOiMxODE4MTg7c3Ryb2tlLXdpZHRoOjE7Ii8+PGxpbmUgc3R5bGU9InN0cm9rZTojMTgxODE4O3N0cm9rZS13aWR0aDoxOyIgeDE9IjkwIiB4Mj0iOTAiIHkxPSI2NDIuMDYyNSIgeTI9IjY2Mi4wNjI1Ii8+PHBvbHlnb24gZmlsbD0iIzE4MTgxOCIgcG9pbnRzPSI4Niw2NTIuMDYyNSw5MCw2NjIuMDYyNSw5NCw2NTIuMDYyNSw5MCw2NTYuMDYyNSIgc3R5bGU9InN0cm9rZTojMTgxODE4O3N0cm9rZS13aWR0aDoxOyIvPjxsaW5lIHN0eWxlPSJzdHJva2U6IzE4MTgxODtzdHJva2Utd2lkdGg6MTsiIHgxPSI5MCIgeDI9IjkwIiB5MT0iNjk0LjkwNjMiIHkyPSI3MTQuOTA2MyIvPjxwb2x5Z29uIGZpbGw9IiMxODE4MTgiIHBvaW50cz0iODYsNzA0LjkwNjMsOTAsNzE0LjkwNjMsOTQsNzA0LjkwNjMsOTAsNzA4LjkwNjMiIHN0eWxlPSJzdHJva2U6IzE4MTgxODtzdHJva2Utd2lkdGg6MTsiLz48bGluZSBzdHlsZT0ic3Ryb2tlOiMxODE4MTg7c3Ryb2tlLXdpZHRoOjE7IiB4MT0iOTAiIHgyPSI5MCIgeTE9Ijc0Ny43NSIgeTI9Ijc2Ny43NSIvPjxwb2x5Z29uIGZpbGw9IiMxODE4MTgiIHBvaW50cz0iODYsNzU3Ljc1LDkwLDc2Ny43NSw5NCw3NTcuNzUsOTAsNzYxLjc1IiBzdHlsZT0ic3Ryb2tlOiMxODE4MTg7c3Ryb2tlLXdpZHRoOjE7Ii8+PCEtLVNSQz1bZlAyejNpOG0zOEp0RjhLZHJCdjJFWTBlOG1GWVJ1elNIcllhSmVkVFdSVWRXR0xjSGYtai10b2Q1ZWV2Vm92MURBMW41WlpJT29RcnBsYmhJM200OHJaMVBoT1JZSjRrTy1TdUdsRFVoYmtlRVpJSU1tVldUdUk5WFUzQmhyanFqSm12SWFoR0Y0YlJIcDltVEN4dER5OHhSNENBV2ZNb3Z2NURGX3dkRUtQNk5nMV9HV3ViOHdkLWRsbEJ6NHdzR1NvcExBT180a09vQjVfcU1JQU5pVmtqZlNfWmJBWWNodzBOXS0tPjwvZz48L3N2Zz4=;" vertex="1" parent="1">
            <mxGeometry x="330" y="-80" width="200" height="829.02" as="geometry" />
          </mxCell>
        </UserObject>
      </root>
    </mxGraphModel>
  </diagram>
  <diagram id="qmuLKxHUjdws5U6hYt1k" name="Page-3">
    <mxGraphModel grid="1" page="1" gridSize="10" guides="1" tooltips="1" connect="1" arrows="1" fold="1" pageScale="1" pageWidth="850" pageHeight="1100" math="0" shadow="0">
      <root>
        <mxCell id="0" />
        <mxCell id="1" parent="0" />
      </root>
    </mxGraphModel>
  </diagram>
  <diagram id="lSBgzpeU1KKOCa8kT5lA" name="Page-4">
    <mxGraphModel dx="1042" dy="1708" grid="1" gridSize="10" guides="1" tooltips="1" connect="1" arrows="1" fold="1" page="1" pageScale="1" pageWidth="850" pageHeight="1100" math="0" shadow="0">
      <root>
        <mxCell id="0" />
        <mxCell id="1" parent="0" />
        <UserObject label="" plantUmlData="{&#xa;  &quot;data&quot;: &quot;@startuml BankTransaction\n\n|Customer|\nstart\n:Submit Transaction Request;\n\n|Validation System|\n:Validate &amp; Authenticate;\nif (Valid?) then (no)\n  :Send Decline Message;\n  |Customer|\n  :Receive Decline;\n  stop\nelse (yes)\nendif\n\n|Core Banking|\n:Check Balance &amp; Limits;\nif (Sufficient?) then (no)\n  :Send Decline Message;\n  |Customer|\n  :Receive Decline;\n  stop\nelse (yes)\nendif\n\n:Process Transaction;\n:Update Accounts;\n\n|Audit System|\n:Record Transaction;\n\n|Notification System|\n:Send Confirmation;\n\n|Customer|\n:Receive Confirmation;\n:Transaction Complete;\nstop\n\n@enduml&quot;,&#xa;  &quot;format&quot;: &quot;svg&quot;&#xa;}" id="_M7JeALynX8CDk3om5ys-1">
          <mxCell style="shape=image;noLabel=1;verticalAlign=top;aspect=fixed;imageAspect=0;image=data:image/svg+xml,PHN2ZyB4bWxucz0iaHR0cDovL3d3dy53My5vcmcvMjAwMC9zdmciIHhtbG5zOnhsaW5rPSJodHRwOi8vd3d3LnczLm9yZy8xOTk5L3hsaW5rIiBjb250ZW50U3R5bGVUeXBlPSJ0ZXh0L2NzcyIgZGF0YS1kaWFncmFtLXR5cGU9IkFDVElWSVRZIiBoZWlnaHQ9IjEwMjBweCIgcHJlc2VydmVBc3BlY3RSYXRpbz0ibm9uZSIgc3R5bGU9IndpZHRoOjkwMXB4O2hlaWdodDoxMDIwcHg7YmFja2dyb3VuZDojRkZGRkZGOyIgdmVyc2lvbj0iMS4xIiB2aWV3Qm94PSIwIDAgOTAxIDEwMjAiIHdpZHRoPSI5MDFweCIgem9vbUFuZFBhbj0ibWFnbmlmeSI+PGRlZnMvPjxnPjxyZWN0IGZpbGw9Im5vbmUiIGhlaWdodD0iMTkuMjY1NiIgc3R5bGU9InN0cm9rZTpub25lO3N0cm9rZS13aWR0aDoxOyIgd2lkdGg9Ijg2OC41IiB4PSIxNSIgeT0iMTEiLz48ZWxsaXBzZSBjeD0iMTA5IiBjeT0iNDUuMjY1NiIgZmlsbD0iIzIyMjIyMiIgcng9IjEwIiByeT0iMTAiIHN0eWxlPSJzdHJva2U6IzIyMjIyMjtzdHJva2Utd2lkdGg6MTsiLz48cmVjdCBmaWxsPSIjRjFGMUYxIiBoZWlnaHQ9IjMyLjg0MzgiIHJ4PSIxMi41IiByeT0iMTIuNSIgc3R5bGU9InN0cm9rZTojMTgxODE4O3N0cm9rZS13aWR0aDowLjU7IiB3aWR0aD0iMTc2IiB4PSIyMSIgeT0iNzUuMjY1NiIvPjx0ZXh0IGZpbGw9IiMwMDAwMDAiIGZvbnQtZmFtaWx5PSJzYW5zLXNlcmlmIiBmb250LXNpemU9IjEyIiBsZW5ndGhBZGp1c3Q9InNwYWNpbmciIHRleHRMZW5ndGg9IjE1NiIgeD0iMzEiIHk9Ijk2LjYwOTQiPlN1Ym1pdCBUcmFuc2FjdGlvbiBSZXF1ZXN0PC90ZXh0PjxyZWN0IGZpbGw9IiNGMUYxRjEiIGhlaWdodD0iMzIuODQzOCIgcng9IjEyLjUiIHJ5PSIxMi41IiBzdHlsZT0ic3Ryb2tlOiMxODE4MTg7c3Ryb2tlLXdpZHRoOjAuNTsiIHdpZHRoPSIxMTAiIHg9IjU0IiB5PSIyODEuNzk2OSIvPjx0ZXh0IGZpbGw9IiMwMDAwMDAiIGZvbnQtZmFtaWx5PSJzYW5zLXNlcmlmIiBmb250LXNpemU9IjEyIiBsZW5ndGhBZGp1c3Q9InNwYWNpbmciIHRleHRMZW5ndGg9IjkwIiB4PSI2NCIgeT0iMzAzLjE0MDYiPlJlY2VpdmUgRGVjbGluZTwvdGV4dD48ZWxsaXBzZSBjeD0iMTA5IiBjeT0iMzQ1LjY0MDYiIGZpbGw9Im5vbmUiIHJ4PSIxMSIgcnk9IjExIiBzdHlsZT0ic3Ryb2tlOiMyMjIyMjI7c3Ryb2tlLXdpZHRoOjE7Ii8+PGVsbGlwc2UgY3g9IjEwOSIgY3k9IjM0NS42NDA2IiBmaWxsPSIjMjIyMjIyIiByeD0iNiIgcnk9IjYiIHN0eWxlPSJzdHJva2U6IzIyMjIyMjtzdHJva2Utd2lkdGg6MTsiLz48cmVjdCBmaWxsPSIjRjFGMUYxIiBoZWlnaHQ9IjMyLjg0MzgiIHJ4PSIxMi41IiByeT0iMTIuNSIgc3R5bGU9InN0cm9rZTojMTgxODE4O3N0cm9rZS13aWR0aDowLjU7IiB3aWR0aD0iMTEwIiB4PSI1NCIgeT0iNTUyLjMyODEiLz48dGV4dCBmaWxsPSIjMDAwMDAwIiBmb250LWZhbWlseT0ic2Fucy1zZXJpZiIgZm9udC1zaXplPSIxMiIgbGVuZ3RoQWRqdXN0PSJzcGFjaW5nIiB0ZXh0TGVuZ3RoPSI5MCIgeD0iNjQiIHk9IjU3My42NzE5Ij5SZWNlaXZlIERlY2xpbmU8L3RleHQ+PGVsbGlwc2UgY3g9IjEwOSIgY3k9IjYxNi4xNzE5IiBmaWxsPSJub25lIiByeD0iMTEiIHJ5PSIxMSIgc3R5bGU9InN0cm9rZTojMjIyMjIyO3N0cm9rZS13aWR0aDoxOyIvPjxlbGxpcHNlIGN4PSIxMDkiIGN5PSI2MTYuMTcxOSIgZmlsbD0iIzIyMjIyMiIgcng9IjYiIHJ5PSI2IiBzdHlsZT0ic3Ryb2tlOiMyMjIyMjI7c3Ryb2tlLXdpZHRoOjE7Ii8+PHJlY3QgZmlsbD0iI0YxRjFGMSIgaGVpZ2h0PSIzMi44NDM4IiByeD0iMTIuNSIgcnk9IjEyLjUiIHN0eWxlPSJzdHJva2U6IzE4MTgxODtzdHJva2Utd2lkdGg6MC41OyIgd2lkdGg9IjEzNCIgeD0iNDIiIHk9IjY2OS4xNzE5Ii8+PHRleHQgZmlsbD0iIzAwMDAwMCIgZm9udC1mYW1pbHk9InNhbnMtc2VyaWYiIGZvbnQtc2l6ZT0iMTIiIGxlbmd0aEFkanVzdD0ic3BhY2luZyIgdGV4dExlbmd0aD0iMTE0IiB4PSI1MiIgeT0iNjkwLjUxNTYiPlByb2Nlc3MgVHJhbnNhY3Rpb248L3RleHQ+PHJlY3QgZmlsbD0iI0YxRjFGMSIgaGVpZ2h0PSIzMi44NDM4IiByeD0iMTIuNSIgcnk9IjEyLjUiIHN0eWxlPSJzdHJva2U6IzE4MTgxODtzdHJva2Utd2lkdGg6MC41OyIgd2lkdGg9IjExMCIgeD0iNTQiIHk9IjcyMi4wMTU2Ii8+PHRleHQgZmlsbD0iIzAwMDAwMCIgZm9udC1mYW1pbHk9InNhbnMtc2VyaWYiIGZvbnQtc2l6ZT0iMTIiIGxlbmd0aEFkanVzdD0ic3BhY2luZyIgdGV4dExlbmd0aD0iOTAiIHg9IjY0IiB5PSI3NDMuMzU5NCI+VXBkYXRlIEFjY291bnRzPC90ZXh0PjxyZWN0IGZpbGw9IiNGMUYxRjEiIGhlaWdodD0iMzIuODQzOCIgcng9IjEyLjUiIHJ5PSIxMi41IiBzdHlsZT0ic3Ryb2tlOiMxODE4MTg7c3Ryb2tlLXdpZHRoOjAuNTsiIHdpZHRoPSIxNDAiIHg9IjM5IiB5PSI4ODAuNTQ2OSIvPjx0ZXh0IGZpbGw9IiMwMDAwMDAiIGZvbnQtZmFtaWx5PSJzYW5zLXNlcmlmIiBmb250LXNpemU9IjEyIiBsZW5ndGhBZGp1c3Q9InNwYWNpbmciIHRleHRMZW5ndGg9IjEyMCIgeD0iNDkiIHk9IjkwMS44OTA2Ij5SZWNlaXZlIENvbmZpcm1hdGlvbjwvdGV4dD48cmVjdCBmaWxsPSIjRjFGMUYxIiBoZWlnaHQ9IjMyLjg0MzgiIHJ4PSIxMi41IiByeT0iMTIuNSIgc3R5bGU9InN0cm9rZTojMTgxODE4O3N0cm9rZS13aWR0aDowLjU7IiB3aWR0aD0iMTQwIiB4PSIzOSIgeT0iOTMzLjM5MDYiLz48dGV4dCBmaWxsPSIjMDAwMDAwIiBmb250LWZhbWlseT0ic2Fucy1zZXJpZiIgZm9udC1zaXplPSIxMiIgbGVuZ3RoQWRqdXN0PSJzcGFjaW5nIiB0ZXh0TGVuZ3RoPSIxMjAiIHg9IjQ5IiB5PSI5NTQuNzM0NCI+VHJhbnNhY3Rpb24gQ29tcGxldGU8L3RleHQ+PGVsbGlwc2UgY3g9IjEwOSIgY3k9Ijk5Ny4yMzQ0IiBmaWxsPSJub25lIiByeD0iMTEiIHJ5PSIxMSIgc3R5bGU9InN0cm9rZTojMjIyMjIyO3N0cm9rZS13aWR0aDoxOyIvPjxlbGxpcHNlIGN4PSIxMDkiIGN5PSI5OTcuMjM0NCIgZmlsbD0iIzIyMjIyMiIgcng9IjYiIHJ5PSI2IiBzdHlsZT0ic3Ryb2tlOiMyMjIyMjI7c3Ryb2tlLXdpZHRoOjE7Ii8+PGxpbmUgc3R5bGU9InN0cm9rZTojMDAwMDAwO3N0cm9rZS13aWR0aDoxLjU7IiB4MT0iMTUiIHgyPSIxNSIgeTE9IjExIiB5Mj0iMTAwOC4yMzQ0Ii8+PHJlY3QgZmlsbD0iI0YxRjFGMSIgaGVpZ2h0PSIzMi44NDM4IiByeD0iMTIuNSIgcnk9IjEyLjUiIHN0eWxlPSJzdHJva2U6IzE4MTgxODtzdHJva2Utd2lkdGg6MC41OyIgd2lkdGg9IjE1OCIgeD0iMjA3IiB5PSIxMjguMTA5NCIvPjx0ZXh0IGZpbGw9IiMwMDAwMDAiIGZvbnQtZmFtaWx5PSJzYW5zLXNlcmlmIiBmb250LXNpemU9IjEyIiBsZW5ndGhBZGp1c3Q9InNwYWNpbmciIHRleHRMZW5ndGg9IjEzOCIgeD0iMjE3IiB5PSIxNDkuNDUzMSI+VmFsaWRhdGUgJmFtcDsgQXV0aGVudGljYXRlPC90ZXh0PjxyZWN0IGZpbGw9IiNGMUYxRjEiIGhlaWdodD0iMzIuODQzOCIgcng9IjEyLjUiIHJ5PSIxMi41IiBzdHlsZT0ic3Ryb2tlOiMxODE4MTg7c3Ryb2tlLXdpZHRoOjAuNTsiIHdpZHRoPSIxNDAiIHg9IjIxNiIgeT0iMjI4Ljk1MzEiLz48dGV4dCBmaWxsPSIjMDAwMDAwIiBmb250LWZhbWlseT0ic2Fucy1zZXJpZiIgZm9udC1zaXplPSIxMiIgbGVuZ3RoQWRqdXN0PSJzcGFjaW5nIiB0ZXh0TGVuZ3RoPSIxMjAiIHg9IjIyNiIgeT0iMjUwLjI5NjkiPlNlbmQgRGVjbGluZSBNZXNzYWdlPC90ZXh0Pjxwb2x5Z29uIGZpbGw9IiNGMUYxRjEiIHBvaW50cz0iMjY5LjUsMTgwLjk1MzEsMzAyLjUsMTgwLjk1MzEsMzE0LjUsMTkyLjk1MzEsMzAyLjUsMjA0Ljk1MzEsMjY5LjUsMjA0Ljk1MzEsMjU3LjUsMTkyLjk1MzEsMjY5LjUsMTgwLjk1MzEiIHN0eWxlPSJzdHJva2U6IzE4MTgxODtzdHJva2Utd2lkdGg6MC41OyIvPjx0ZXh0IGZpbGw9IiMwMDAwMDAiIGZvbnQtZmFtaWx5PSJzYW5zLXNlcmlmIiBmb250LXNpemU9IjExIiBsZW5ndGhBZGp1c3Q9InNwYWNpbmciIHRleHRMZW5ndGg9IjExIiB4PSIyOTAiIHk9IjIxNS4zNTE2Ij5ubzwvdGV4dD48dGV4dCBmaWxsPSIjMDAwMDAwIiBmb250LWZhbWlseT0ic2Fucy1zZXJpZiIgZm9udC1zaXplPSIxMSIgbGVuZ3RoQWRqdXN0PSJzcGFjaW5nIiB0ZXh0TGVuZ3RoPSIzMyIgeD0iMjY5LjUiIHk9IjE5Ny40NjQ4Ij5WYWxpZD88L3RleHQ+PHRleHQgZmlsbD0iIzAwMDAwMCIgZm9udC1mYW1pbHk9InNhbnMtc2VyaWYiIGZvbnQtc2l6ZT0iMTEiIGxlbmd0aEFkanVzdD0ic3BhY2luZyIgdGV4dExlbmd0aD0iMTYuNSIgeD0iMzE0LjUiIHk9IjE5MS41NzgxIj55ZXM8L3RleHQ+PGxpbmUgc3R5bGU9InN0cm9rZTojMDAwMDAwO3N0cm9rZS13aWR0aDoxLjU7IiB4MT0iMjAxIiB4Mj0iMjAxIiB5MT0iMTEiIHkyPSIxMDA4LjIzNDQiLz48cmVjdCBmaWxsPSIjRjFGMUYxIiBoZWlnaHQ9IjMyLjg0MzgiIHJ4PSIxMi41IiByeT0iMTIuNSIgc3R5bGU9InN0cm9rZTojMTgxODE4O3N0cm9rZS13aWR0aDowLjU7IiB3aWR0aD0iMTUyIiB4PSIzODYiIHk9IjM5OC42NDA2Ii8+PHRleHQgZmlsbD0iIzAwMDAwMCIgZm9udC1mYW1pbHk9InNhbnMtc2VyaWYiIGZvbnQtc2l6ZT0iMTIiIGxlbmd0aEFkanVzdD0ic3BhY2luZyIgdGV4dExlbmd0aD0iMTMyIiB4PSIzOTYiIHk9IjQxOS45ODQ0Ij5DaGVjayBCYWxhbmNlICZhbXA7IExpbWl0czwvdGV4dD48cmVjdCBmaWxsPSIjRjFGMUYxIiBoZWlnaHQ9IjMyLjg0MzgiIHJ4PSIxMi41IiByeT0iMTIuNSIgc3R5bGU9InN0cm9rZTojMTgxODE4O3N0cm9rZS13aWR0aDowLjU7IiB3aWR0aD0iMTQwIiB4PSIzOTIiIHk9IjQ5OS40ODQ0Ii8+PHRleHQgZmlsbD0iIzAwMDAwMCIgZm9udC1mYW1pbHk9InNhbnMtc2VyaWYiIGZvbnQtc2l6ZT0iMTIiIGxlbmd0aEFkanVzdD0ic3BhY2luZyIgdGV4dExlbmd0aD0iMTIwIiB4PSI0MDIiIHk9IjUyMC44MjgxIj5TZW5kIERlY2xpbmUgTWVzc2FnZTwvdGV4dD48cG9seWdvbiBmaWxsPSIjRjFGMUYxIiBwb2ludHM9IjQzMS43NSw0NTEuNDg0NCw0OTIuMjUsNDUxLjQ4NDQsNTA0LjI1LDQ2My40ODQ0LDQ5Mi4yNSw0NzUuNDg0NCw0MzEuNzUsNDc1LjQ4NDQsNDE5Ljc1LDQ2My40ODQ0LDQzMS43NSw0NTEuNDg0NCIgc3R5bGU9InN0cm9rZTojMTgxODE4O3N0cm9rZS13aWR0aDowLjU7Ii8+PHRleHQgZmlsbD0iIzAwMDAwMCIgZm9udC1mYW1pbHk9InNhbnMtc2VyaWYiIGZvbnQtc2l6ZT0iMTEiIGxlbmd0aEFkanVzdD0ic3BhY2luZyIgdGV4dExlbmd0aD0iMTEiIHg9IjQ2NiIgeT0iNDg1Ljg4MjgiPm5vPC90ZXh0Pjx0ZXh0IGZpbGw9IiMwMDAwMDAiIGZvbnQtZmFtaWx5PSJzYW5zLXNlcmlmIiBmb250LXNpemU9IjExIiBsZW5ndGhBZGp1c3Q9InNwYWNpbmciIHRleHRMZW5ndGg9IjYwLjUiIHg9IjQzMS43NSIgeT0iNDY3Ljk5NjEiPlN1ZmZpY2llbnQ/PC90ZXh0Pjx0ZXh0IGZpbGw9IiMwMDAwMDAiIGZvbnQtZmFtaWx5PSJzYW5zLXNlcmlmIiBmb250LXNpemU9IjExIiBsZW5ndGhBZGp1c3Q9InNwYWNpbmciIHRleHRMZW5ndGg9IjE2LjUiIHg9IjUwNC4yNSIgeT0iNDYyLjEwOTQiPnllczwvdGV4dD48bGluZSBzdHlsZT0ic3Ryb2tlOiMwMDAwMDA7c3Ryb2tlLXdpZHRoOjEuNTsiIHgxPSIzODAiIHgyPSIzODAiIHkxPSIxMSIgeTI9IjEwMDguMjM0NCIvPjxyZWN0IGZpbGw9IiNGMUYxRjEiIGhlaWdodD0iMzIuODQzOCIgcng9IjEyLjUiIHJ5PSIxMi41IiBzdHlsZT0ic3Ryb2tlOiMxODE4MTg7c3Ryb2tlLXdpZHRoOjAuNTsiIHdpZHRoPSIxMjgiIHg9IjU2NyIgeT0iNzc0Ljg1OTQiLz48dGV4dCBmaWxsPSIjMDAwMDAwIiBmb250LWZhbWlseT0ic2Fucy1zZXJpZiIgZm9udC1zaXplPSIxMiIgbGVuZ3RoQWRqdXN0PSJzcGFjaW5nIiB0ZXh0TGVuZ3RoPSIxMDgiIHg9IjU3NyIgeT0iNzk2LjIwMzEiPlJlY29yZCBUcmFuc2FjdGlvbjwvdGV4dD48bGluZSBzdHlsZT0ic3Ryb2tlOiMwMDAwMDA7c3Ryb2tlLXdpZHRoOjEuNTsiIHgxPSI1NjEiIHgyPSI1NjEiIHkxPSIxMSIgeTI9IjEwMDguMjM0NCIvPjxyZWN0IGZpbGw9IiNGMUYxRjEiIGhlaWdodD0iMzIuODQzOCIgcng9IjEyLjUiIHJ5PSIxMi41IiBzdHlsZT0ic3Ryb2tlOiMxODE4MTg7c3Ryb2tlLXdpZHRoOjAuNTsiIHdpZHRoPSIxMjIiIHg9IjcyOS41IiB5PSI4MjcuNzAzMSIvPjx0ZXh0IGZpbGw9IiMwMDAwMDAiIGZvbnQtZmFtaWx5PSJzYW5zLXNlcmlmIiBmb250LXNpemU9IjEyIiBsZW5ndGhBZGp1c3Q9InNwYWNpbmciIHRleHRMZW5ndGg9IjEwMiIgeD0iNzM5LjUiIHk9Ijg0OS4wNDY5Ij5TZW5kIENvbmZpcm1hdGlvbjwvdGV4dD48bGluZSBzdHlsZT0ic3Ryb2tlOiMwMDAwMDA7c3Ryb2tlLXdpZHRoOjEuNTsiIHgxPSI2OTkiIHgyPSI2OTkiIHkxPSIxMSIgeTI9IjEwMDguMjM0NCIvPjxsaW5lIHN0eWxlPSJzdHJva2U6IzAwMDAwMDtzdHJva2Utd2lkdGg6MS41OyIgeDE9Ijg4MCIgeDI9Ijg4MCIgeTE9IjExIiB5Mj0iMTAwOC4yMzQ0Ii8+PGxpbmUgc3R5bGU9InN0cm9rZTojMTgxODE4O3N0cm9rZS13aWR0aDoxOyIgeDE9IjEwOSIgeDI9IjEwOSIgeTE9IjU1LjI2NTYiIHkyPSI3NS4yNjU2Ii8+PHBvbHlnb24gZmlsbD0iIzE4MTgxOCIgcG9pbnRzPSIxMDUsNjUuMjY1NiwxMDksNzUuMjY1NiwxMTMsNjUuMjY1NiwxMDksNjkuMjY1NiIgc3R5bGU9InN0cm9rZTojMTgxODE4O3N0cm9rZS13aWR0aDoxOyIvPjxsaW5lIHN0eWxlPSJzdHJva2U6IzE4MTgxODtzdHJva2Utd2lkdGg6MTsiIHgxPSIxMDkiIHgyPSIxMDkiIHkxPSIzMTQuNjQwNiIgeTI9IjMzNC42NDA2Ii8+PHBvbHlnb24gZmlsbD0iIzE4MTgxOCIgcG9pbnRzPSIxMDUsMzI0LjY0MDYsMTA5LDMzNC42NDA2LDExMywzMjQuNjQwNiwxMDksMzI4LjY0MDYiIHN0eWxlPSJzdHJva2U6IzE4MTgxODtzdHJva2Utd2lkdGg6MTsiLz48bGluZSBzdHlsZT0ic3Ryb2tlOiMxODE4MTg7c3Ryb2tlLXdpZHRoOjE7IiB4MT0iMTA5IiB4Mj0iMTA5IiB5MT0iNTg1LjE3MTkiIHkyPSI2MDUuMTcxOSIvPjxwb2x5Z29uIGZpbGw9IiMxODE4MTgiIHBvaW50cz0iMTA1LDU5NS4xNzE5LDEwOSw2MDUuMTcxOSwxMTMsNTk1LjE3MTksMTA5LDU5OS4xNzE5IiBzdHlsZT0ic3Ryb2tlOiMxODE4MTg7c3Ryb2tlLXdpZHRoOjE7Ii8+PGxpbmUgc3R5bGU9InN0cm9rZTojMTgxODE4O3N0cm9rZS13aWR0aDoxOyIgeDE9IjEwOSIgeDI9IjEwOSIgeTE9IjcwMi4wMTU2IiB5Mj0iNzIyLjAxNTYiLz48cG9seWdvbiBmaWxsPSIjMTgxODE4IiBwb2ludHM9IjEwNSw3MTIuMDE1NiwxMDksNzIyLjAxNTYsMTEzLDcxMi4wMTU2LDEwOSw3MTYuMDE1NiIgc3R5bGU9InN0cm9rZTojMTgxODE4O3N0cm9rZS13aWR0aDoxOyIvPjxsaW5lIHN0eWxlPSJzdHJva2U6IzE4MTgxODtzdHJva2Utd2lkdGg6MTsiIHgxPSIxMDkiIHgyPSIxMDkiIHkxPSI5MTMuMzkwNiIgeTI9IjkzMy4zOTA2Ii8+PHBvbHlnb24gZmlsbD0iIzE4MTgxOCIgcG9pbnRzPSIxMDUsOTIzLjM5MDYsMTA5LDkzMy4zOTA2LDExMyw5MjMuMzkwNiwxMDksOTI3LjM5MDYiIHN0eWxlPSJzdHJva2U6IzE4MTgxODtzdHJva2Utd2lkdGg6MTsiLz48bGluZSBzdHlsZT0ic3Ryb2tlOiMxODE4MTg7c3Ryb2tlLXdpZHRoOjE7IiB4MT0iMTA5IiB4Mj0iMTA5IiB5MT0iOTY2LjIzNDQiIHkyPSI5ODYuMjM0NCIvPjxwb2x5Z29uIGZpbGw9IiMxODE4MTgiIHBvaW50cz0iMTA1LDk3Ni4yMzQ0LDEwOSw5ODYuMjM0NCwxMTMsOTc2LjIzNDQsMTA5LDk4MC4yMzQ0IiBzdHlsZT0ic3Ryb2tlOiMxODE4MTg7c3Ryb2tlLXdpZHRoOjE7Ii8+PGxpbmUgc3R5bGU9InN0cm9rZTojMTgxODE4O3N0cm9rZS13aWR0aDoxOyIgeDE9IjI4NiIgeDI9IjI4NiIgeTE9IjIwNC45NTMxIiB5Mj0iMjI4Ljk1MzEiLz48cG9seWdvbiBmaWxsPSIjMTgxODE4IiBwb2ludHM9IjI4MiwyMTguOTUzMSwyODYsMjI4Ljk1MzEsMjkwLDIxOC45NTMxLDI4NiwyMjIuOTUzMSIgc3R5bGU9InN0cm9rZTojMTgxODE4O3N0cm9rZS13aWR0aDoxOyIvPjxsaW5lIHN0eWxlPSJzdHJva2U6IzE4MTgxODtzdHJva2Utd2lkdGg6MTsiIHgxPSIzMTQuNSIgeDI9IjQ2MiIgeTE9IjE5Mi45NTMxIiB5Mj0iMTkyLjk1MzEiLz48cG9seWdvbiBmaWxsPSIjMTgxODE4IiBwb2ludHM9IjQ1OCwyOTcuMjk2OSw0NjIsMzA3LjI5NjksNDY2LDI5Ny4yOTY5LDQ2MiwzMDEuMjk2OSIgc3R5bGU9InN0cm9rZTojMTgxODE4O3N0cm9rZS13aWR0aDoxOyIvPjxsaW5lIHN0eWxlPSJzdHJva2U6IzE4MTgxODtzdHJva2Utd2lkdGg6MTsiIHgxPSI0NjIiIHgyPSI0NjIiIHkxPSIxOTIuOTUzMSIgeTI9IjM5OC42NDA2Ii8+PHBvbHlnb24gZmlsbD0iIzE4MTgxOCIgcG9pbnRzPSI0NTgsMzg4LjY0MDYsNDYyLDM5OC42NDA2LDQ2NiwzODguNjQwNiw0NjIsMzkyLjY0MDYiIHN0eWxlPSJzdHJva2U6IzE4MTgxODtzdHJva2Utd2lkdGg6MTsiLz48bGluZSBzdHlsZT0ic3Ryb2tlOiMxODE4MTg7c3Ryb2tlLXdpZHRoOjE7IiB4MT0iMjg2IiB4Mj0iMjg2IiB5MT0iMTYwLjk1MzEiIHkyPSIxODAuOTUzMSIvPjxwb2x5Z29uIGZpbGw9IiMxODE4MTgiIHBvaW50cz0iMjgyLDE3MC45NTMxLDI4NiwxODAuOTUzMSwyOTAsMTcwLjk1MzEsMjg2LDE3NC45NTMxIiBzdHlsZT0ic3Ryb2tlOiMxODE4MTg7c3Ryb2tlLXdpZHRoOjE7Ii8+PGxpbmUgc3R5bGU9InN0cm9rZTojMTgxODE4O3N0cm9rZS13aWR0aDoxOyIgeDE9IjQ2MiIgeDI9IjQ2MiIgeTE9IjQ3NS40ODQ0IiB5Mj0iNDk5LjQ4NDQiLz48cG9seWdvbiBmaWxsPSIjMTgxODE4IiBwb2ludHM9IjQ1OCw0ODkuNDg0NCw0NjIsNDk5LjQ4NDQsNDY2LDQ4OS40ODQ0LDQ2Miw0OTMuNDg0NCIgc3R5bGU9InN0cm9rZTojMTgxODE4O3N0cm9rZS13aWR0aDoxOyIvPjxsaW5lIHN0eWxlPSJzdHJva2U6IzE4MTgxODtzdHJva2Utd2lkdGg6MTsiIHgxPSI1MDQuMjUiIHgyPSI1NDIiIHkxPSI0NjMuNDg0NCIgeTI9IjQ2My40ODQ0Ii8+PHBvbHlnb24gZmlsbD0iIzE4MTgxOCIgcG9pbnRzPSI1MzgsNTU5LjA3ODEsNTQyLDU2OS4wNzgxLDU0Niw1NTkuMDc4MSw1NDIsNTYzLjA3ODEiIHN0eWxlPSJzdHJva2U6IzE4MTgxODtzdHJva2Utd2lkdGg6MTsiLz48bGluZSBzdHlsZT0ic3Ryb2tlOiMxODE4MTg7c3Ryb2tlLXdpZHRoOjE7IiB4MT0iNTQyIiB4Mj0iNTQyIiB5MT0iNDYzLjQ4NDQiIHkyPSI2NTQuMTcxOSIvPjxsaW5lIHN0eWxlPSJzdHJva2U6IzE4MTgxODtzdHJva2Utd2lkdGg6MTsiIHgxPSI1NDIiIHgyPSIxMDkiIHkxPSI2NTQuMTcxOSIgeTI9IjY1NC4xNzE5Ii8+PGxpbmUgc3R5bGU9InN0cm9rZTojMTgxODE4O3N0cm9rZS13aWR0aDoxOyIgeDE9IjEwOSIgeDI9IjEwOSIgeTE9IjY1NC4xNzE5IiB5Mj0iNjY5LjE3MTkiLz48cG9seWdvbiBmaWxsPSIjMTgxODE4IiBwb2ludHM9IjEwNSw2NTkuMTcxOSwxMDksNjY5LjE3MTksMTEzLDY1OS4xNzE5LDEwOSw2NjMuMTcxOSIgc3R5bGU9InN0cm9rZTojMTgxODE4O3N0cm9rZS13aWR0aDoxOyIvPjxsaW5lIHN0eWxlPSJzdHJva2U6IzE4MTgxODtzdHJva2Utd2lkdGg6MTsiIHgxPSI0NjIiIHgyPSI0NjIiIHkxPSI0MzEuNDg0NCIgeTI9IjQ1MS40ODQ0Ii8+PHBvbHlnb24gZmlsbD0iIzE4MTgxOCIgcG9pbnRzPSI0NTgsNDQxLjQ4NDQsNDYyLDQ1MS40ODQ0LDQ2Niw0NDEuNDg0NCw0NjIsNDQ1LjQ4NDQiIHN0eWxlPSJzdHJva2U6IzE4MTgxODtzdHJva2Utd2lkdGg6MTsiLz48bGluZSBzdHlsZT0ic3Ryb2tlOiMxODE4MTg7c3Ryb2tlLXdpZHRoOjE7IiB4MT0iMTA5IiB4Mj0iMTA5IiB5MT0iMTA4LjEwOTQiIHkyPSIxMTMuMTA5NCIvPjxsaW5lIHN0eWxlPSJzdHJva2U6IzE4MTgxODtzdHJva2Utd2lkdGg6MTsiIHgxPSIxMDkiIHgyPSIyODYiIHkxPSIxMTMuMTA5NCIgeTI9IjExMy4xMDk0Ii8+PGxpbmUgc3R5bGU9InN0cm9rZTojMTgxODE4O3N0cm9rZS13aWR0aDoxOyIgeDE9IjI4NiIgeDI9IjI4NiIgeTE9IjExMy4xMDk0IiB5Mj0iMTI4LjEwOTQiLz48cG9seWdvbiBmaWxsPSIjMTgxODE4IiBwb2ludHM9IjI4MiwxMTguMTA5NCwyODYsMTI4LjEwOTQsMjkwLDExOC4xMDk0LDI4NiwxMjIuMTA5NCIgc3R5bGU9InN0cm9rZTojMTgxODE4O3N0cm9rZS13aWR0aDoxOyIvPjxsaW5lIHN0eWxlPSJzdHJva2U6IzE4MTgxODtzdHJva2Utd2lkdGg6MTsiIHgxPSIyODYiIHgyPSIyODYiIHkxPSIyNjEuNzk2OSIgeTI9IjI2Ni43OTY5Ii8+PGxpbmUgc3R5bGU9InN0cm9rZTojMTgxODE4O3N0cm9rZS13aWR0aDoxOyIgeDE9IjI4NiIgeDI9IjEwOSIgeTE9IjI2Ni43OTY5IiB5Mj0iMjY2Ljc5NjkiLz48bGluZSBzdHlsZT0ic3Ryb2tlOiMxODE4MTg7c3Ryb2tlLXdpZHRoOjE7IiB4MT0iMTA5IiB4Mj0iMTA5IiB5MT0iMjY2Ljc5NjkiIHkyPSIyODEuNzk2OSIvPjxwb2x5Z29uIGZpbGw9IiMxODE4MTgiIHBvaW50cz0iMTA1LDI3MS43OTY5LDEwOSwyODEuNzk2OSwxMTMsMjcxLjc5NjksMTA5LDI3NS43OTY5IiBzdHlsZT0ic3Ryb2tlOiMxODE4MTg7c3Ryb2tlLXdpZHRoOjE7Ii8+PGxpbmUgc3R5bGU9InN0cm9rZTojMTgxODE4O3N0cm9rZS13aWR0aDoxOyIgeDE9IjQ2MiIgeDI9IjQ2MiIgeTE9IjUzMi4zMjgxIiB5Mj0iNTM3LjMyODEiLz48bGluZSBzdHlsZT0ic3Ryb2tlOiMxODE4MTg7c3Ryb2tlLXdpZHRoOjE7IiB4MT0iNDYyIiB4Mj0iMTA5IiB5MT0iNTM3LjMyODEiIHkyPSI1MzcuMzI4MSIvPjxsaW5lIHN0eWxlPSJzdHJva2U6IzE4MTgxODtzdHJva2Utd2lkdGg6MTsiIHgxPSIxMDkiIHgyPSIxMDkiIHkxPSI1MzcuMzI4MSIgeTI9IjU1Mi4zMjgxIi8+PHBvbHlnb24gZmlsbD0iIzE4MTgxOCIgcG9pbnRzPSIxMDUsNTQyLjMyODEsMTA5LDU1Mi4zMjgxLDExMyw1NDIuMzI4MSwxMDksNTQ2LjMyODEiIHN0eWxlPSJzdHJva2U6IzE4MTgxODtzdHJva2Utd2lkdGg6MTsiLz48bGluZSBzdHlsZT0ic3Ryb2tlOiMxODE4MTg7c3Ryb2tlLXdpZHRoOjE7IiB4MT0iMTA5IiB4Mj0iMTA5IiB5MT0iNzU0Ljg1OTQiIHkyPSI3NTkuODU5NCIvPjxsaW5lIHN0eWxlPSJzdHJva2U6IzE4MTgxODtzdHJva2Utd2lkdGg6MTsiIHgxPSIxMDkiIHgyPSI2MzEiIHkxPSI3NTkuODU5NCIgeTI9Ijc1OS44NTk0Ii8+PGxpbmUgc3R5bGU9InN0cm9rZTojMTgxODE4O3N0cm9rZS13aWR0aDoxOyIgeDE9IjYzMSIgeDI9IjYzMSIgeTE9Ijc1OS44NTk0IiB5Mj0iNzc0Ljg1OTQiLz48cG9seWdvbiBmaWxsPSIjMTgxODE4IiBwb2ludHM9IjYyNyw3NjQuODU5NCw2MzEsNzc0Ljg1OTQsNjM1LDc2NC44NTk0LDYzMSw3NjguODU5NCIgc3R5bGU9InN0cm9rZTojMTgxODE4O3N0cm9rZS13aWR0aDoxOyIvPjxsaW5lIHN0eWxlPSJzdHJva2U6IzE4MTgxODtzdHJva2Utd2lkdGg6MTsiIHgxPSI2MzEiIHgyPSI2MzEiIHkxPSI4MDcuNzAzMSIgeTI9IjgxMi43MDMxIi8+PGxpbmUgc3R5bGU9InN0cm9rZTojMTgxODE4O3N0cm9rZS13aWR0aDoxOyIgeDE9IjYzMSIgeDI9Ijc5MC41IiB5MT0iODEyLjcwMzEiIHkyPSI4MTIuNzAzMSIvPjxsaW5lIHN0eWxlPSJzdHJva2U6IzE4MTgxODtzdHJva2Utd2lkdGg6MTsiIHgxPSI3OTAuNSIgeDI9Ijc5MC41IiB5MT0iODEyLjcwMzEiIHkyPSI4MjcuNzAzMSIvPjxwb2x5Z29uIGZpbGw9IiMxODE4MTgiIHBvaW50cz0iNzg2LjUsODE3LjcwMzEsNzkwLjUsODI3LjcwMzEsNzk0LjUsODE3LjcwMzEsNzkwLjUsODIxLjcwMzEiIHN0eWxlPSJzdHJva2U6IzE4MTgxODtzdHJva2Utd2lkdGg6MTsiLz48bGluZSBzdHlsZT0ic3Ryb2tlOiMxODE4MTg7c3Ryb2tlLXdpZHRoOjE7IiB4MT0iNzkwLjUiIHgyPSI3OTAuNSIgeTE9Ijg2MC41NDY5IiB5Mj0iODY1LjU0NjkiLz48bGluZSBzdHlsZT0ic3Ryb2tlOiMxODE4MTg7c3Ryb2tlLXdpZHRoOjE7IiB4MT0iNzkwLjUiIHgyPSIxMDkiIHkxPSI4NjUuNTQ2OSIgeTI9Ijg2NS41NDY5Ii8+PGxpbmUgc3R5bGU9InN0cm9rZTojMTgxODE4O3N0cm9rZS13aWR0aDoxOyIgeDE9IjEwOSIgeDI9IjEwOSIgeTE9Ijg2NS41NDY5IiB5Mj0iODgwLjU0NjkiLz48cG9seWdvbiBmaWxsPSIjMTgxODE4IiBwb2ludHM9IjEwNSw4NzAuNTQ2OSwxMDksODgwLjU0NjksMTEzLDg3MC41NDY5LDEwOSw4NzQuNTQ2OSIgc3R5bGU9InN0cm9rZTojMTgxODE4O3N0cm9rZS13aWR0aDoxOyIvPjx0ZXh0IGZpbGw9IiMwMDAwMDAiIGZvbnQtZmFtaWx5PSJzYW5zLXNlcmlmIiBmb250LXNpemU9IjE4IiBsZW5ndGhBZGp1c3Q9InNwYWNpbmciIHRleHRMZW5ndGg9IjcyIiB4PSI3MiIgeT0iMjguMDE1NiI+Q3VzdG9tZXI8L3RleHQ+PHRleHQgZmlsbD0iIzAwMDAwMCIgZm9udC1mYW1pbHk9InNhbnMtc2VyaWYiIGZvbnQtc2l6ZT0iMTgiIGxlbmd0aEFkanVzdD0ic3BhY2luZyIgdGV4dExlbmd0aD0iMTUzIiB4PSIyMTQiIHk9IjI4LjAxNTYiPlZhbGlkYXRpb24gU3lzdGVtPC90ZXh0Pjx0ZXh0IGZpbGw9IiMwMDAwMDAiIGZvbnQtZmFtaWx5PSJzYW5zLXNlcmlmIiBmb250LXNpemU9IjE4IiBsZW5ndGhBZGp1c3Q9InNwYWNpbmciIHRleHRMZW5ndGg9IjEwOCIgeD0iNDE2LjUiIHk9IjI4LjAxNTYiPkNvcmUgQmFua2luZzwvdGV4dD48dGV4dCBmaWxsPSIjMDAwMDAwIiBmb250LWZhbWlseT0ic2Fucy1zZXJpZiIgZm9udC1zaXplPSIxOCIgbGVuZ3RoQWRqdXN0PSJzcGFjaW5nIiB0ZXh0TGVuZ3RoPSIxMDgiIHg9IjU3NiIgeT0iMjguMDE1NiI+QXVkaXQgU3lzdGVtPC90ZXh0Pjx0ZXh0IGZpbGw9IiMwMDAwMDAiIGZvbnQtZmFtaWx5PSJzYW5zLXNlcmlmIiBmb250LXNpemU9IjE4IiBsZW5ndGhBZGp1c3Q9InNwYWNpbmciIHRleHRMZW5ndGg9IjE3MSIgeD0iNzA0IiB5PSIyOC4wMTU2Ij5Ob3RpZmljYXRpb24gU3lzdGVtPC90ZXh0PjwhLS1TUkM9W2pQNURKaUdtMzhOdEZlTE5nQnIya3EyYkIwNlhBUjBGZ0pEWkpQa0tfMjJEYkNGWjVFUWQxczNmdm5WZHl0RmtLdVhrOWZ5WEhFS1pENEZ3ZDNkWWNyU3NBMXRQTVRwSEx3OEdNdTN5ZUlPVXJRZUVmbjFmcGozeVFPSHRzQUx1ODFqUEl6YTI2d3BNdmRzREhTVkFrWGVHY3U3aVk4LWE5eFE0cG5JMnNlaVRDTHpmbkJLWkpWbkRQc0NuSTdTMWNXOVhUUTlHV3luWDhyWXp5dUdGb1h4UHhlTWVGdjAtSVpxZmdtbE00eWpBdUhUZUlDUW1QZzd5UndoY3JKaWpPc3dwUkE1dk56UW1FZ3JUaWVLQVNmVDZZVm1JZzdwWF9CWHoxbGQ1SEpPYnNLdHVBdEpsaDY0X2d4RnIyZHAxdExnUXNfRnNSYnVjQVdTaFlfbTBdLS0+PC9nPjwvc3ZnPg==;" vertex="1" parent="1">
            <mxGeometry y="-270" width="901" height="1020" as="geometry" />
          </mxCell>
        </UserObject>
      </root>
    </mxGraphModel>
  </diagram>
  <diagram id="BWr0ztIAvyjsA9W88x7D" name="Page-5">
    <mxGraphModel dx="1042" dy="608" grid="1" gridSize="10" guides="1" tooltips="1" connect="1" arrows="1" fold="1" page="1" pageScale="1" pageWidth="850" pageHeight="1100" math="0" shadow="0">
      <root>
        <mxCell id="0" />
        <mxCell id="1" parent="0" />
        <UserObject label="" plantUmlData="{&#xa;  &quot;data&quot;: &quot;|Customer|\nstart\n:Request Transaction;\n\n|Bank System|\n:Validate Request;\nif (Valid?) then (yes)\n  :Process Payment;\n  :Update Balance;\nelse (no)\n  :Reject;\n  stop\nendif\n\n|Customer|\n:Get Confirmation;\nstop\n\n@enduml&quot;,&#xa;  &quot;format&quot;: &quot;svg&quot;&#xa;}" id="aYp89QSNV6LfcDutBjBS-1">
          <mxCell style="shape=image;noLabel=1;verticalAlign=top;aspect=fixed;imageAspect=0;image=data:image/svg+xml,PHN2ZyB4bWxucz0iaHR0cDovL3d3dy53My5vcmcvMjAwMC9zdmciIHhtbG5zOnhsaW5rPSJodHRwOi8vd3d3LnczLm9yZy8xOTk5L3hsaW5rIiBjb250ZW50U3R5bGVUeXBlPSJ0ZXh0L2NzcyIgZGF0YS1kaWFncmFtLXR5cGU9IkFDVElWSVRZIiBoZWlnaHQ9IjQwN3B4IiBwcmVzZXJ2ZUFzcGVjdFJhdGlvPSJub25lIiBzdHlsZT0id2lkdGg6Mzc2cHg7aGVpZ2h0OjQwN3B4O2JhY2tncm91bmQ6I0ZGRkZGRjsiIHZlcnNpb249IjEuMSIgdmlld0JveD0iMCAwIDM3NiA0MDciIHdpZHRoPSIzNzZweCIgem9vbUFuZFBhbj0ibWFnbmlmeSI+PGRlZnMvPjxnPjxyZWN0IGZpbGw9Im5vbmUiIGhlaWdodD0iMTkuMjY1NiIgc3R5bGU9InN0cm9rZTpub25lO3N0cm9rZS13aWR0aDoxOyIgd2lkdGg9IjM0My41IiB4PSIxNSIgeT0iMTEiLz48ZWxsaXBzZSBjeD0iODgiIGN5PSI0NS4yNjU2IiBmaWxsPSIjMjIyMjIyIiByeD0iMTAiIHJ5PSIxMCIgc3R5bGU9InN0cm9rZTojMjIyMjIyO3N0cm9rZS13aWR0aDoxOyIvPjxyZWN0IGZpbGw9IiNGMUYxRjEiIGhlaWdodD0iMzIuODQzOCIgcng9IjEyLjUiIHJ5PSIxMi41IiBzdHlsZT0ic3Ryb2tlOiMxODE4MTg7c3Ryb2tlLXdpZHRoOjAuNTsiIHdpZHRoPSIxMzQiIHg9IjIxIiB5PSI3NS4yNjU2Ii8+PHRleHQgZmlsbD0iIzAwMDAwMCIgZm9udC1mYW1pbHk9InNhbnMtc2VyaWYiIGZvbnQtc2l6ZT0iMTIiIGxlbmd0aEFkanVzdD0ic3BhY2luZyIgdGV4dExlbmd0aD0iMTE0IiB4PSIzMSIgeT0iOTYuNjA5NCI+UmVxdWVzdCBUcmFuc2FjdGlvbjwvdGV4dD48cmVjdCBmaWxsPSIjRjFGMUYxIiBoZWlnaHQ9IjMyLjg0MzgiIHJ4PSIxMi41IiByeT0iMTIuNSIgc3R5bGU9InN0cm9rZTojMTgxODE4O3N0cm9rZS13aWR0aDowLjU7IiB3aWR0aD0iMTE2IiB4PSIzMCIgeT0iMzIwLjY0MDYiLz48dGV4dCBmaWxsPSIjMDAwMDAwIiBmb250LWZhbWlseT0ic2Fucy1zZXJpZiIgZm9udC1zaXplPSIxMiIgbGVuZ3RoQWRqdXN0PSJzcGFjaW5nIiB0ZXh0TGVuZ3RoPSI5NiIgeD0iNDAiIHk9IjM0MS45ODQ0Ij5HZXQgQ29uZmlybWF0aW9uPC90ZXh0PjxlbGxpcHNlIGN4PSI4OCIgY3k9IjM4NC40ODQ0IiBmaWxsPSJub25lIiByeD0iMTEiIHJ5PSIxMSIgc3R5bGU9InN0cm9rZTojMjIyMjIyO3N0cm9rZS13aWR0aDoxOyIvPjxlbGxpcHNlIGN4PSI4OCIgY3k9IjM4NC40ODQ0IiBmaWxsPSIjMjIyMjIyIiByeD0iNiIgcnk9IjYiIHN0eWxlPSJzdHJva2U6IzIyMjIyMjtzdHJva2Utd2lkdGg6MTsiLz48bGluZSBzdHlsZT0ic3Ryb2tlOiMwMDAwMDA7c3Ryb2tlLXdpZHRoOjEuNTsiIHgxPSIxNSIgeDI9IjE1IiB5MT0iMTEiIHkyPSIzOTUuNDg0NCIvPjxyZWN0IGZpbGw9IiNGMUYxRjEiIGhlaWdodD0iMzIuODQzOCIgcng9IjEyLjUiIHJ5PSIxMi41IiBzdHlsZT0ic3Ryb2tlOiMxODE4MTg7c3Ryb2tlLXdpZHRoOjAuNTsiIHdpZHRoPSIxMTYiIHg9IjIxMy41IiB5PSIxMjguMTA5NCIvPjx0ZXh0IGZpbGw9IiMwMDAwMDAiIGZvbnQtZmFtaWx5PSJzYW5zLXNlcmlmIiBmb250LXNpemU9IjEyIiBsZW5ndGhBZGp1c3Q9InNwYWNpbmciIHRleHRMZW5ndGg9Ijk2IiB4PSIyMjMuNSIgeT0iMTQ5LjQ1MzEiPlZhbGlkYXRlIFJlcXVlc3Q8L3RleHQ+PHBvbHlnb24gZmlsbD0iI0YxRjFGMSIgcG9pbnRzPSIyNTUsMTgwLjk1MzEsMjg4LDE4MC45NTMxLDMwMCwxOTIuOTUzMSwyODgsMjA0Ljk1MzEsMjU1LDIwNC45NTMxLDI0MywxOTIuOTUzMSwyNTUsMTgwLjk1MzEiIHN0eWxlPSJzdHJva2U6IzE4MTgxODtzdHJva2Utd2lkdGg6MC41OyIvPjx0ZXh0IGZpbGw9IiMwMDAwMDAiIGZvbnQtZmFtaWx5PSJzYW5zLXNlcmlmIiBmb250LXNpemU9IjExIiBsZW5ndGhBZGp1c3Q9InNwYWNpbmciIHRleHRMZW5ndGg9IjMzIiB4PSIyNTUiIHk9IjE5Ny40NjQ4Ij5WYWxpZD88L3RleHQ+PHRleHQgZmlsbD0iIzAwMDAwMCIgZm9udC1mYW1pbHk9InNhbnMtc2VyaWYiIGZvbnQtc2l6ZT0iMTEiIGxlbmd0aEFkanVzdD0ic3BhY2luZyIgdGV4dExlbmd0aD0iMTYuNSIgeD0iMjI2LjUiIHk9IjE5MS41NzgxIj55ZXM8L3RleHQ+PHRleHQgZmlsbD0iIzAwMDAwMCIgZm9udC1mYW1pbHk9InNhbnMtc2VyaWYiIGZvbnQtc2l6ZT0iMTEiIGxlbmd0aEFkanVzdD0ic3BhY2luZyIgdGV4dExlbmd0aD0iMTEiIHg9IjMwMCIgeT0iMTkxLjU3ODEiPm5vPC90ZXh0PjxyZWN0IGZpbGw9IiNGMUYxRjEiIGhlaWdodD0iMzIuODQzOCIgcng9IjEyLjUiIHJ5PSIxMi41IiBzdHlsZT0ic3Ryb2tlOiMxODE4MTg7c3Ryb2tlLXdpZHRoOjAuNTsiIHdpZHRoPSIxMTAiIHg9IjE2NSIgeT0iMjE0Ljk1MzEiLz48dGV4dCBmaWxsPSIjMDAwMDAwIiBmb250LWZhbWlseT0ic2Fucy1zZXJpZiIgZm9udC1zaXplPSIxMiIgbGVuZ3RoQWRqdXN0PSJzcGFjaW5nIiB0ZXh0TGVuZ3RoPSI5MCIgeD0iMTc1IiB5PSIyMzYuMjk2OSI+UHJvY2VzcyBQYXltZW50PC90ZXh0PjxyZWN0IGZpbGw9IiNGMUYxRjEiIGhlaWdodD0iMzIuODQzOCIgcng9IjEyLjUiIHJ5PSIxMi41IiBzdHlsZT0ic3Ryb2tlOiMxODE4MTg7c3Ryb2tlLXdpZHRoOjAuNTsiIHdpZHRoPSIxMDQiIHg9IjE2OCIgeT0iMjY3Ljc5NjkiLz48dGV4dCBmaWxsPSIjMDAwMDAwIiBmb250LWZhbWlseT0ic2Fucy1zZXJpZiIgZm9udC1zaXplPSIxMiIgbGVuZ3RoQWRqdXN0PSJzcGFjaW5nIiB0ZXh0TGVuZ3RoPSI4NCIgeD0iMTc4IiB5PSIyODkuMTQwNiI+VXBkYXRlIEJhbGFuY2U8L3RleHQ+PHJlY3QgZmlsbD0iI0YxRjFGMSIgaGVpZ2h0PSIzMi44NDM4IiByeD0iMTIuNSIgcnk9IjEyLjUiIHN0eWxlPSJzdHJva2U6IzE4MTgxODtzdHJva2Utd2lkdGg6MC41OyIgd2lkdGg9IjU2IiB4PSIyOTUiIHk9IjIxNC45NTMxIi8+PHRleHQgZmlsbD0iIzAwMDAwMCIgZm9udC1mYW1pbHk9InNhbnMtc2VyaWYiIGZvbnQtc2l6ZT0iMTIiIGxlbmd0aEFkanVzdD0ic3BhY2luZyIgdGV4dExlbmd0aD0iMzYiIHg9IjMwNSIgeT0iMjM2LjI5NjkiPlJlamVjdDwvdGV4dD48ZWxsaXBzZSBjeD0iMzIzIiBjeT0iMjc4Ljc5NjkiIGZpbGw9Im5vbmUiIHJ4PSIxMSIgcnk9IjExIiBzdHlsZT0ic3Ryb2tlOiMyMjIyMjI7c3Ryb2tlLXdpZHRoOjE7Ii8+PGVsbGlwc2UgY3g9IjMyMyIgY3k9IjI3OC43OTY5IiBmaWxsPSIjMjIyMjIyIiByeD0iNiIgcnk9IjYiIHN0eWxlPSJzdHJva2U6IzIyMjIyMjtzdHJva2Utd2lkdGg6MTsiLz48bGluZSBzdHlsZT0ic3Ryb2tlOiMwMDAwMDA7c3Ryb2tlLXdpZHRoOjEuNTsiIHgxPSIxNTkiIHgyPSIxNTkiIHkxPSIxMSIgeTI9IjM5NS40ODQ0Ii8+PGxpbmUgc3R5bGU9InN0cm9rZTojMDAwMDAwO3N0cm9rZS13aWR0aDoxLjU7IiB4MT0iMzU1IiB4Mj0iMzU1IiB5MT0iMTEiIHkyPSIzOTUuNDg0NCIvPjxsaW5lIHN0eWxlPSJzdHJva2U6IzE4MTgxODtzdHJva2Utd2lkdGg6MTsiIHgxPSI4OCIgeDI9Ijg4IiB5MT0iNTUuMjY1NiIgeTI9Ijc1LjI2NTYiLz48cG9seWdvbiBmaWxsPSIjMTgxODE4IiBwb2ludHM9Ijg0LDY1LjI2NTYsODgsNzUuMjY1Niw5Miw2NS4yNjU2LDg4LDY5LjI2NTYiIHN0eWxlPSJzdHJva2U6IzE4MTgxODtzdHJva2Utd2lkdGg6MTsiLz48bGluZSBzdHlsZT0ic3Ryb2tlOiMxODE4MTg7c3Ryb2tlLXdpZHRoOjE7IiB4MT0iODgiIHgyPSI4OCIgeTE9IjM1My40ODQ0IiB5Mj0iMzczLjQ4NDQiLz48cG9seWdvbiBmaWxsPSIjMTgxODE4IiBwb2ludHM9Ijg0LDM2My40ODQ0LDg4LDM3My40ODQ0LDkyLDM2My40ODQ0LDg4LDM2Ny40ODQ0IiBzdHlsZT0ic3Ryb2tlOiMxODE4MTg7c3Ryb2tlLXdpZHRoOjE7Ii8+PGxpbmUgc3R5bGU9InN0cm9rZTojMTgxODE4O3N0cm9rZS13aWR0aDoxOyIgeDE9IjIyMCIgeDI9IjIyMCIgeTE9IjI0Ny43OTY5IiB5Mj0iMjY3Ljc5NjkiLz48cG9seWdvbiBmaWxsPSIjMTgxODE4IiBwb2ludHM9IjIxNiwyNTcuNzk2OSwyMjAsMjY3Ljc5NjksMjI0LDI1Ny43OTY5LDIyMCwyNjEuNzk2OSIgc3R5bGU9InN0cm9rZTojMTgxODE4O3N0cm9rZS13aWR0aDoxOyIvPjxsaW5lIHN0eWxlPSJzdHJva2U6IzE4MTgxODtzdHJva2Utd2lkdGg6MTsiIHgxPSIzMjMiIHgyPSIzMjMiIHkxPSIyNDcuNzk2OSIgeTI9IjI2Ny43OTY5Ii8+PHBvbHlnb24gZmlsbD0iIzE4MTgxOCIgcG9pbnRzPSIzMTksMjU3Ljc5NjksMzIzLDI2Ny43OTY5LDMyNywyNTcuNzk2OSwzMjMsMjYxLjc5NjkiIHN0eWxlPSJzdHJva2U6IzE4MTgxODtzdHJva2Utd2lkdGg6MTsiLz48bGluZSBzdHlsZT0ic3Ryb2tlOiMxODE4MTg7c3Ryb2tlLXdpZHRoOjE7IiB4MT0iMjQzIiB4Mj0iMjIwIiB5MT0iMTkyLjk1MzEiIHkyPSIxOTIuOTUzMSIvPjxsaW5lIHN0eWxlPSJzdHJva2U6IzE4MTgxODtzdHJva2Utd2lkdGg6MTsiIHgxPSIyMjAiIHgyPSIyMjAiIHkxPSIxOTIuOTUzMSIgeTI9IjIxNC45NTMxIi8+PHBvbHlnb24gZmlsbD0iIzE4MTgxOCIgcG9pbnRzPSIyMTYsMjA0Ljk1MzEsMjIwLDIxNC45NTMxLDIyNCwyMDQuOTUzMSwyMjAsMjA4Ljk1MzEiIHN0eWxlPSJzdHJva2U6IzE4MTgxODtzdHJva2Utd2lkdGg6MTsiLz48bGluZSBzdHlsZT0ic3Ryb2tlOiMxODE4MTg7c3Ryb2tlLXdpZHRoOjE7IiB4MT0iMzAwIiB4Mj0iMzIzIiB5MT0iMTkyLjk1MzEiIHkyPSIxOTIuOTUzMSIvPjxsaW5lIHN0eWxlPSJzdHJva2U6IzE4MTgxODtzdHJva2Utd2lkdGg6MTsiIHgxPSIzMjMiIHgyPSIzMjMiIHkxPSIxOTIuOTUzMSIgeTI9IjIxNC45NTMxIi8+PHBvbHlnb24gZmlsbD0iIzE4MTgxOCIgcG9pbnRzPSIzMTksMjA0Ljk1MzEsMzIzLDIxNC45NTMxLDMyNywyMDQuOTUzMSwzMjMsMjA4Ljk1MzEiIHN0eWxlPSJzdHJva2U6IzE4MTgxODtzdHJva2Utd2lkdGg6MTsiLz48bGluZSBzdHlsZT0ic3Ryb2tlOiMxODE4MTg7c3Ryb2tlLXdpZHRoOjE7IiB4MT0iMjIwIiB4Mj0iMjIwIiB5MT0iMzAwLjY0MDYiIHkyPSIzMDUuNjQwNiIvPjxsaW5lIHN0eWxlPSJzdHJva2U6IzE4MTgxODtzdHJva2Utd2lkdGg6MTsiIHgxPSIyMjAiIHgyPSI4OCIgeTE9IjMwNS42NDA2IiB5Mj0iMzA1LjY0MDYiLz48bGluZSBzdHlsZT0ic3Ryb2tlOiMxODE4MTg7c3Ryb2tlLXdpZHRoOjE7IiB4MT0iODgiIHgyPSI4OCIgeTE9IjMwNS42NDA2IiB5Mj0iMzIwLjY0MDYiLz48cG9seWdvbiBmaWxsPSIjMTgxODE4IiBwb2ludHM9Ijg0LDMxMC42NDA2LDg4LDMyMC42NDA2LDkyLDMxMC42NDA2LDg4LDMxNC42NDA2IiBzdHlsZT0ic3Ryb2tlOiMxODE4MTg7c3Ryb2tlLXdpZHRoOjE7Ii8+PGxpbmUgc3R5bGU9InN0cm9rZTojMTgxODE4O3N0cm9rZS13aWR0aDoxOyIgeDE9IjI3MS41IiB4Mj0iMjcxLjUiIHkxPSIxNjAuOTUzMSIgeTI9IjE4MC45NTMxIi8+PHBvbHlnb24gZmlsbD0iIzE4MTgxOCIgcG9pbnRzPSIyNjcuNSwxNzAuOTUzMSwyNzEuNSwxODAuOTUzMSwyNzUuNSwxNzAuOTUzMSwyNzEuNSwxNzQuOTUzMSIgc3R5bGU9InN0cm9rZTojMTgxODE4O3N0cm9rZS13aWR0aDoxOyIvPjxsaW5lIHN0eWxlPSJzdHJva2U6IzE4MTgxODtzdHJva2Utd2lkdGg6MTsiIHgxPSI4OCIgeDI9Ijg4IiB5MT0iMTA4LjEwOTQiIHkyPSIxMTMuMTA5NCIvPjxsaW5lIHN0eWxlPSJzdHJva2U6IzE4MTgxODtzdHJva2Utd2lkdGg6MTsiIHgxPSI4OCIgeDI9IjI3MS41IiB5MT0iMTEzLjEwOTQiIHkyPSIxMTMuMTA5NCIvPjxsaW5lIHN0eWxlPSJzdHJva2U6IzE4MTgxODtzdHJva2Utd2lkdGg6MTsiIHgxPSIyNzEuNSIgeDI9IjI3MS41IiB5MT0iMTEzLjEwOTQiIHkyPSIxMjguMTA5NCIvPjxwb2x5Z29uIGZpbGw9IiMxODE4MTgiIHBvaW50cz0iMjY3LjUsMTE4LjEwOTQsMjcxLjUsMTI4LjEwOTQsMjc1LjUsMTE4LjEwOTQsMjcxLjUsMTIyLjEwOTQiIHN0eWxlPSJzdHJva2U6IzE4MTgxODtzdHJva2Utd2lkdGg6MTsiLz48dGV4dCBmaWxsPSIjMDAwMDAwIiBmb250LWZhbWlseT0ic2Fucy1zZXJpZiIgZm9udC1zaXplPSIxOCIgbGVuZ3RoQWRqdXN0PSJzcGFjaW5nIiB0ZXh0TGVuZ3RoPSI3MiIgeD0iNTEiIHk9IjI4LjAxNTYiPkN1c3RvbWVyPC90ZXh0Pjx0ZXh0IGZpbGw9IiMwMDAwMDAiIGZvbnQtZmFtaWx5PSJzYW5zLXNlcmlmIiBmb250LXNpemU9IjE4IiBsZW5ndGhBZGp1c3Q9InNwYWNpbmciIHRleHRMZW5ndGg9Ijk5IiB4PSIyMDcuNSIgeT0iMjguMDE1NiI+QmFuayBTeXN0ZW08L3RleHQ+PCEtLVNSQz1bSE93eDNlQ20zMDF0VnVMNy04S21MOEFYQXdBRnRHZjZKR2pFNnZpMUFIX1ZiNVJnVWhnSkJkVWhNYm11UEwyWlBFMDZWZ3NpWGtUNGVrR2pINmEwU2Fsb21ERWNuYWk2VHdLdlo2SUNGeGsxQzY2cnFxRURUY0YxUWNFajBUN3JBTmZNblB3c1hRTWVYTHNVVXp0SUpFQXYwUHdMaVBBdTFtRlZzVXpVTU5pMm9uWWNTbDBfVEtTc3hBOUM4SXRxN1ZvT1JtMDBdLS0+PC9nPjwvc3ZnPg==;" vertex="1" parent="1">
            <mxGeometry x="170" y="230" width="530" height="573.7" as="geometry" />
          </mxCell>
        </UserObject>
      </root>
    </mxGraphModel>
  </diagram>
</mxfile>
